<?xml version="1.0" encoding="utf-8"?>
<!-- Generator: Adobe Illustrator 19.0.0, SVG Export Plug-In . SVG Version: 6.00 Build 0)  -->
<svg version="1.1" id="Layer_1" xmlns="http://www.w3.org/2000/svg" xmlns:xlink="http://www.w3.org/1999/xlink" x="0px" y="0px"
	 viewBox="0 0 1000 1000" style="enable-background:new 0 0 1000 1000;" xml:space="preserve">
<style type="text/css">
	.st0{fill:#BDBEC0;}
	.st1{fill:#A8AAAD;}
	.st2{opacity:0.15;}
	.st3{fill:#231F20;}
	.st4{opacity:0.15;fill:#010101;}
	.st5{opacity:4.000000e-002;fill:#010101;}
	.st6{fill:#939598;}
	.st7{opacity:0.1;fill:#010101;}
	.st8{opacity:0.2;}
	.st9{fill:#FFFFFF;}
	.st10{fill:#3DB54A;}
	.st11{opacity:0.5;}
	.st12{fill:#019547;}
	.st13{fill:#010101;}
	.st14{opacity:5.000000e-002;}
</style>
<g id="XMLID_1_">
	<path id="XMLID_74_" class="st0" d="M868.6,589.5c0,0-78.6-110-181.2-256.2S542.6,139.5,437.7,103.1c0,0,12.2,93.7,96.7,205.3
		s214,284.1,214,284.1l6.1,2.1L868.6,589.5z"/>
	<path id="XMLID_73_" class="st1" d="M879.3,597.4c0,0-78.9-109.8-181.8-255.6S552.1,148.4,447.1,112.3c0,0,12.4,93.6,97.2,204.9
		s210.2,277.3,210.2,277.3l34.4,13L879.3,597.4z"/>
	<g id="XMLID_67_" class="st2">
		<path id="XMLID_69_" class="st3" d="M755.2,607.8l63.4-42.1c1-0.7,1.9,0.6,1,1.4l-58.9,48.6L755.2,607.8z"/>
	</g>
	<path id="XMLID_66_" class="st4" d="M565.8,194c15.1,16.6,46.8,51.9,66.3,79.2c1,1.4-1,3.6-2.5,2.7c-12.9-8.3-41.1-30.6-66.6-79.5
		C562.1,194.6,564.5,192.6,565.8,194z"/>
	<path id="XMLID_60_" class="st5" d="M463.5,172c13.6,37.4,38,89.1,80.7,145.2C629,428.5,754.5,594.5,754.5,594.5l34.4,13l90.4-10.1
		c0,0-9.8-13.6-26.9-37.5l0,0C710.7,360.5,592.8,418.9,463.5,172z"/>
	<path id="XMLID_30_" class="st1" d="M56.1,617.7l-12.6-13.2c-4.4-4.7-4.8-11.9-0.9-17l154-200.2c2.5-3.2,5.5-6,8.9-8.2l72.3-47.4
		c1.5-1,3.5-0.9,4.9,0.3l58.8,50.5c1.5,1.3,1.8,3.4,0.8,5.1c-48,77.6-101.2,50.4-136.9,96.3c-47.3,60.9,37.8,112.5,81.2,68.7
		c0,0,20.8,33.8-21.4,50.3L56.1,617.7z"/>
	<path id="XMLID_61_" class="st4" d="M136.7,483.8c12.9-18.1,40.6-56.5,62.5-81.6c1.3-1.5,3.7-0.1,3,1.8
		c-5.6,14.9-21.8,48.1-62.9,82.2C137.7,487.6,135.5,485.5,136.7,483.8z"/>
	<path id="XMLID_62_" class="st5" d="M165.9,604.7l99.3-1.8c42.3-16.5,21.4-50.3,21.4-50.3c-43.4,43.7-128.5-7.9-81.2-68.7
		c35.7-45.9,88.9-18.7,136.9-96.3c1-1.6,0.7-3.8-0.8-5.1l-11.8-10.1c-34.7,69.8-103.4,50.6-142.9,102
		C144.3,529.8,165.9,604.7,165.9,604.7z"/>
	<path id="XMLID_82_" class="st6" d="M976.2,595.2c-2.5-0.5-5-0.6-7.5-0.3l-70.7,8.3l40.7,92.7l51.7-60.8c2.7-3.1,4.6-7,5.4-11.3
		C998.2,610.5,989.5,597.7,976.2,595.2z M971.6,629.2c-5.5,0-9.9-4.4-9.9-9.9c0-5.5,4.4-9.9,9.9-9.9c5.5,0,9.9,4.4,9.9,9.9
		C981.5,624.7,977.1,629.2,971.6,629.2z"/>
	<path id="XMLID_14_" class="st7" d="M902,602.8c57.7,1.9,53,59.7,88.4,32.3l-26.8,31.6L902,602.8z"/>
	<g id="XMLID_18_" class="st8">
		<path id="XMLID_24_" class="st9" d="M989.3,609.4c0,0-0.1-0.2-0.4-0.7c-0.3-0.5-0.7-1.1-1.3-1.9c-1.2-1.5-3.2-3.4-6-5
			c-1.4-0.8-3.1-1.4-4.9-1.8c-1.8-0.4-3.7-0.8-5.7-0.9c-1-0.1-2-0.1-3,0c-1.1,0.1-2.1,0.3-3.2,0.4c-2.2,0.3-4.4,0.5-6.7,0.7
			c-4.5,0.4-9,0.9-13.2,1.3c-4.2,0.3-8.1,0.6-11.5,0.8c-1.7,0.1-3.2,0.2-4.6,0.2c-1.4,0.1-2.6,0.1-3.6,0.2c-2,0.1-3.1,0.1-3.1,0.1
			l0-0.2c0,0,17.9-2,35.8-4c2.2-0.2,4.5-0.5,6.7-0.7c1.1-0.1,2.2-0.3,3.3-0.3c1.1,0,2.2,0,3.2,0.1c4.2,0.3,8.1,1.5,11,3.3
			c2.9,1.7,4.8,4,5.9,5.6c0.5,0.8,0.9,1.5,1.1,2c0.2,0.5,0.3,0.7,0.3,0.7L989.3,609.4z"/>
	</g>
	<g id="shape">
		<path id="XMLID_17_" class="st10" d="M865,814.3H113.7c-60.2,0-109-48.8-109-109v0c0-60.2,48.8-109,109-109H865
			c60.2,0,109,48.8,109,109v0C974,765.5,925.2,814.3,865,814.3z"/>
		<g id="XMLID_10_" class="st11">
			<path id="XMLID_11_" class="st12" d="M865,613.2c50.8,0,92.1,41.3,92.1,92.1c0,50.8-41.3,92.1-92.1,92.1H113.7
				c-50.8,0-92.1-41.3-92.1-92.1c0-50.8,41.3-92.1,92.1-92.1H865 M865,596.3H113.7c-60.2,0-109,48.8-109,109v0
				c0,60.2,48.8,109,109,109H865c60.2,0,109-48.8,109-109v0C974,645.1,925.2,596.3,865,596.3L865,596.3z"/>
		</g>
	</g>
	<g id="shadow" class="st2">
		<path id="XMLID_9_" class="st13" d="M865,797.4H113.7c-57.3,0-104.3-44.3-108.6-100.5c-0.2,2.8-0.4,5.6-0.4,8.5v0
			c0,60.2,48.8,109,109,109H865c60.2,0,109-48.8,109-109v0c0-2.8-0.1-5.7-0.4-8.5C969.3,753.1,922.3,797.4,865,797.4z"/>
	</g>
	<g id="symbol">
		<path id="XMLID_5_" class="st9" d="M135.5,710.2v-15.9c0-0.8-0.4-1.5-1.1-1.9l-49.3-27c-1.4-0.8-3.2,0.3-3.2,1.9l0.1,16.9
			c0,0.8,0.4,1.5,1.1,1.9l29.3,16.1l-29.3,16c-0.7,0.4-1.1,1.1-1.1,1.9v17c0,1.6,1.8,2.7,3.2,1.9l49.2-26.9
			C135.1,711.7,135.5,711,135.5,710.2z"/>
		<path id="XMLID_8_" class="st9" d="M189.4,745.9c-0.5-0.5-1.2-0.7-1.9-0.7h-57.1c-1.8,0-2.7,0.9-2.7,2.7v11.2c0,2,0.9,3,2.7,3
			h57.1c0.4,0,0.8-0.1,1.1-0.3c0.3-0.2,0.6-0.5,0.9-0.7c0.2-0.3,0.4-0.6,0.6-1c0.1-0.4,0.2-0.7,0.2-1v-11.2
			C190.2,747,190,746.3,189.4,745.9z"/>
	</g>
	<g id="highlight" class="st11">
		<path id="XMLID_16_" class="st9" d="M16.4,709.1c0-50.5,40.9-91.4,91.4-91.4h774.8c17.4,0,33.7,4.9,47.6,13.3
			c-16.8-14.8-38.8-23.8-63-23.8H111.5c-52.6,0-95.2,42.6-95.2,95.2v5.7c0,1.1,0,2.2,0.1,3.3V709.1z"/>
	</g>
	<g id="texture" class="st14">
		<path id="XMLID_52_" class="st13" d="M974,705.3c0-17.6-4.2-34.2-11.6-48.9C769.1,511,252.2,905.6,7.8,730.9
			c11.5,47.8,54.6,83.4,105.9,83.4H865C925.2,814.3,974,765.5,974,705.3L974,705.3z"/>
	</g>
	<g id="XMLID_65_">
		<path id="XMLID_26_" class="st9" d="M262.1,725.4c0.8,0,1.5,0.3,2.1,0.9c0.6,0.6,0.9,1.3,0.9,2.1v12c0,0.8-0.3,1.5-0.9,2.1
			c-0.6,0.6-1.3,0.9-2.1,0.9h-53.5c-0.8,0-1.5-0.3-2.1-0.9c-0.6-0.6-0.9-1.3-0.9-2.1v-72.9c0-0.8,0.3-1.5,0.9-2.1
			c0.6-0.6,1.3-0.9,2.1-0.9h52.6c0.8,0,1.5,0.3,2.1,0.9c0.6,0.6,0.9,1.3,0.9,2.1v12c0,0.8-0.3,1.5-0.9,2.1c-0.6,0.6-1.3,0.9-2.1,0.9
			h-34.8v12.2h32.3c0.8,0,1.5,0.3,2.1,0.9c0.6,0.6,0.9,1.3,0.9,2.1v12c0,0.8-0.3,1.5-0.9,2.1c-0.6,0.6-1.3,0.9-2.1,0.9h-32.3v12.6
			H262.1z"/>
		<path id="XMLID_28_" class="st9" d="M310.2,720.5l-14.5,20.3c-0.5,0.7-1,1.3-1.5,1.8c-0.6,0.5-1.6,0.8-3.1,0.8H274
			c-0.7,0-1.3-0.2-1.7-0.7c-0.5-0.5-0.7-1.1-0.7-1.7c0-0.1,0-0.3,0.1-0.5c0-0.2,0.1-0.4,0.3-0.7l26.1-36.5l-25-35.1
			c-0.2-0.5-0.3-0.9-0.3-1.2c0-0.7,0.2-1.3,0.7-1.7c0.5-0.5,1.1-0.7,1.7-0.7h17c1.5,0,2.6,0.4,3.3,1.1c0.7,0.8,1.2,1.3,1.5,1.7
			l13.7,19.1l13.2-19.1c0.3-0.4,0.8-0.9,1.5-1.7c0.7-0.8,1.8-1.1,3.3-1.1h17.3c0.7,0,1.3,0.2,1.7,0.7c0.5,0.5,0.7,1.1,0.7,1.7
			c0,0.4-0.1,0.8-0.3,1.2l-25.1,35.6l25.9,36c0.2,0.3,0.2,0.5,0.3,0.7c0,0.2,0.1,0.4,0.1,0.5c0,0.7-0.2,1.3-0.7,1.7
			c-0.5,0.5-1.1,0.7-1.7,0.7h-17.2c-1.5,0-2.5-0.3-3.1-0.8c-0.6-0.5-1.1-1.1-1.5-1.8L310.2,720.5z"/>
		<path id="XMLID_34_" class="st9" d="M416.5,664.4c0.8,0,1.5,0.3,2.1,0.9c0.6,0.6,0.9,1.3,0.9,2.1v12c0,0.8-0.3,1.5-0.9,2.1
			c-0.6,0.6-1.3,0.9-2.1,0.9h-19.9v57.9c0,0.8-0.3,1.5-0.9,2.1c-0.6,0.6-1.3,0.9-2.1,0.9h-14.8c-0.8,0-1.5-0.3-2.1-0.9
			c-0.6-0.6-0.9-1.3-0.9-2.1v-57.9h-19.9c-0.8,0-1.5-0.3-2.1-0.9c-0.6-0.6-0.9-1.3-0.9-2.1v-12c0-0.8,0.3-1.5,0.9-2.1
			c0.6-0.6,1.3-0.9,2.1-0.9H416.5z"/>
		<path id="XMLID_39_" class="st9" d="M463.3,664.4c5,0,9.4,0.5,13.3,1.6c3.9,1.1,7.2,2.6,10,4.7c2.7,2.1,4.9,4.8,6.3,8.1
			c1.5,3.3,2.2,7.1,2.2,11.5c0,5.6-1.2,10.3-3.5,14.1c-2.3,3.7-5.6,6.6-9.9,8.5l14,26.9c0.2,0.5,0.3,0.9,0.3,1.2
			c0,0.7-0.2,1.3-0.7,1.7c-0.5,0.5-1.1,0.7-1.7,0.7h-15.4c-1.5,0-2.6-0.3-3.2-1c-0.6-0.7-1.1-1.4-1.5-2l-12.5-24.2h-10.4v24.2
			c0,0.8-0.3,1.5-0.9,2.1c-0.6,0.6-1.3,0.9-2.1,0.9h-14.8c-0.8,0-1.5-0.3-2.1-0.9c-0.6-0.6-0.9-1.3-0.9-2.1v-72.9
			c0-0.8,0.3-1.5,0.9-2.1c0.6-0.6,1.3-0.9,2.1-0.9H463.3z M450.6,698.6h12.8c3.2,0,5.8-0.6,7.8-1.8c2.1-1.2,3.1-3.4,3.1-6.5
			c0-3.2-1-5.3-3.1-6.5c-2.1-1.2-4.7-1.8-7.8-1.8h-12.8V698.6z"/>
		<path id="XMLID_42_" class="st9" d="M549.3,664.4c1.5,0,2.7,0.4,3.4,1.2c0.8,0.8,1.3,1.7,1.6,2.5l24.6,71.1
			c0.3,0.8,0.5,1.3,0.5,1.7c0,0.7-0.2,1.3-0.7,1.7c-0.5,0.5-1.1,0.7-1.7,0.7h-14.2c-1.5,0-2.6-0.3-3.2-1c-0.6-0.6-1-1.3-1.2-1.9
			l-3.2-9.4h-30l-3.2,9.4c-0.2,0.6-0.5,1.2-1.2,1.9c-0.6,0.6-1.7,1-3.2,1h-14.2c-0.7,0-1.3-0.2-1.7-0.7c-0.5-0.5-0.7-1.1-0.7-1.7
			c0-0.4,0.1-0.9,0.5-1.7l24.6-71.1c0.3-0.8,0.8-1.7,1.6-2.5c0.8-0.8,1.9-1.2,3.4-1.2H549.3z M531.1,713.8h18.3l-9.1-27.1
			L531.1,713.8z"/>
		<path id="XMLID_45_" class="st9" d="M638.8,664.4c0.8,0,1.5,0.3,2.1,0.9c0.6,0.6,0.9,1.3,0.9,2.1v12c0,0.8-0.3,1.5-0.9,2.1
			c-0.6,0.6-1.3,0.9-2.1,0.9h-19.9v57.9c0,0.8-0.3,1.5-0.9,2.1c-0.6,0.6-1.3,0.9-2.1,0.9h-14.8c-0.8,0-1.5-0.3-2.1-0.9
			c-0.6-0.6-0.9-1.3-0.9-2.1v-57.9h-19.9c-0.8,0-1.5-0.3-2.1-0.9c-0.6-0.6-0.9-1.3-0.9-2.1v-12c0-0.8,0.3-1.5,0.9-2.1
			c0.6-0.6,1.3-0.9,2.1-0.9H638.8z"/>
		<path id="XMLID_47_" class="st9" d="M708.5,725.4c0.8,0,1.5,0.3,2.1,0.9c0.6,0.6,0.9,1.3,0.9,2.1v12c0,0.8-0.3,1.5-0.9,2.1
			c-0.6,0.6-1.3,0.9-2.1,0.9H655c-0.8,0-1.5-0.3-2.1-0.9c-0.6-0.6-0.9-1.3-0.9-2.1v-72.9c0-0.8,0.3-1.5,0.9-2.1
			c0.6-0.6,1.3-0.9,2.1-0.9h52.6c0.8,0,1.5,0.3,2.1,0.9c0.6,0.6,0.9,1.3,0.9,2.1v12c0,0.8-0.3,1.5-0.9,2.1c-0.6,0.6-1.3,0.9-2.1,0.9
			h-34.8v12.2h32.3c0.8,0,1.5,0.3,2.1,0.9c0.6,0.6,0.9,1.3,0.9,2.1v12c0,0.8-0.3,1.5-0.9,2.1c-0.6,0.6-1.3,0.9-2.1,0.9h-32.3v12.6
			H708.5z"/>
		<path id="XMLID_49_" class="st9" d="M758.2,664.4c5,0,9.4,0.5,13.3,1.6c3.9,1.1,7.2,2.6,10,4.7c2.7,2.1,4.9,4.8,6.3,8.1
			c1.5,3.3,2.2,7.1,2.2,11.5c0,5.6-1.2,10.3-3.5,14.1c-2.3,3.7-5.6,6.6-9.9,8.5l14,26.9c0.2,0.5,0.3,0.9,0.3,1.2
			c0,0.7-0.2,1.3-0.7,1.7c-0.5,0.5-1.1,0.7-1.7,0.7h-15.4c-1.5,0-2.6-0.3-3.2-1c-0.6-0.7-1.1-1.4-1.5-2l-12.5-24.2h-10.4v24.2
			c0,0.8-0.3,1.5-0.9,2.1c-0.6,0.6-1.3,0.9-2.1,0.9h-14.8c-0.8,0-1.5-0.3-2.1-0.9c-0.6-0.6-0.9-1.3-0.9-2.1v-72.9
			c0-0.8,0.3-1.5,0.9-2.1c0.6-0.6,1.3-0.9,2.1-0.9H758.2z M745.4,698.6h12.8c3.2,0,5.8-0.6,7.8-1.8c2.1-1.2,3.1-3.4,3.1-6.5
			c0-3.2-1-5.3-3.1-6.5c-2.1-1.2-4.7-1.8-7.8-1.8h-12.8V698.6z"/>
		<path id="XMLID_59_" class="st9" d="M836,723.5c-0.6-0.6-1.1-1.3-1.5-1.9L823.9,703v37.4c0,0.8-0.3,1.5-0.9,2.1
			c-0.6,0.6-1.3,0.9-2.1,0.9h-14.8c-0.8,0-1.5-0.3-2.1-0.9c-0.6-0.6-0.9-1.3-0.9-2.1v-72.9c0-0.8,0.3-1.5,0.9-2.1
			c0.6-0.6,1.3-0.9,2.1-0.9h13.1c1.5,0,2.6,0.4,3.4,1.2c0.8,0.8,1.2,1.4,1.5,1.8l18.3,31.3l18.3-31.3c0.2-0.4,0.7-1,1.5-1.8
			c0.8-0.8,1.9-1.2,3.4-1.2h13.1c0.8,0,1.5,0.3,2.1,0.9c0.6,0.6,0.9,1.3,0.9,2.1v72.9c0,0.8-0.3,1.5-0.9,2.1
			c-0.6,0.6-1.3,0.9-2.1,0.9h-14.8c-0.8,0-1.5-0.3-2.1-0.9c-0.6-0.6-0.9-1.3-0.9-2.1V703l-10.6,18.6c-0.4,0.6-0.9,1.2-1.5,1.9
			c-0.6,0.6-1.5,1-2.7,1h-7.2C837.6,724.5,836.7,724.2,836,723.5z"/>
	</g>
</g>
</svg>
