<?xml version="1.0" encoding="utf-8"?>
<!-- Generator: Adobe Illustrator 19.0.0, SVG Export Plug-In . SVG Version: 6.00 Build 0)  -->
<svg version="1.1" id="Layer_1" xmlns="http://www.w3.org/2000/svg" xmlns:xlink="http://www.w3.org/1999/xlink" x="0px" y="0px"
	 viewBox="0 0 1000 1000" style="enable-background:new 0 0 1000 1000;" xml:space="preserve">
<style type="text/css">
	.st0{fill:#939598;}
	.st1{opacity:0.1;fill:#010101;}
	.st2{opacity:0.2;}
	.st3{fill:#FFFFFF;}
	.st4{fill:#3DB54A;}
	.st5{opacity:0.5;}
	.st6{fill:#019547;}
	.st7{opacity:0.15;}
	.st8{fill:#010101;}
	.st9{opacity:5.000000e-002;}
</style>
<g id="XMLID_1_">
	<path id="XMLID_153_" class="st0" d="M911.6,53.9c-10.4-2-20.7-2.3-30.7-1.1l-291,34.3l167.3,381.2l212.5-250.2
		c10.9-12.8,18.7-28.6,22.1-46.3C1002.2,117.1,966.3,64.3,911.6,53.9z M892.7,193.6c-22.5,0-40.8-18.2-40.8-40.8
		c0-22.5,18.2-40.8,40.8-40.8c22.5,0,40.8,18.2,40.8,40.8C933.5,175.4,915.2,193.6,892.7,193.6z"/>
	<path id="XMLID_168_" class="st1" d="M606.2,85.1c237.5,8,217.8,245.6,363.5,132.9L859.4,347.9L606.2,85.1z"/>
	<g id="XMLID_165_" class="st2">
		<path id="XMLID_55_" class="st3" d="M965.2,112.3c0,0-0.6-1-1.7-2.9c-0.6-0.9-1.3-2.1-2.2-3.3c-0.9-1.3-1.8-2.7-3.1-4.3
			c-2.4-3.1-5.7-6.7-9.8-10.2c-4.1-3.5-9.1-7.1-15-10.1c-5.9-3-12.6-5.6-19.9-7.4c-7.3-1.8-15.3-3.1-23.6-3.5
			c-4.1-0.2-8.4-0.2-12.5,0c-0.5,0-1.1,0.1-1.3,0.1l-1.7,0.2l-3.4,0.4c-2.2,0.3-4.5,0.5-6.8,0.8c-4.5,0.5-9.1,1.1-13.7,1.6
			c-4.6,0.5-9.2,0.9-13.8,1.4c-9.2,0.9-18.4,2-27.5,2.8c-9.1,0.8-18,1.6-26.7,2.4c-8.7,0.7-17,1.3-25,1.9c-7.9,0.6-15.5,1-22.4,1.5
			c-6.9,0.5-13.3,0.7-19,1c-5.6,0.3-10.6,0.4-14.6,0.6c-4.1,0.2-7.3,0.2-9.4,0.2c-2.2,0-3.3,0.1-3.3,0.1l-0.1-0.7
			c0,0,73.6-8.2,147.2-16.5c9.2-1,18.4-2,27.5-3c4.5-0.5,9-1,13.5-1.4c4.5-0.2,8.9-0.1,13.3,0.3c17.4,1.3,33.3,6.2,45.3,13.4
			c6,3.6,11,7.6,15,11.7c4,4.1,7,8,9.2,11.5c1.2,1.7,2,3.3,2.8,4.7c0.8,1.4,1.4,2.6,1.8,3.6c0.9,2,1.4,3,1.4,3L965.2,112.3z"/>
	</g>
	<g id="shape_1_">
		<path id="XMLID_84_" class="st4" d="M454.2,955L454.2,955C206.6,955,6,754.4,6,506.8v0C6,259.3,206.6,58.7,454.2,58.7l0,0
			c247.5,0,448.2,200.6,448.2,448.2v0C902.3,754.4,701.7,955,454.2,955z"/>
		<g id="XMLID_35_" class="st5">
			<path id="XMLID_56_" class="st6" d="M454.2,128.2c101.1,0,196.2,39.4,267.7,110.9c71.5,71.5,110.9,166.6,110.9,267.7
				c0,101.1-39.4,196.2-110.9,267.7c-71.5,71.5-166.6,110.9-267.7,110.9s-196.2-39.4-267.7-110.9S75.5,608,75.5,506.8
				c0-101.1,39.4-196.2,110.9-267.7S353,128.2,454.2,128.2 M454.2,58.7C206.6,58.7,6,259.3,6,506.8v0C6,754.4,206.6,955,454.2,955
				s448.2-200.6,448.2-448.2v0C902.3,259.3,701.7,58.7,454.2,58.7L454.2,58.7z"/>
		</g>
	</g>
	<g id="shadow_1_" class="st7">
		<path id="XMLID_54_" class="st8" d="M454.2,885.5L454.2,885.5c-235.8,0-428.9-182.1-446.7-413.4C6.6,483.6,6,495.1,6,506.8v0
			C6,754.4,206.6,955,454.2,955h0c247.5,0,448.2-200.6,448.2-448.2v0c0-11.7-0.6-23.3-1.5-34.8C883.1,703.3,690,885.5,454.2,885.5z"
			/>
	</g>
	<g id="texture_1_" class="st9">
		<path id="XMLID_87_" class="st8" d="M902.3,506.8c0-72.3-17.1-140.5-47.5-201C412,27.5,520.9,882.7,15.7,600
			c42.9,202.8,222.9,355,438.4,355C701.7,955,902.3,754.4,902.3,506.8L902.3,506.8z"/>
	</g>
	<g id="symbol_1_">
		<path id="XMLID_113_" class="st3" d="M505.3,506.1v-65.2c0-3.3-1.8-6.2-4.6-7.8l-202.9-111c-6-3.3-13.2,1.1-13.2,7.9l0.4,69.3
			c0,3.2,1.8,6.2,4.6,7.7l120.4,66.2l-120.4,66c-2.8,1.6-4.6,4.6-4.6,7.8v69.9c0,6.8,7.2,11.1,13.2,7.8l202.5-110.8
			C503.5,512.3,505.3,509.4,505.3,506.1z"/>
		<path id="XMLID_112_" class="st3" d="M727,652.8c-2.2-2-4.8-2.9-7.9-2.9h-235c-7.5,0-11.2,3.7-11.2,11.2v46.1
			c0,8.2,3.7,12.2,11.2,12.2h235c1.7,0,3.2-0.4,4.6-1.3c1.4-0.8,2.5-1.9,3.6-3.1c1-1.2,1.8-2.5,2.3-3.9c0.5-1.4,0.8-2.8,0.8-4V661
			C730.3,657.5,729.2,654.7,727,652.8z"/>
	</g>
	<g id="highlight_1_" class="st5">
		<path id="XMLID_96_" class="st3" d="M68.2,522.4c0-207.6,151-390.6,412.9-390.6c110.1,0,229,64.6,301.8,164.5
			c-59.3-116.2-174-192.9-319.7-192.9h-3.5c-216.4,0-391.7,175.4-391.7,391.7v23.3c0,5.3,0.1,10.6,0.3,15.8V522.4z"/>
	</g>
</g>
</svg>
