<?xml version="1.0" encoding="utf-8"?>
<!-- Generator: Adobe Illustrator 19.0.0, SVG Export Plug-In . SVG Version: 6.00 Build 0)  -->
<svg version="1.1" id="Layer_1" xmlns="http://www.w3.org/2000/svg" xmlns:xlink="http://www.w3.org/1999/xlink" x="0px" y="0px"
	 viewBox="0 0 1000 1000" style="enable-background:new 0 0 1000 1000;" xml:space="preserve">
<style type="text/css">
	.st0{fill:#00FF55;}
</style>
<g id="XMLID_21_">
	<path id="XMLID_414_" class="st0" d="M966.8,616.3c-6.8,0-12.3,5.5-12.3,12.3c0,6.8,5.5,12.3,12.3,12.3c6.8,0,12.3-5.5,12.3-12.3
		C979.1,621.8,973.6,616.3,966.8,616.3z M966.8,635.9c-4,0-7.3-3.3-7.3-7.3s3.3-7.3,7.3-7.3s7.3,3.3,7.3,7.3
		S970.8,635.9,966.8,635.9z"/>
	<path id="XMLID_417_" class="st0" d="M971.8,602.3c-2.7-0.5-5.4-0.6-8.1-0.3l-65.5,7.7c-6.8-2.4-13.9-4.2-21.3-5.2
		c-8.1-11.3-82.8-115.4-179-251.7c-55.7-78.9-93.3-128.2-132.2-162.6c-35.7-34.1-72.1-55.6-125.9-74.2l-3.3,2.7
		c0.1,0.9,13.1,94.5,96.1,204.1c70.1,92.5,175.9,233.5,211.3,280.7H287.7c18.3-18.2,4.2-41.8,4-42.1l-3.9-0.5
		c-22.2,22.3-55.2,18.3-74.4,1.4c-15.4-13.5-24-37.9-2.1-66.1c14.6-18.7,32.6-24.9,51.6-31.4c26.3-9,56.2-19.2,83.9-64
		c1.6-2.6,1.1-6.2-1.3-8.2l-58.1-49.9c-2.2-1.9-5.4-2.1-7.9-0.5L208,389c-3.6,2.4-6.8,5.3-9.4,8.7L46.4,595.6
		c-4.7,6.1-4.2,14.5,1,20.1l7.6,8c-28.2,20-46.7,52.9-46.7,90c0,60.8,49.5,110.2,110.2,110.2h742.8c60.8,0,110.2-49.5,110.2-110.2
		c0-14.2-2.7-27.9-7.7-40.4l23.3-27.4c3-3.5,5-7.8,5.9-12.3C995.8,619.1,986.3,605.1,971.8,602.3z M536.5,319.7
		c-72.3-95.5-90.9-178.6-94.4-197.6c50.8,18.1,85.8,39,120.1,71.8c38.6,34.1,76,83.2,131.5,161.8
		c89.5,126.9,160.5,225.9,176.4,248.1c-0.3,0-0.6,0-0.9-0.1c-1-0.1-2-0.1-3-0.2c-1.6-0.1-3.2-0.1-4.8-0.1h0H750.1
		C717.1,559.5,608.1,414.3,536.5,319.7z M59.2,620.8l-8.1-8.6c-3.6-3.8-3.9-9.5-0.7-13.6l152.2-197.9c2.3-3,5-5.5,8.2-7.6l71.5-46.8
		c0.3-0.2,0.6-0.3,0.8-0.3c0.4,0,0.7,0.1,1,0.4l58.1,49.9c0.5,0.4,0.6,1.2,0.3,1.8c-26.8,43.3-54.5,52.8-81.2,61.9
		c-19.8,6.8-38.5,13.2-53.9,33.1c-24,30.9-14.3,57.9,2.7,72.9c20.2,17.8,54.6,22.5,78.8,0.7c3.1,6.7,8.5,23.9-8.9,36.6H118.6h0
		c-1.7,0-3.4,0.1-5.1,0.1c-0.5,0-0.9,0-1.3,0.1c-1.4,0.1-2.8,0.2-4.2,0.3c-0.3,0-0.5,0-0.8,0.1c-1.7,0.2-3.3,0.4-5,0.6
		c-0.3,0-0.6,0.1-0.9,0.2c-1.4,0.2-2.9,0.5-4.3,0.8c-0.3,0.1-0.5,0.1-0.8,0.2c-3.4,0.7-6.8,1.6-10.1,2.6c-0.1,0-0.2,0.1-0.3,0.1
		C76.4,611.3,67.5,615.5,59.2,620.8z M861.4,818.9H118.6c-58,0-105.2-47.2-105.2-105.2c0-45.3,28.8-84,69-98.8c0,0,0.1,0,0.1,0
		c3.2-1.2,6.5-2.2,9.8-3.1c0,0,0,0,0,0c1.5-0.4,3-0.7,4.6-1.1c0.3-0.1,0.6-0.1,1-0.2c1.4-0.3,2.8-0.5,4.3-0.8c0.2,0,0.4-0.1,0.6-0.1
		c1.6-0.2,3.2-0.4,4.8-0.6c0.4,0,0.7-0.1,1.1-0.1c1.3-0.1,2.5-0.2,3.8-0.3c0.4,0,0.9-0.1,1.3-0.1c1.6-0.1,3.2-0.1,4.8-0.1h162.2h468
		h112.6c1.5,0,2.9,0.1,4.4,0.1c0.7,0,1.3,0.1,2,0.1c0.6,0,1.1,0.1,1.7,0.1c1.8,0.1,3.5,0.3,5.3,0.5c7.9,1,15.4,2.9,22.7,5.5
		c0.1,0.1,0.3,0.1,0.4,0.2c25.4,9.4,46.2,28.4,58,52.5c0.1,0.2,0.2,0.4,0.3,0.7c0.5,1,0.9,2,1.3,3c0.3,0.7,0.6,1.3,0.9,2
		c5.2,12.5,8.1,26.2,8.1,40.5C966.6,771.7,919.4,818.9,861.4,818.9z M988.2,632.6c-0.7,3.7-2.4,7.1-4.8,10l-21.6,25.5
		c-0.2-0.5-0.5-1.1-0.8-1.6c-0.2-0.4-0.4-0.8-0.5-1.1c-0.6-1.3-1.3-2.6-2-3.8c-0.1-0.2-0.2-0.4-0.4-0.7c-0.8-1.4-1.6-2.9-2.5-4.3
		c0,0,0-0.1-0.1-0.1c-10.1-16.7-24.6-30.4-41.7-39.8c0,0,0,0,0,0c-1.5-0.8-3-1.6-4.6-2.4c-0.1,0-0.1-0.1-0.2-0.1
		c-0.4-0.2-0.8-0.4-1.3-0.6l56.5-6.7c2.2-0.3,4.4-0.2,6.6,0.2h0C982.7,609.5,990.4,620.9,988.2,632.6z"/>
	<path id="XMLID_423_" class="st0" d="M147.7,718.5v-15.7c0-1.7-0.9-3.3-2.4-4.1l-48.8-26.7c-1.5-0.8-3.2-0.8-4.6,0.1
		c-1.4,0.9-2.3,2.4-2.3,4l0.1,16.7c0,1.7,0.9,3.2,2.4,4l24.9,13.7l-24.9,13.7c-1.5,0.8-2.4,2.4-2.4,4.1v16.8c0,1.7,0.9,3.2,2.3,4
		c0.7,0.4,1.6,0.7,2.4,0.7c0.8,0,1.5-0.2,2.2-0.6l48.7-26.6C146.8,721.8,147.7,720.2,147.7,718.5z M142.7,718.3l-47.9,26.2v-16
		l28.7-15.8l0-4.4l-28.8-15.8l-0.1-15.8l48,26.3V718.3z"/>
	<path id="XMLID_426_" class="st0" d="M200.1,751.9c-1-0.9-2.2-1.3-3.6-1.3h-56.5c-3.2,0-5.2,2-5.2,5.2v11.1c0,3.4,2,5.4,5.2,5.4
		h56.5c0.9,0,1.7-0.2,2.4-0.7c0.5-0.3,1-0.8,1.4-1.2c0.4-0.5,0.8-1.1,1-1.7c0.2-0.6,0.3-1.2,0.3-1.8v-11.1
		C201.8,753.7,200.9,752.5,200.1,751.9L200.1,751.9z M196.7,766.9c0,0.1,0,0.1-0.1,0.2c-0.1,0.1-0.1,0.1-0.2,0.2h-56.4
		c-0.1,0-0.1,0-0.2,0c0-0.1,0-0.2,0-0.4v-11.1c0-0.1,0-0.1,0-0.2c0.1,0,0.1,0,0.2,0h56.5c0.1,0,0.1,0,0.2,0c0,0,0,0.1,0,0.2
		L196.7,766.9z"/>
	<path id="XMLID_429_" class="st0" d="M270.4,731.4h-33.2v-8.3H267c1.4,0,2.6-0.5,3.6-1.5c1-1,1.5-2.2,1.5-3.6v-11.8
		c0-1.4-0.5-2.6-1.5-3.6c-1-1-2.2-1.5-3.6-1.5h-29.8v-7.9h32.3c1.4,0,2.6-0.5,3.6-1.5c1-1,1.5-2.2,1.5-3.6v-11.8
		c0-1.4-0.5-2.6-1.5-3.6c-1-1-2.2-1.5-3.6-1.5h-52c-1.4,0-2.6,0.5-3.6,1.5c-1,1-1.5,2.2-1.5,3.6v72.1c0,1.4,0.5,2.6,1.5,3.6
		c1,1,2.2,1.5,3.6,1.5h52.9c1.4,0,2.6-0.5,3.6-1.5c1-1,1.5-2.2,1.5-3.6v-11.8c0-1.4-0.5-2.6-1.5-3.6
		C273,731.9,271.7,731.4,270.4,731.4z M271.3,748.4c0,0.2,0,0.4-0.3,0.6s-0.4,0.3-0.6,0.3h-52.9c-0.2,0-0.4,0-0.6-0.3
		c-0.2-0.2-0.3-0.4-0.3-0.6v-72.1c0-0.2,0-0.4,0.3-0.6c0.2-0.2,0.4-0.3,0.6-0.3h52c0.2,0,0.4,0,0.6,0.3c0.2,0.2,0.3,0.4,0.3,0.6
		v11.8c0,0.2,0,0.4-0.3,0.6c-0.2,0.2-0.4,0.3-0.6,0.3h-34.4l-2.1,2.1v12.1l2.1,2.1H267c0.2,0,0.4,0,0.6,0.3c0.2,0.2,0.3,0.4,0.3,0.6
		V718c0,0.2,0,0.4-0.3,0.6c-0.2,0.2-0.4,0.3-0.6,0.3h-31.9L233,721v12.5l2.1,2.1h35.3c0.2,0,0.4,0,0.6,0.3c0.2,0.2,0.3,0.4,0.3,0.6
		V748.4z"/>
	<path id="XMLID_432_" class="st0" d="M357.9,746.8L333,712.1l23.9-33.9l0.2-0.3c0.4-0.7,0.6-1.5,0.6-2.2c0-1.2-0.5-2.3-1.3-3.2
		c-0.9-0.9-2-1.3-3.2-1.3H336c-2.1,0-3.7,0.6-4.8,1.8c-0.7,0.8-1.2,1.4-1.6,1.9l-11.4,16.4l-11.8-16.5c-0.3-0.4-0.8-1-1.5-1.8
		c-1.1-1.2-2.7-1.8-4.8-1.8h-16.9c-1.2,0-2.3,0.5-3.2,1.3c-0.9,0.9-1.3,2-1.3,3.2c0,0.7,0.2,1.4,0.6,2.2l24,33.8l-24.9,34.8
		l-0.2,0.3c-0.2,0.5-0.4,0.9-0.5,1.2c-0.1,0.3-0.1,0.6-0.1,0.9c0,1.2,0.5,2.3,1.3,3.2c0.9,0.9,2,1.3,3.2,1.3h17
		c2.1,0,3.5-0.4,4.5-1.3c0.7-0.6,1.3-1.4,1.8-2.1l12.6-17.7l12.7,17.7c0.5,0.8,1.1,1.5,1.8,2.2c1,0.9,2.4,1.3,4.5,1.3h17
		c1.2,0,2.3-0.5,3.2-1.3c0.9-0.9,1.3-2,1.3-3.2c0-0.3,0-0.6-0.1-0.9C358.2,747.6,358.1,747.2,357.9,746.8z M354.1,749.2
		c-0.1,0.1-0.1,0.1-0.2,0.1h-17c-1.3,0-1.6-0.2-1.6-0.2c0,0,0,0,0,0c-0.4-0.4-0.8-0.9-1.2-1.5l-14.4-20.1l-3.4,0l-14.3,20.1
		c-0.4,0.5-0.8,1-1.2,1.4c0,0-0.4,0.2-1.7,0.2h-17c-0.1,0-0.1,0-0.3-0.1c-0.1-0.1-0.1-0.1-0.1-0.3c0,0,0-0.1,0-0.1l25.7-35.9l0-2.4
		l-24.6-34.6c0-0.1-0.1-0.2-0.1-0.2c0-0.1,0-0.1,0.1-0.2c0.1-0.1,0.2-0.1,0.3-0.1h16.9c0.8,0,1.4,0.2,1.7,0.4
		c0.6,0.7,1.1,1.2,1.3,1.5l13.5,18.9l3.4,0l13-18.7c0.3-0.4,0.7-0.9,1.4-1.6c0.2-0.3,0.9-0.4,1.7-0.4h17.1c0.1,0,0.1,0,0.2,0.1
		c0.1,0.1,0.1,0.2,0.1,0.2c0,0,0,0.1-0.1,0.2l-24.7,35l0,2.4l25.5,35.5c0,0.1,0,0.1,0.1,0.2C354.2,749,354.2,749.1,354.1,749.2z"/>
	<path id="XMLID_435_" class="st0" d="M423,671.1H363c-1.4,0-2.6,0.5-3.6,1.5c-1,1-1.5,2.2-1.5,3.6v11.8c0,1.4,0.5,2.6,1.5,3.6
		c1,1,2.2,1.5,3.6,1.5h17.6v55.2c0,1.4,0.5,2.6,1.5,3.6c1,1,2.2,1.5,3.6,1.5h14.6c1.4,0,2.6-0.5,3.6-1.5s1.5-2.2,1.5-3.6v-55.2H423
		c1.4,0,2.6-0.5,3.6-1.5c1-1,1.5-2.2,1.5-3.6v-11.8c0-1.4-0.5-2.6-1.5-3.6C425.6,671.7,424.3,671.1,423,671.1z M423.9,688.1
		c0,0.2,0,0.4-0.3,0.6c-0.2,0.2-0.4,0.3-0.6,0.3h-19.6l-2.1,2.1v57.3c0,0.2,0,0.4-0.3,0.6s-0.4,0.3-0.6,0.3h-14.6
		c-0.2,0-0.4,0-0.6-0.3c-0.2-0.2-0.3-0.4-0.3-0.6v-57.3l-2.1-2.1H363c-0.2,0-0.4,0-0.6-0.3c-0.2-0.2-0.3-0.4-0.3-0.6v-11.8
		c0-0.2,0-0.4,0.3-0.6c0.2-0.2,0.4-0.3,0.6-0.3H423c0.2,0,0.4,0,0.6,0.3c0.2,0.2,0.3,0.4,0.3,0.6V688.1z"/>
	<path id="XMLID_438_" class="st0" d="M478.1,690.5c-2.4-1.4-5.3-2.1-8.8-2.1h-12.6l-2.1,2.1v16.5l2.1,2.1h12.6
		c3.5,0,6.5-0.7,8.8-2.1c1.9-1.1,4.1-3.4,4.1-8.3S480,691.6,478.1,690.5z M476,703.5c-1.7,1-4,1.5-6.7,1.5h-10.5v-12.3h10.5
		c2.7,0,5,0.5,6.7,1.5c0.9,0.5,2,1.5,2,4.7C478,702.3,476.5,703.2,476,703.5z"/>
	<path id="XMLID_441_" class="st0" d="M490.3,722c3.7-2,6.6-4.8,8.8-8.2c2.5-4,3.8-9.1,3.8-15c0-4.6-0.8-8.7-2.4-12.2
		c-1.6-3.5-3.9-6.5-6.9-8.8c-2.9-2.2-6.5-3.9-10.6-5c-4-1.1-8.6-1.6-13.7-1.6H439c-1.4,0-2.6,0.5-3.6,1.5c-1,1-1.5,2.2-1.5,3.6v72.1
		c0,1.4,0.5,2.6,1.5,3.6c1,1,2.2,1.5,3.6,1.5h14.6c1.4,0,2.6-0.5,3.6-1.5c1-1,1.5-2.2,1.5-3.6v-21.8h6.9l11.8,22.8
		c0.5,0.8,1.1,1.6,1.8,2.4c1,1.1,2.6,1.7,4.7,1.7h15.2c1.2,0,2.3-0.5,3.2-1.3c0.9-0.9,1.3-2,1.3-3.2c0-0.7-0.2-1.4-0.6-2.2
		L490.3,722z M499.4,749.2c-0.1,0.1-0.1,0.1-0.2,0.1H484c-1.3,0-1.6-0.3-1.7-0.3c-0.5-0.5-0.9-1.1-1.2-1.5l-12.4-23.9l-1.9-1.1
		h-10.3l-2.1,2.1v23.9c0,0.2,0,0.4-0.3,0.6c-0.2,0.2-0.4,0.3-0.6,0.3H439c-0.3,0-0.4-0.1-0.6-0.3c-0.2-0.2-0.3-0.4-0.3-0.6v-72.1
		c0-0.2,0-0.4,0.3-0.6c0.2-0.2,0.4-0.3,0.6-0.3h30.2c4.7,0,9,0.5,12.6,1.5c3.6,1,6.7,2.4,9.1,4.3c2.4,1.9,4.3,4.3,5.6,7.2
		c1.3,3,2,6.5,2,10.5c0,5.2-1.1,9.5-3.1,12.8c-2.1,3.3-5.1,5.9-8.9,7.6l-1,2.9l13.8,26.5c0.1,0.2,0.1,0.3,0.1,0.3
		C499.6,749,499.6,749.1,499.4,749.2z"/>
	<path id="XMLID_444_" class="st0" d="M561.3,676.2c-0.4-1.1-1.1-2.2-2.1-3.2c-1.2-1.2-2.8-1.9-4.9-1.9h-18.1
		c-2.1,0-3.7,0.6-4.9,1.9c-1,1-1.7,2.1-2.1,3.2L505,746.5c-0.4,1-0.6,1.8-0.6,2.5c0,1.2,0.5,2.3,1.3,3.2c0.9,0.9,2,1.3,3.2,1.3H523
		c2.1,0,3.6-0.5,4.7-1.6c0.9-0.9,1.5-1.8,1.7-2.7l2.6-7.8h26.7l2.6,7.7c0.2,1,0.8,1.9,1.7,2.8c1,1,2.6,1.6,4.7,1.6h14.1
		c1.2,0,2.3-0.5,3.2-1.3c0.9-0.9,1.3-2,1.3-3.2c0-0.7-0.2-1.4-0.6-2.4L561.3,676.2z M581.9,749.2c-0.1,0.1-0.1,0.1-0.2,0.1h-14.1
		c-1.1,0-1.6-0.2-1.7-0.3c-0.5-0.5-0.6-0.8-0.7-1l-3.1-9.3l-2-1.4h-29.7l-2,1.4l-3.2,9.4c0,0.1-0.1,0.4-0.6,0.9
		c-0.1,0.1-0.6,0.3-1.7,0.3h-14.1c-0.1,0-0.1,0-0.3-0.1c-0.1-0.1-0.1-0.1-0.1-0.2c0,0,0-0.3,0.3-1l24.3-70.3
		c0.2-0.5,0.6-1.1,1.2-1.7c0.1-0.1,0.6-0.6,1.9-0.6h18.1c1.3,0,1.8,0.4,1.9,0.6c0.6,0.6,1,1.2,1.2,1.7l24.4,70.4
		c0.3,0.6,0.3,0.9,0.3,0.9C582.1,749,582,749.1,581.9,749.2z"/>
	<path id="XMLID_447_" class="st0" d="M543.3,694.6l-9,26.8l2,2.8h18.1l2-2.8l-9-26.8H543.3z M539.2,719.9l6.1-18.2l6.1,18.2H539.2z
		"/>
	<path id="XMLID_450_" class="st0" d="M642.7,671.1h-59.9c-1.4,0-2.6,0.5-3.6,1.5c-1,1-1.5,2.2-1.5,3.6v11.8c0,1.4,0.5,2.6,1.5,3.6
		c1,1,2.2,1.5,3.6,1.5h17.6v55.2c0,1.4,0.5,2.6,1.5,3.6c1,1,2.2,1.5,3.6,1.5h14.6c1.4,0,2.6-0.5,3.6-1.5c1-1,1.5-2.2,1.5-3.6v-55.2
		h17.6c1.4,0,2.6-0.5,3.6-1.5c1-1,1.5-2.2,1.5-3.6v-11.8c0-1.4-0.5-2.6-1.5-3.6C645.4,671.7,644.1,671.1,642.7,671.1z M643.7,688.1
		c0,0.2,0,0.4-0.3,0.6c-0.2,0.2-0.4,0.3-0.6,0.3h-19.6l-2.1,2.1v57.3c0,0.2,0,0.4-0.3,0.6c-0.2,0.2-0.4,0.3-0.6,0.3h-14.6
		c-0.2,0-0.4,0-0.6-0.3c-0.2-0.2-0.3-0.4-0.3-0.6v-57.3l-2.1-2.1h-19.6c-0.3,0-0.4-0.1-0.6-0.3c-0.2-0.2-0.3-0.4-0.3-0.6v-11.8
		c0-0.2,0-0.4,0.3-0.6c0.2-0.2,0.4-0.3,0.6-0.3h59.9c0.2,0,0.4,0,0.6,0.3c0.2,0.2,0.3,0.4,0.3,0.6V688.1z"/>
	<path id="XMLID_453_" class="st0" d="M711.7,731.4h-33.2v-8.3h29.8c1.4,0,2.6-0.5,3.6-1.5c1-1,1.5-2.2,1.5-3.6v-11.8
		c0-1.4-0.5-2.6-1.5-3.6c-1-1-2.2-1.5-3.6-1.5h-29.8v-7.9h32.3c1.4,0,2.6-0.5,3.6-1.5c1-1,1.5-2.2,1.5-3.6v-11.8
		c0-1.4-0.5-2.6-1.5-3.6c-1-1-2.2-1.5-3.6-1.5h-52c-1.4,0-2.6,0.5-3.6,1.5c-1,1-1.5,2.2-1.5,3.6v72.1c0,1.4,0.5,2.6,1.5,3.6
		s2.2,1.5,3.6,1.5h52.9c1.4,0,2.6-0.5,3.6-1.5c1-1,1.5-2.2,1.5-3.6v-11.8c0-1.4-0.5-2.6-1.5-3.6
		C714.3,731.9,713.1,731.4,711.7,731.4z M712.6,748.4c0,0.2,0,0.4-0.3,0.6c-0.2,0.2-0.4,0.3-0.6,0.3h-52.9c-0.2,0-0.4,0-0.6-0.3
		c-0.2-0.2-0.3-0.4-0.3-0.6v-72.1c0-0.2,0-0.4,0.3-0.6c0.2-0.2,0.4-0.3,0.6-0.3h52c0.2,0,0.4,0,0.6,0.3c0.2,0.2,0.3,0.4,0.3,0.6
		v11.8c0,0.2,0,0.4-0.3,0.6c-0.2,0.2-0.4,0.3-0.6,0.3h-34.4l-2.1,2.1v12.1l2.1,2.1h31.9c0.2,0,0.4,0,0.6,0.3
		c0.2,0.2,0.3,0.4,0.3,0.6V718c0,0.2,0,0.4-0.3,0.6c-0.2,0.2-0.4,0.3-0.6,0.3h-31.9l-2.1,2.1v12.5l2.1,2.1h35.3c0.2,0,0.4,0,0.6,0.3
		c0.2,0.2,0.3,0.4,0.3,0.6V748.4z"/>
	<path id="XMLID_456_" class="st0" d="M781.9,722c3.7-2,6.6-4.8,8.8-8.2c2.5-4,3.8-9.1,3.8-15c0-4.6-0.8-8.7-2.4-12.2
		c-1.6-3.5-3.9-6.5-6.9-8.8c-2.9-2.2-6.5-3.9-10.6-5c-4-1.1-8.6-1.6-13.7-1.6h-30.2c-1.4,0-2.6,0.5-3.6,1.5c-1,1-1.5,2.2-1.5,3.6
		v72.1c0,1.4,0.5,2.6,1.5,3.6s2.2,1.5,3.6,1.5h14.6c1.4,0,2.6-0.5,3.6-1.5c1-1,1.5-2.2,1.5-3.6v-21.8h6.9l11.8,22.8
		c0.5,0.8,1.1,1.6,1.8,2.4c1,1.1,2.6,1.7,4.7,1.7h15.2c1.2,0,2.3-0.5,3.2-1.3c0.9-0.9,1.3-2,1.3-3.2c0-0.7-0.2-1.4-0.6-2.2
		L781.9,722z M791,749.2c-0.1,0.1-0.1,0.1-0.2,0.1h-15.2c-1.3,0-1.6-0.3-1.7-0.3c-0.5-0.5-0.9-1.1-1.2-1.5l-12.4-23.9l-1.9-1.1
		h-10.3l-2.1,2.1v23.9c0,0.2,0,0.4-0.3,0.6c-0.2,0.2-0.4,0.3-0.6,0.3h-14.6c-0.2,0-0.4,0-0.6-0.3c-0.2-0.2-0.3-0.4-0.3-0.6v-72.1
		c0-0.2,0-0.4,0.3-0.6c0.2-0.2,0.4-0.3,0.6-0.3h30.2c4.7,0,9,0.5,12.6,1.5c3.6,1,6.7,2.4,9.1,4.3c2.4,1.9,4.3,4.3,5.6,7.2
		c1.3,2.9,2,6.5,2,10.5c0,5.2-1.1,9.5-3.1,12.8c-2.1,3.3-5.1,5.9-8.9,7.6l-1,2.9l13.8,26.5c0.1,0.2,0.1,0.3,0.1,0.3
		C791.1,749,791.1,749.1,791,749.2z"/>
	<path id="XMLID_459_" class="st0" d="M769.6,690.5c-2.4-1.4-5.3-2.1-8.8-2.1h-12.6l-2.1,2.1v16.5l2.1,2.1h12.6
		c3.5,0,6.5-0.7,8.8-2.1c1.9-1.1,4.1-3.4,4.1-8.3C773.7,693.9,771.5,691.6,769.6,690.5z M767.5,703.5c-1.7,1-4,1.5-6.7,1.5h-10.5
		v-12.3h10.5c2.7,0,5,0.5,6.7,1.5c0.9,0.5,2,1.5,2,4.7S768.4,703,767.5,703.5z"/>
	<path id="XMLID_462_" class="st0" d="M879.8,671.1h-12.9c-2.1,0-3.7,0.6-4.9,1.9c-1.1,1.2-1.5,1.8-1.7,2.1L844,703l-16.3-27.9
		c-0.2-0.3-0.6-0.9-1.7-2.1c-1.2-1.3-2.8-1.9-4.9-1.9h-12.9c-1.4,0-2.6,0.5-3.6,1.5c-1,1-1.5,2.2-1.5,3.6v72.1
		c0,1.4,0.5,2.6,1.5,3.6s2.2,1.5,3.6,1.5h14.6c1.4,0,2.6-0.5,3.6-1.5c1-1,1.5-2.2,1.5-3.6v-29.1l6.6,11.6c0.5,0.7,1.1,1.5,1.8,2.2
		c1,1,2.4,1.6,4.1,1.6h7.1c1.7,0,3.1-0.5,4.1-1.6c0.7-0.7,1.3-1.5,1.8-2.3l6.6-11.6v29.1c0,1.4,0.5,2.6,1.5,3.6c1,1,2.2,1.5,3.6,1.5
		h14.6c1.4,0,2.6-0.5,3.6-1.5c1-1,1.5-2.2,1.5-3.6v-72.1c0-1.4-0.5-2.6-1.5-3.6C882.4,671.7,881.2,671.1,879.8,671.1z M880.7,748.4
		c0,0.2,0,0.4-0.3,0.6c-0.2,0.2-0.4,0.3-0.6,0.3h-14.6c-0.3,0-0.4-0.1-0.6-0.3c-0.2-0.2-0.3-0.4-0.3-0.6v-36.9l-3.9-1l-10.4,18.3
		c-0.3,0.5-0.7,1-1.2,1.5c-0.1,0.1-0.3,0.3-1.1,0.3h-7.1c-0.8,0-1.1-0.3-1.1-0.3l0,0c-0.5-0.5-0.9-1-1.2-1.4l-10.5-18.4l-3.9,1v36.9
		c0,0.2,0,0.4-0.3,0.6c-0.2,0.2-0.4,0.3-0.6,0.3h-14.6c-0.2,0-0.4,0-0.6-0.3c-0.2-0.2-0.3-0.4-0.3-0.6v-72.1c0-0.2,0-0.4,0.3-0.6
		c0.2-0.2,0.4-0.3,0.6-0.3h12.9c0.9,0,1.5,0.2,1.8,0.5c0.9,1,1.2,1.4,1.2,1.4l18.1,30.9h3.6l18.1-30.9c0.1-0.1,0.3-0.5,1.2-1.5
		c0.3-0.4,0.9-0.5,1.8-0.5h12.9c0.2,0,0.4,0,0.6,0.3c0.2,0.2,0.3,0.4,0.3,0.6V748.4z"/>
</g>
</svg>
