<?xml version="1.0" encoding="utf-8"?>
<!-- Generator: Adobe Illustrator 19.0.0, SVG Export Plug-In . SVG Version: 6.00 Build 0)  -->
<svg version="1.1" id="Layer_1" xmlns="http://www.w3.org/2000/svg" xmlns:xlink="http://www.w3.org/1999/xlink" x="0px" y="0px"
	 viewBox="0 0 1000 1000" style="enable-background:new 0 0 1000 1000;" xml:space="preserve">
<style type="text/css">
	.st0{fill:#FFFFFF;}
	.st1{fill:#009688;}
	.st2{opacity:0.2;}
</style>
<g id="XMLID_382_">
	<g id="XMLID_372_">
		<g id="XMLID_381_">
			<polygon id="XMLID_34_" class="st0" points="285.9,165.4 393.5,142.3 712.3,662.9 604.1,685.3 			"/>
			<path id="XMLID_27_" class="st1" d="M390,150.4l310.8,507.6l-93.2,19.2L297.3,170.3L390,150.4 M397,134.1l-122.6,26.4
				l326.2,532.9l123.3-25.4L397,134.1L397,134.1z"/>
		</g>
		<g id="XMLID_380_">
			<polygon id="XMLID_30_" class="st0" points="281.6,662 281.6,166.3 389.8,143.1 391.8,684.5 			"/>
			<path id="XMLID_22_" class="st1" d="M382.6,152l1.9,523.7l-95.7-19.5v-484L382.6,152 M397,134.1l-122.6,26.4v507.4L399,693.4
				L397,134.1L397,134.1z"/>
		</g>
		<g id="XMLID_379_">
			<polygon id="XMLID_26_" class="st0" points="608.5,143.1 716.6,166.3 716.6,662.1 607.8,684.5 			"/>
			<path id="XMLID_17_" class="st1" d="M615.7,152l93.7,20.2v484L615,675.6L615.7,152 M601.3,134.1l-0.7,559.2l123.3-25.4V160.5
				L601.3,134.1L601.3,134.1z"/>
		</g>
		<g id="XMLID_378_">
			<polygon id="XMLID_23_" class="st0" points="285.9,662.9 604.8,142.3 712.4,165.4 395.5,685.3 			"/>
			<path id="XMLID_12_" class="st1" d="M608.2,150.4l92.7,19.9L392,677.2l-94.5-19.3L608.2,150.4 M601.3,134.1L274.4,667.9
				L399,693.4l324.8-532.9L601.3,134.1L601.3,134.1z"/>
		</g>
		<g id="XMLID_373_">
			<polygon id="XMLID_377_" class="st0" points="445.5,241 415.2,362.9 517.9,530.6 581.2,462.7 			"/>
			<g id="XMLID_374_">
				<polygon id="XMLID_376_" class="st1" points="445.5,241 581.2,462.7 581.2,435 462.4,241 				"/>
				<polygon id="XMLID_375_" class="st1" points="517.9,530.6 415.2,362.9 415.2,390.5 500.9,530.6 				"/>
			</g>
		</g>
	</g>
	<g id="XMLID_371_">
		<path id="XMLID_59_" class="st1" d="M29,740v93.5h-5.1V730.4h3.8l75.8,95.1v-95.1h5.1v103.1h-4.9L29,740z"/>
		<path id="XMLID_61_" class="st1" d="M129.9,730.4l38,48.5l38-48.5h5.8l-41.1,52.3l39.9,50.8h-5.8l-36.9-47l-36.9,47H125l39.9-50.8
			l-41.1-52.3H129.9z"/>
		<path id="XMLID_63_" class="st1" d="M262.9,833.5V730.4h66.8v4.6H268v43.6h52.4v4.5H268v50.4H262.9z"/>
		<path id="XMLID_65_" class="st1" d="M375.7,762.6c-7,0.3-13,2.5-18.1,6.6c-5.1,4.1-8.7,9.7-10.7,16.8v47.5h-4.9V758h4.8v19.2
			c2.6-5.3,6.1-9.7,10.5-13.1c4.4-3.4,9-5.4,13.9-6c1-0.1,1.9-0.1,2.7-0.1c0.8,0,1.5,0,2,0V762.6z"/>
		<path id="XMLID_67_" class="st1" d="M407.2,834.9c-3.5,0-6.7-0.6-9.7-1.8c-3-1.2-5.6-2.9-7.8-4.9c-2.2-2.1-4-4.5-5.2-7.3
			c-1.3-2.8-1.9-5.9-1.9-9.1c0-3.2,0.8-6.1,2.3-8.8c1.5-2.7,3.7-5,6.5-6.9c2.8-1.9,6-3.4,9.9-4.5c3.8-1.1,8-1.6,12.6-1.6
			c4.3,0,8.5,0.3,12.8,1c4.3,0.7,8.2,1.7,11.7,3v-8.1c0-7.5-2.2-13.6-6.5-18.1c-4.3-4.5-10.1-6.8-17.3-6.8c-3.7,0-7.6,0.8-11.8,2.4
			c-4.2,1.6-8.3,3.9-12.5,6.9l-2.3-3.6c9.7-6.6,18.6-9.9,26.9-9.9c8.8,0,15.8,2.6,20.8,7.8s7.6,12.4,7.6,21.5v39.5
			c0,2.1,0.9,3.2,2.6,3.2v4.6c-0.3,0.1-0.6,0.1-0.8,0.1c-0.2,0-0.5,0-0.7,0c-1.6,0-3-0.6-4.1-1.8c-1.1-1.2-1.7-2.7-1.7-4.4v-6.7
			c-3.5,4.6-8,8.1-13.5,10.5C419.6,833.7,413.6,834.9,407.2,834.9z M407.8,830.7c3.6,0,7.2-0.5,10.8-1.5c3.6-1,6.9-2.3,9.8-4
			c2.9-1.7,5.3-3.7,7.1-5.9c1.8-2.2,2.8-4.6,2.8-7.1v-14.2c-7.5-2.9-15.6-4.4-24.1-4.4c-4,0-7.6,0.4-10.9,1.3
			c-3.3,0.9-6.1,2.1-8.5,3.6c-2.4,1.5-4.2,3.4-5.5,5.6s-2,4.6-2,7.3c0,2.7,0.5,5.2,1.6,7.5c1.1,2.3,2.5,4.4,4.4,6.1
			c1.8,1.7,4,3.1,6.5,4.1C402.2,830.3,404.9,830.7,407.8,830.7z"/>
		<path id="XMLID_70_" class="st1" d="M575.5,833.5h-4.9v-42.1c0-10.3-1.6-17.8-4.7-22.6c-3.1-4.8-8-7.3-14.4-7.3
			c-3.4,0-6.6,0.6-9.6,1.9c-3,1.3-5.7,3-8.1,5.2c-2.4,2.2-4.5,4.8-6.4,7.9c-1.8,3.1-3.2,6.4-4.2,10v47h-4.9v-42.1
			c0-10.4-1.5-17.9-4.6-22.7c-3-4.8-7.9-7.2-14.4-7.2c-6.7,0-12.5,2.3-17.6,6.8c-5,4.6-8.6,10.6-10.7,18v47.2h-4.9V758h4.8v18.9
			c3.2-6.4,7.3-11.3,12.3-14.8c5-3.5,10.6-5.2,16.7-5.2c6.4,0,11.6,1.9,15.6,5.8c4,3.9,6.4,9,7.2,15.4c7.5-14.1,17.4-21.2,29.9-21.2
			c8,0,13.9,2.9,17.6,8.6c3.7,5.8,5.5,14.2,5.5,25.3V833.5z"/>
		<path id="XMLID_72_" class="st1" d="M629.5,834.9c-5.1,0-9.9-1-14.4-3.1c-4.5-2.1-8.3-4.9-11.7-8.6c-3.3-3.6-6-7.8-7.8-12.6
			c-1.9-4.8-2.8-9.9-2.8-15.3c0-5.3,0.9-10.3,2.8-15c1.8-4.6,4.4-8.7,7.7-12.2c3.3-3.5,7.1-6.2,11.5-8.3s9.1-3,14.2-3
			c5.2,0,10.1,1,14.5,3c4.5,2,8.3,4.8,11.6,8.3c3.3,3.5,5.9,7.7,7.8,12.4c1.9,4.7,2.8,9.8,2.8,15.1c0,0.2,0,0.6,0,1.2s0,0.9-0.1,1
			h-67.7c0.4,4.6,1.5,9,3.3,13c1.8,4,4.1,7.5,7,10.4c2.9,2.9,6.1,5.2,9.9,6.9c3.7,1.7,7.7,2.5,11.8,2.5c2.7,0,5.4-0.4,8.1-1.1
			c2.7-0.7,5.2-1.8,7.5-3.1c2.3-1.4,4.4-3,6.1-4.9c1.7-1.9,3.1-3.9,4.2-6.2l4.5,1.2c-1.1,2.6-2.6,5.1-4.6,7.3
			c-2,2.3-4.4,4.2-7.2,5.8s-5.7,2.9-8.9,3.8C636.2,834.5,632.9,834.9,629.5,834.9z M660.7,793.7c-0.3-4.7-1.3-9.1-3-13.1
			c-1.7-4-4-7.4-6.9-10.3c-2.9-2.9-6.1-5.2-9.8-6.8c-3.7-1.6-7.6-2.4-11.9-2.4c-4.3,0-8.2,0.8-11.9,2.5c-3.7,1.6-6.9,3.9-9.7,6.8
			c-2.8,2.9-5,6.3-6.7,10.3c-1.7,4-2.7,8.3-3,12.9H660.7z"/>
		<path id="XMLID_75_" class="st1" d="M776.1,758h5.1l-32.8,75.5h-4.2l-17.7-41.2l-17.9,41.2h-4.2L671.6,758h5.1l30.1,69.5l17-39.6
			l-12.6-29.8h4.5l10.9,25.4l10.7-25.4h4.6l-12.8,29.8l17.1,39.6L776.1,758z"/>
		<path id="XMLID_77_" class="st1" d="M824.5,834.9c-5.1,0-9.9-1-14.3-3.1c-4.4-2.1-8.3-4.9-11.5-8.4c-3.3-3.5-5.9-7.7-7.7-12.4
			c-1.8-4.7-2.8-9.7-2.8-15c0-5.3,0.9-10.4,2.8-15.1c1.9-4.7,4.5-8.9,7.8-12.5c3.3-3.6,7.1-6.4,11.5-8.5c4.4-2.1,9.1-3.1,14.2-3.1
			c5,0,9.8,1,14.2,3.1c4.5,2.1,8.3,4.9,11.6,8.5c3.3,3.6,5.9,7.7,7.8,12.5c1.9,4.7,2.8,9.8,2.8,15.1c0,5.2-0.9,10.2-2.8,15
			c-1.9,4.7-4.5,8.9-7.7,12.4c-3.2,3.5-7.1,6.3-11.5,8.4C834.4,833.9,829.6,834.9,824.5,834.9z M793.1,796.2c0,4.6,0.8,9.1,2.5,13.2
			c1.6,4.2,3.9,7.8,6.7,10.9c2.8,3.1,6.1,5.5,9.9,7.3c3.8,1.8,7.9,2.7,12.1,2.7c4.4,0,8.4-0.9,12.3-2.8c3.8-1.8,7.2-4.3,10-7.4
			c2.9-3.1,5.1-6.8,6.8-11c1.6-4.2,2.5-8.6,2.5-13.3c0-4.6-0.8-9.1-2.5-13.3c-1.6-4.2-3.9-7.9-6.8-11c-2.9-3.1-6.2-5.6-10-7.4
			c-3.8-1.8-7.9-2.8-12.1-2.8c-4.3,0-8.3,0.9-12.1,2.8c-3.8,1.8-7.1,4.3-9.9,7.5c-2.9,3.1-5.1,6.8-6.8,11
			C794,787,793.1,791.4,793.1,796.2z"/>
		<path id="XMLID_80_" class="st1" d="M912.9,762.6c-7,0.3-13,2.5-18.1,6.6c-5.1,4.1-8.7,9.7-10.7,16.8v47.5h-4.9V758h4.8v19.2
			c2.6-5.3,6.1-9.7,10.5-13.1c4.4-3.4,9-5.4,13.9-6c1-0.1,1.9-0.1,2.7-0.1c0.8,0,1.5,0,2,0V762.6z"/>
		<path id="XMLID_82_" class="st1" d="M982.2,833.5l-30.8-41.8l-19.3,17.6v24.2h-4.9v-106h4.9v75.9l48.9-45.2h6l-32.1,30.2l33,45
			H982.2z"/>
	</g>
	<g id="XMLID_364_" class="st2">
		<polygon id="XMLID_370_" class="st1" points="398.2,465.8 274.4,667.9 274.4,642.9 398.1,441 		"/>
		<polygon id="XMLID_369_" class="st1" points="422.3,426.5 492.2,540.5 499.7,528.5 429.7,414.3 		"/>
		<polygon id="XMLID_368_" class="st1" points="499.2,300.8 568.9,414.9 576.3,402.5 506.6,288.7 		"/>
		<polygon id="XMLID_367_" class="st1" points="723.9,185.1 600.9,385.6 601,362 723.9,160.5 		"/>
		<polygon id="XMLID_366_" class="st1" points="397.8,362.3 397.1,134.1 409.8,155.1 409.8,381.8 		"/>
		<polygon id="XMLID_365_" class="st1" points="588.1,673 588.1,446.2 600.8,467.1 600.6,693.4 		"/>
	</g>
</g>
</svg>
