<?xml version="1.0" encoding="utf-8"?>
<!-- Generator: Adobe Illustrator 19.0.0, SVG Export Plug-In . SVG Version: 6.00 Build 0)  -->
<svg version="1.1" id="Layer_1" xmlns="http://www.w3.org/2000/svg" xmlns:xlink="http://www.w3.org/1999/xlink" x="0px" y="0px"
	 viewBox="0 0 1000 1000" style="enable-background:new 0 0 1000 1000;" xml:space="preserve">
<style type="text/css">
	.st0{fill:#FFFFFF;}
	.st1{fill:#009688;}
	.st2{font-family:'Raleway-ExtraLight';}
	.st3{font-size:145.1847px;}
	.st4{letter-spacing:-1;}
	.st5{letter-spacing:-5;}
	.st6{letter-spacing:-2;}
	.st7{fill:#CCEAE7;}
</style>
<g id="XMLID_20_">
	<polyline id="XMLID_71_" class="st0" points="285.5,164.4 393.1,141.3 712,661.9 603.7,684.3 285.5,164.4 	"/>
	<path id="XMLID_78_" class="st1" d="M389.6,149.4l310.8,507.5l-93.2,19.2L297,169.3L389.6,149.4 M396.6,133.1L274,159.5
		l326.2,532.9l123.3-25.4L396.6,133.1"/>
	<polyline id="XMLID_82_" class="st0" points="281.3,661 281.3,165.3 389.4,142.1 391.4,683.5 281.3,661 	"/>
	<path id="XMLID_87_" class="st1" d="M382.2,151l1.9,523.7l-95.7-19.5v-484L382.2,151 M396.6,133.1L274,159.5v507.4l124.6,25.4
		L396.6,133.1"/>
	<polyline id="XMLID_88_" class="st0" points="608.1,142.1 716.3,165.3 716.3,661.1 607.4,683.5 608.1,142.1 	"/>
	<path id="XMLID_123_" class="st1" d="M615.3,151l93.7,20.2v484l-94.4,19.5L615.3,151 M600.9,133.1l-0.7,559.2l123.3-25.4V159.5
		L600.9,133.1"/>
	<polyline id="XMLID_125_" class="st0" points="285.6,661.9 604.4,141.3 712,164.4 395.1,684.3 285.6,661.9 	"/>
	<path id="XMLID_128_" class="st1" d="M607.9,149.4l92.7,19.9l-309,506.8l-94.5-19.3L607.9,149.4 M600.9,133.1L274,666.9l124.6,25.4
		l324.8-532.9L600.9,133.1"/>
	<polygon id="XMLID_129_" class="st0" points="445.1,240 414.8,361.9 517.5,529.6 580.9,461.7 	"/>
	<polyline id="XMLID_130_" class="st1" points="445.1,240 580.9,461.7 580.9,434 462,240 445.1,240 	"/>
	<polyline id="XMLID_131_" class="st1" points="517.5,529.6 414.8,361.9 414.8,389.5 500.6,529.6 517.5,529.6 	"/>
	<text id="XMLID_133_" transform="matrix(1 0 0 1 9.645 832.4922)"><tspan x="0" y="0" class="st1 st2 st3">N</tspan><tspan x="112.5" y="0" class="st1 st2 st3 st4">X</tspan><tspan x="201.5" y="0" class="st1 st2 st3"> </tspan><tspan x="239.1" y="0" class="st1 st2 st3 st5">F</tspan><tspan x="320.4" y="0" class="st1 st2 st3">r</tspan><tspan x="367.6" y="0" class="st1 st2 st3">am</tspan><tspan x="576.8" y="0" class="st1 st2 st3 st4">e</tspan><tspan x="659" y="0" class="st1 st2 st3 st6">w</tspan><tspan x="772.5" y="0" class="st1 st2 st3">ork</tspan></text>
	<polyline id="XMLID_132_" class="st7" points="383.4,463.5 288.5,618.3 288.5,643.4 383.5,488.2 383.4,463.5 	"/>
	<path id="XMLID_136_" class="st1" d="M288.5,618.3L274,641.9v25l14.4-23.6V618.3 M397.7,440l-14.4,23.4l0.1,24.8l14.4-23.4
		l-0.1-21.2L397.7,440"/>
	<polyline id="XMLID_137_" class="st7" points="499.2,527.4 491.8,539.5 499.3,527.5 499.2,527.4 	"/>
	<polyline id="XMLID_138_" class="st1" points="499.2,527.4 499.2,527.4 499.3,527.5 499.3,527.5 499.2,527.4 	"/>
	<polyline id="XMLID_139_" class="st7" points="437.8,427.1 430.4,439.3 483.3,525.7 490.7,513.5 437.8,427.1 	"/>
	<path id="XMLID_150_" class="st1" d="M490.7,513.5l-7.4,12.2l8.5,13.8l0,0l7.4-12.1l0,0L490.7,513.5 M429.4,413.3l-7.5,12.2
		l8.5,13.8l7.5-12.2L429.4,413.3"/>
	<polyline id="XMLID_155_" class="st1" points="429.4,413.3 429.4,413.3 437.8,427.1 490.7,513.5 499.2,527.4 499.3,527.5 
		499.3,527.5 429.4,413.3 	"/>
	<polyline id="XMLID_172_" class="st7" points="576,401.5 568.5,413.8 568.6,413.9 576,401.5 	"/>
	<polyline id="XMLID_187_" class="st7" points="514.7,301.5 507.3,313.6 560,399.9 567.5,387.6 514.7,301.5 	"/>
	<path id="XMLID_217_" class="st1" d="M567.5,387.6l-7.5,12.3l8.5,13.9l7.5-12.3L567.5,387.6 M506.3,287.7l-7.4,12.1l8.5,13.8
		l7.4-12.1L506.3,287.7"/>
	<polyline id="XMLID_225_" class="st7" points="709.1,183.2 615.1,337.3 615.1,361 709.1,207.6 709.1,183.2 	"/>
	<path id="XMLID_229_" class="st1" d="M615.1,337.3l-14.5,23.7l0,23.6l14.5-23.6L615.1,337.3 M723.5,159.5l-14.4,23.7v24.5
		l14.4-23.6V159.5"/>
	<path id="XMLID_232_" class="st7" d="M397.4,361.1l0,0.2l12,19.4L397.4,361.1 M396.7,133.1l0,0.2l12.7,20.8L396.7,133.1"/>
	<polyline id="XMLID_237_" class="st7" points="396.8,161.1 397.4,333.3 409.5,353.1 409.5,181.8 396.8,161.1 	"/>
	<path id="XMLID_240_" class="st1" d="M397.4,333.3l0.1,27.6l0,0.2l12,19.7v-27.7L397.4,333.3 M396.7,133.3l0.1,27.8l12.7,20.7
		v-27.6l0,0L396.7,133.3"/>
	<polyline id="XMLID_383_" class="st1" points="397.4,360.9 397.4,361.3 397.4,361.1 397.4,360.9 	"/>
	<path id="XMLID_386_" class="st7" d="M600.2,692.4L600.2,692.4L600.2,692.4 M587.7,445.2L587.7,445.2l12.8,20.8v0L587.7,445.2"/>
	<polyline id="XMLID_387_" class="st7" points="587.7,472.9 587.7,644.3 600.2,664.8 600.4,493.6 587.7,472.9 	"/>
	<path id="XMLID_390_" class="st1" d="M587.7,644.3V672l12.5,20.4h0l0-27.6L587.7,644.3 M587.7,445.2v27.6l12.7,20.8l0-27.6
		L587.7,445.2"/>
</g>
</svg>
