<?xml version="1.0" encoding="utf-8"?>
<!-- Generator: Adobe Illustrator 19.0.0, SVG Export Plug-In . SVG Version: 6.00 Build 0)  -->
<svg version="1.1" id="Layer_1" xmlns="http://www.w3.org/2000/svg" xmlns:xlink="http://www.w3.org/1999/xlink" x="0px" y="0px"
	 viewBox="0 0 1000 1000" style="enable-background:new 0 0 1000 1000;" xml:space="preserve">
<style type="text/css">
	.st0{fill:#FFFFFF;}
	.st1{fill:#009688;}
	.st2{opacity:0.2;}
</style>
<g id="XMLID_382_">
	<g id="XMLID_372_">
		<g id="XMLID_381_">
			<polygon id="XMLID_34_" class="st0" points="126,64.5 314.7,23.9 873.9,937 684,976.2 			"/>
			<path id="XMLID_27_" class="st1" d="M308.6,38.1l545.1,890.1L690.2,962L146.1,73.1L308.6,38.1 M320.9,9.6l-215,46.2l572,934.5
				l216.2-44.6L320.9,9.6L320.9,9.6z"/>
		</g>
		<g id="XMLID_380_">
			<polygon id="XMLID_30_" class="st0" points="118.5,935.5 118.5,66.1 308.2,25.3 311.7,974.9 			"/>
			<path id="XMLID_22_" class="st1" d="M295.6,40.9l3.3,918.4l-167.8-34.2V76.3L295.6,40.9 M320.9,9.6l-215,46.2v890l218.6,44.6
				L320.9,9.6L320.9,9.6z"/>
		</g>
		<g id="XMLID_379_">
			<polygon id="XMLID_26_" class="st0" points="691.8,25.3 881.5,66.1 881.5,935.5 690.6,974.8 			"/>
			<path id="XMLID_17_" class="st1" d="M704.4,41l164.4,35.3v848.9l-165.6,34.1L704.4,41 M679.1,9.6l-1.3,980.8l216.2-44.6v-890
				L679.1,9.6L679.1,9.6z"/>
		</g>
		<g id="XMLID_378_">
			<polygon id="XMLID_23_" class="st0" points="126.1,937 685.3,23.9 874,64.5 318.2,976.2 			"/>
			<path id="XMLID_12_" class="st1" d="M691.4,38.1l162.6,35L312.1,962l-165.7-33.8L691.4,38.1 M679.1,9.6L105.9,945.8l218.6,44.6
				L894.1,55.8L679.1,9.6L679.1,9.6z"/>
		</g>
		<g id="XMLID_373_">
			<polygon id="XMLID_377_" class="st0" points="405.9,197 352.8,410.8 532.9,705 644,585.8 			"/>
			<g id="XMLID_374_">
				<polygon id="XMLID_376_" class="st1" points="405.9,197 644,585.8 644,537.4 435.6,197 				"/>
				<polygon id="XMLID_375_" class="st1" points="532.9,705 352.8,410.8 352.8,459.3 503.2,705 				"/>
			</g>
		</g>
	</g>
	<g id="XMLID_364_" class="st2">
		<polygon id="XMLID_370_" class="st1" points="323,591.3 105.9,945.8 105.9,901.9 322.8,547.9 		"/>
		<polygon id="XMLID_369_" class="st1" points="365.2,522.3 487.8,722.4 500.9,701.3 378.3,500.9 		"/>
		<polygon id="XMLID_368_" class="st1" points="500.2,301.9 622.4,502.1 635.4,480.2 513.1,280.7 		"/>
		<polygon id="XMLID_367_" class="st1" points="894.1,99 678.6,450.7 678.6,409.3 894.1,55.8 		"/>
		<polygon id="XMLID_366_" class="st1" points="322.3,409.8 321,9.6 343.4,46.5 343.4,443.9 		"/>
		<polygon id="XMLID_365_" class="st1" points="656,954.7 656,557 678.4,593.5 677.9,990.4 		"/>
	</g>
</g>
</svg>
