<?xml version="1.0" encoding="utf-8"?>
<!-- Generator: Adobe Illustrator 19.0.0, SVG Export Plug-In . SVG Version: 6.00 Build 0)  -->
<svg version="1.1" id="Layer_1" xmlns="http://www.w3.org/2000/svg" xmlns:xlink="http://www.w3.org/1999/xlink" x="0px" y="0px"
	 viewBox="0 0 1000 1000" style="enable-background:new 0 0 1000 1000;" xml:space="preserve">
<style type="text/css">
	.st0{fill:#009688;}
	.st1{fill:#FFFFFF;}
	.st2{fill:#00786D;}
	.st3{fill:#CCCCCC;}
</style>
<g id="XMLID_20_">
	<polyline id="XMLID_158_" class="st0" points="280,180.5 387.6,157.3 706.4,678 598.2,700.3 280,180.5 	"/>
	<path id="XMLID_161_" class="st1" d="M384.1,165.5L694.9,673l-93.2,19.2L291.5,185.4L384.1,165.5 M391.1,149.2l-122.6,26.4
		l326.2,532.9L718,683L391.1,149.2"/>
	<polyline id="XMLID_164_" class="st0" points="275.7,677.1 275.7,181.4 383.9,158.1 385.9,699.6 275.7,677.1 	"/>
	<path id="XMLID_167_" class="st1" d="M376.7,167.1l1.9,523.7L283,671.2v-484L376.7,167.1 M391.1,149.2l-122.6,26.4V683l124.6,25.4
		L391.1,149.2"/>
	<polyline id="XMLID_168_" class="st0" points="602.6,158.1 710.8,181.4 710.8,677.1 601.9,699.6 602.6,158.1 	"/>
	<path id="XMLID_174_" class="st1" d="M609.8,167.1l93.7,20.2v484l-94.4,19.5L609.8,167.1 M595.4,149.2l-0.7,559.2L718,683V175.6
		L595.4,149.2"/>
	<polyline id="XMLID_175_" class="st0" points="280.1,678 598.9,157.3 706.5,180.5 389.6,700.3 280.1,678 	"/>
	<path id="XMLID_178_" class="st1" d="M602.4,165.5l92.7,19.9l-309,506.8L291.6,673L602.4,165.5 M595.4,149.2L268.5,683l124.6,25.4
		L718,175.6L595.4,149.2"/>
	<polygon id="XMLID_185_" class="st0" points="439.6,256 409.3,377.9 512,545.7 575.4,477.8 	"/>
	<polyline id="XMLID_205_" class="st1" points="439.6,256 575.4,477.8 575.4,450.1 456.5,256 439.6,256 	"/>
	<polyline id="XMLID_211_" class="st1" points="512,545.7 409.3,377.9 409.3,405.6 495.1,545.7 512,545.7 	"/>
	<polyline id="XMLID_215_" class="st2" points="377.9,479.5 283,634.4 283,659.4 378,504.3 377.9,479.5 	"/>
	<path id="XMLID_223_" class="st3" d="M283,634.4L268.5,658v25l14.4-23.6V634.4 M392.2,456.1l-14.4,23.4l0.1,24.8l14.4-23.4
		L392.2,456.1"/>
	<path id="XMLID_234_" class="st3" d="M493.7,543.5l-7.4,12.1l0,0l7.5-12L493.7,543.5 M423.9,429.3l-6,9.8L423.9,429.3L423.9,429.3"
		/>
	<polyline id="XMLID_235_" class="st2" points="432.3,443.2 424.9,455.3 477.8,541.8 485.2,529.6 432.3,443.2 	"/>
	<path id="XMLID_248_" class="st3" d="M485.2,529.6l-7.4,12.2l8.5,13.8l7.4-12.1L485.2,529.6 M423.9,429.3l-6,9.8l-1.5,2.4l8.5,13.8
		l7.5-12.2L423.9,429.3"/>
	<polyline id="XMLID_254_" class="st3" points="423.9,429.3 423.9,429.3 423.9,429.3 432.3,443.2 485.2,529.6 493.7,543.5 
		493.8,543.6 493.8,543.6 423.9,429.3 	"/>
	<path id="XMLID_327_" class="st3" d="M570.5,417.5l-7.5,12.3l0.1,0.1l0,0.1L570.5,417.5 M500.7,303.8l-2.9,4.7L500.7,303.8"/>
	<polyline id="XMLID_328_" class="st2" points="509.2,317.6 501.8,329.7 554.5,416 562,403.7 509.2,317.6 	"/>
	<path id="XMLID_331_" class="st3" d="M562,403.7l-7.5,12.3l8.5,13.9l7.5-12.3L562,403.7 M500.7,303.8l-2.9,4.7l-4.5,7.3l8.5,13.8
		l7.4-12.1L500.7,303.8"/>
	<polyline id="XMLID_332_" class="st2" points="703.5,199.2 609.6,353.4 609.5,377.1 703.5,223.7 703.5,199.2 	"/>
	<path id="XMLID_335_" class="st3" d="M609.6,353.4l-14.5,23.7l0,23.6l14.5-23.6L609.6,353.4 M718,175.6L718,175.6l-14.4,23.7v24.5
		l14.4-23.6V175.6"/>
	<path id="XMLID_338_" class="st3" d="M391.9,377.2l0,0.1l0,0.1l12,19.4L391.9,377.2 M391.2,149.2l0,0.2l12.7,20.8L391.2,149.2"/>
	<polyline id="XMLID_339_" class="st2" points="391.3,177.2 391.8,349.4 404,369.2 404,197.8 391.3,177.2 	"/>
	<path id="XMLID_342_" class="st3" d="M391.8,349.4l0.1,27.8l12,19.7v-27.7L391.8,349.4 M391.2,149.4l0.1,27.8l12.7,20.7v-27.6l0,0
		L391.2,149.4"/>
	<polyline id="XMLID_343_" class="st2" points="582.2,488.9 582.2,660.4 594.7,680.8 594.9,509.7 582.2,488.9 	"/>
	<path id="XMLID_346_" class="st3" d="M582.2,660.4v27.7l12.5,20.4l0-27.6L582.2,660.4 M582.2,461.3v27.6l12.7,20.8l0-27.6l-0.7-1.1
		L582.2,461.3"/>
	<polygon id="XMLID_347_" class="st1" points="23.1,754.9 23.1,848.4 18.1,848.4 18.1,745.3 21.8,745.3 97.6,840.4 97.6,745.3 
		102.7,745.3 102.7,848.4 97.8,848.4 	"/>
	<polygon id="XMLID_348_" class="st1" points="124,745.3 162.1,793.8 200.1,745.3 205.9,745.3 164.8,797.6 204.8,848.4 199,848.4 
		162.1,801.4 125.2,848.4 119.1,848.4 159,797.6 117.9,745.3 	"/>
	<polygon id="XMLID_349_" class="st1" points="257,848.4 257,745.3 323.8,745.3 323.8,750 262.1,750 262.1,793.5 314.5,793.5 
		314.5,798 262.1,798 262.1,848.4 	"/>
	<path id="XMLID_350_" class="st1" d="M369.8,777.6c-7,0.3-13,2.5-18.1,6.6c-5.1,4.1-8.7,9.7-10.7,16.8v47.5H336v-75.5h4.8v19.2
		c2.6-5.3,6.1-9.7,10.5-13.1c4.4-3.4,9-5.4,13.9-6c1-0.1,1.9-0.1,2.7-0.1c0.8,0,1.5,0,2,0V777.6z"/>
	<path id="XMLID_353_" class="st1" d="M401.3,849.9c-3.5,0-6.7-0.6-9.7-1.8c-3-1.2-5.6-2.9-7.8-4.9c-2.2-2.1-4-4.5-5.2-7.3
		c-1.3-2.8-1.9-5.9-1.9-9.1c0-3.2,0.8-6.1,2.3-8.8c1.5-2.7,3.7-5,6.5-6.9c2.8-1.9,6-3.4,9.9-4.5c3.8-1.1,8-1.6,12.6-1.6
		c4.3,0,8.5,0.3,12.8,1c4.3,0.7,8.2,1.7,11.7,3v-8.1c0-7.5-2.2-13.6-6.5-18.1c-4.3-4.5-10.1-6.8-17.3-6.8c-3.7,0-7.6,0.8-11.8,2.4
		c-4.2,1.6-8.3,3.9-12.5,6.9l-2.3-3.6c9.7-6.6,18.6-9.9,26.9-9.9c8.8,0,15.8,2.6,20.8,7.8c5.1,5.2,7.6,12.4,7.6,21.5v39.5
		c0,2.1,0.9,3.2,2.6,3.2v4.6c-0.3,0.1-0.6,0.1-0.8,0.1c-0.2,0-0.5,0-0.7,0c-1.6,0-3-0.6-4.1-1.8c-1.1-1.2-1.7-2.7-1.7-4.4v-6.7
		c-3.5,4.6-8,8.1-13.5,10.5C413.7,848.6,407.7,849.9,401.3,849.9z M401.9,845.7c3.6,0,7.2-0.5,10.8-1.5c3.6-1,6.9-2.3,9.8-4
		c2.9-1.7,5.3-3.7,7.1-5.9c1.8-2.2,2.8-4.6,2.8-7.1V813c-7.5-2.9-15.6-4.4-24.1-4.4c-4,0-7.6,0.4-10.9,1.3c-3.3,0.9-6.1,2.1-8.5,3.6
		c-2.4,1.5-4.2,3.4-5.5,5.6s-2,4.6-2,7.3c0,2.7,0.5,5.2,1.6,7.5c1.1,2.3,2.5,4.4,4.4,6.1c1.8,1.7,4,3.1,6.5,4.1
		C396.3,845.2,399,845.7,401.9,845.7z"/>
	<path id="XMLID_354_" class="st1" d="M569.6,848.4h-4.9v-42.1c0-10.3-1.6-17.8-4.7-22.6c-3.1-4.8-8-7.3-14.4-7.3
		c-3.4,0-6.6,0.6-9.6,1.9c-3,1.3-5.7,3-8.1,5.2c-2.4,2.2-4.6,4.8-6.4,7.9c-1.8,3.1-3.2,6.4-4.2,10v47h-4.9v-42.1
		c0-10.4-1.5-17.9-4.6-22.7s-7.9-7.2-14.4-7.2c-6.7,0-12.5,2.3-17.6,6.8c-5,4.5-8.6,10.6-10.7,18v47.2H460v-75.5h4.8v18.9
		c3.2-6.4,7.3-11.3,12.3-14.8c5-3.5,10.6-5.2,16.7-5.2c6.4,0,11.6,1.9,15.6,5.8c4,3.9,6.4,9,7.2,15.4c7.5-14.1,17.4-21.2,29.9-21.2
		c8,0,13.9,2.9,17.6,8.6c3.7,5.8,5.5,14.2,5.5,25.3V848.4z"/>
	<path id="XMLID_357_" class="st1" d="M623.6,849.9c-5.1,0-9.9-1-14.4-3.1c-4.5-2.1-8.3-4.9-11.7-8.6c-3.3-3.6-6-7.8-7.8-12.6
		c-1.9-4.8-2.8-9.9-2.8-15.3c0-5.3,0.9-10.3,2.8-15c1.8-4.6,4.4-8.7,7.7-12.2c3.3-3.5,7.1-6.2,11.5-8.3c4.4-2,9.1-3,14.2-3
		c5.2,0,10.1,1,14.5,3c4.5,2,8.3,4.8,11.6,8.3c3.3,3.5,5.9,7.7,7.8,12.4c1.9,4.7,2.8,9.8,2.8,15.1c0,0.2,0,0.6,0,1.2
		c0,0.6,0,0.9-0.1,1H592c0.4,4.6,1.5,9,3.3,13c1.8,4,4.1,7.5,7,10.4c2.9,2.9,6.1,5.2,9.9,6.9c3.7,1.7,7.7,2.5,11.8,2.5
		c2.7,0,5.4-0.4,8.1-1.1c2.7-0.7,5.2-1.8,7.5-3.1c2.3-1.4,4.4-3,6.1-4.9c1.7-1.9,3.1-3.9,4.2-6.2l4.5,1.2c-1.1,2.6-2.6,5.1-4.6,7.3
		c-2,2.3-4.4,4.2-7.2,5.8c-2.8,1.6-5.7,2.9-8.9,3.8C630.3,849.4,627,849.9,623.6,849.9z M654.8,808.6c-0.3-4.7-1.3-9.1-3-13.1
		c-1.7-4-4-7.4-6.9-10.3c-2.9-2.9-6.1-5.2-9.8-6.8c-3.7-1.6-7.6-2.4-11.9-2.4c-4.3,0-8.2,0.8-11.9,2.5c-3.7,1.6-6.9,3.9-9.7,6.8
		c-2.8,2.9-5,6.3-6.7,10.3c-1.7,4-2.7,8.3-3,12.9H654.8z"/>
	<polygon id="XMLID_358_" class="st1" points="770.3,772.9 775.3,772.9 742.5,848.4 738.3,848.4 720.6,807.2 702.8,848.4 
		698.5,848.4 665.7,772.9 670.8,772.9 700.9,842.5 717.9,802.8 705.2,773.1 709.7,773.1 720.6,798.5 731.4,773.1 736,773.1 
		723.2,802.8 740.4,842.5 	"/>
	<path id="XMLID_361_" class="st1" d="M818.6,849.9c-5.1,0-9.9-1-14.3-3.1c-4.4-2.1-8.3-4.9-11.5-8.4c-3.3-3.5-5.9-7.7-7.7-12.4
		c-1.8-4.7-2.8-9.7-2.8-15c0-5.3,0.9-10.4,2.8-15.1c1.9-4.7,4.5-8.9,7.8-12.5c3.3-3.6,7.1-6.4,11.5-8.5c4.4-2.1,9.1-3.1,14.2-3.1
		c5,0,9.8,1,14.2,3.1c4.5,2.1,8.3,4.9,11.6,8.5c3.3,3.6,5.9,7.7,7.8,12.5c1.9,4.7,2.8,9.8,2.8,15.1c0,5.2-0.9,10.2-2.8,15
		c-1.9,4.7-4.5,8.9-7.7,12.4c-3.2,3.5-7.1,6.3-11.5,8.4C828.5,848.8,823.7,849.9,818.6,849.9z M787.2,811.1c0,4.6,0.8,9.1,2.5,13.2
		c1.6,4.2,3.9,7.8,6.7,10.9c2.8,3.1,6.1,5.5,9.9,7.3c3.8,1.8,7.9,2.7,12.1,2.7c4.4,0,8.4-0.9,12.3-2.8c3.8-1.8,7.2-4.3,10-7.4
		c2.9-3.1,5.1-6.8,6.8-11c1.6-4.2,2.5-8.6,2.5-13.3c0-4.6-0.8-9.1-2.5-13.3c-1.6-4.2-3.9-7.9-6.8-11c-2.9-3.1-6.2-5.6-10-7.4
		c-3.8-1.8-7.9-2.8-12.1-2.8c-4.3,0-8.3,0.9-12.1,2.8c-3.8,1.8-7.1,4.3-9.9,7.5c-2.9,3.1-5.1,6.8-6.8,11
		C788.1,801.9,787.2,806.4,787.2,811.1z"/>
	<path id="XMLID_362_" class="st1" d="M907,777.6c-7,0.3-13,2.5-18.1,6.6c-5.1,4.1-8.7,9.7-10.7,16.8v47.5h-4.9v-75.5h4.8v19.2
		c2.6-5.3,6.1-9.7,10.5-13.1c4.4-3.4,9-5.4,13.9-6c1-0.1,1.9-0.1,2.7-0.1c0.8,0,1.5,0,2,0V777.6z"/>
	<polygon id="XMLID_363_" class="st1" points="976.3,848.4 945.5,806.6 926.2,824.2 926.2,848.4 921.3,848.4 921.3,742.4 
		926.2,742.4 926.2,818.4 975.1,773.2 981.1,773.2 949,803.4 981.9,848.4 	"/>
</g>
</svg>
