<?xml version="1.0" encoding="utf-8"?>
<!-- Generator: Adobe Illustrator 19.0.0, SVG Export Plug-In . SVG Version: 6.00 Build 0)  -->
<svg version="1.1" id="Layer_1" xmlns="http://www.w3.org/2000/svg" xmlns:xlink="http://www.w3.org/1999/xlink" x="0px" y="0px"
	 viewBox="0 0 1000 1000" style="enable-background:new 0 0 1000 1000;" xml:space="preserve">
<style type="text/css">
	.st0{fill:#009688;}
	.st1{fill:#FFFFFF;}
	.st2{fill:#CCCCCC;}
	.st3{fill:#00786D;}
</style>
<polyline id="XMLID_162_" class="st0" points="123.9,62 313.7,21.2 876,939.5 685.1,978.8 123.9,62 "/>
<path id="XMLID_189_" class="st1" d="M307.6,35.6l548.1,895.1l-164.4,33.9L144.1,70.7L307.6,35.6 M319.9,6.9L103.7,53.4l575.2,939.8
	l217.4-44.8L319.9,6.9"/>
<polyline id="XMLID_190_" class="st0" points="116.4,937.9 116.4,63.7 307.2,22.6 310.7,977.5 116.4,937.9 "/>
<path id="XMLID_193_" class="st1" d="M294.5,38.4l3.4,923.5l-168.7-34.4V73.9L294.5,38.4 M319.9,6.9L103.7,53.4v894.9l219.8,44.8
	L319.9,6.9"/>
<polyline id="XMLID_194_" class="st0" points="692.9,22.6 883.6,63.7 883.6,937.9 691.6,977.5 692.9,22.6 "/>
<path id="XMLID_198_" class="st1" d="M705.6,38.4l165.3,35.5v853.6l-166.5,34.3L705.6,38.4 M680.1,6.9l-1.3,986.2l217.4-44.8V53.4
	L680.1,6.9"/>
<polyline id="XMLID_199_" class="st0" points="124,939.5 686.3,21.2 876.1,62 317.2,978.9 124,939.5 "/>
<path id="XMLID_202_" class="st1" d="M692.4,35.6l163.5,35.2L311,964.6l-166.7-34L692.4,35.6 M680.1,6.9L103.7,948.3l219.8,44.8
	L896.3,53.4L680.1,6.9"/>
<polygon id="XMLID_203_" class="st0" points="405.4,195.3 352,410.3 533.1,706.1 644.8,586.3 "/>
<polyline id="XMLID_204_" class="st1" points="405.4,195.3 644.8,586.3 644.8,537.6 435.2,195.3 405.4,195.3 "/>
<polyline id="XMLID_206_" class="st1" points="533.1,706.1 352,410.3 352,459.1 503.2,706.1 533.1,706.1 "/>
<polyline id="XMLID_207_" class="st2" points="321.8,548.1 321.8,548.1 322,591.8 322,591.8 321.8,548.1 "/>
<polyline id="XMLID_208_" class="st3" points="296.5,589.4 129.1,862.6 129.1,906.7 296.7,633.1 296.5,589.4 "/>
<path id="XMLID_212_" class="st2" d="M129.1,862.6l-25.5,41.6v44.2l25.5-41.6V862.6 M321.8,548.1l-25.3,41.3l0.2,43.7l25.3-41.3
	L321.8,548.1"/>
<polyline id="XMLID_213_" class="st2" points="322,591.8 322,591.8 296.7,633.1 129.1,906.7 103.7,948.3 103.7,948.3 322,591.8 "/>
<path id="XMLID_243_" class="st2" d="M500.8,702.2l-13.1,21.4l0,0l13.2-21.2L500.8,702.2 M368.1,516.5l-3.6,5.9L368.1,516.5"/>
<polyline id="XMLID_244_" class="st3" points="392.5,525.3 379.4,546.8 472.8,699.2 485.9,677.8 392.5,525.3 "/>
<path id="XMLID_297_" class="st2" d="M485.9,677.8l-13.1,21.4l14.9,24.4l13.1-21.4L485.9,677.8 M377.6,500.9l-9.6,15.6l-3.6,5.9
	l14.9,24.4l13.2-21.5L377.6,500.9"/>
<polyline id="XMLID_298_" class="st2" points="377.6,500.9 377.6,500.9 392.5,525.3 485.9,677.8 500.8,702.2 501,702.4 501,702.4 
	377.6,500.9 "/>
<path id="XMLID_301_" class="st2" d="M636.2,480.1l-13.2,21.7l0.1,0.2l0.1,0.1L636.2,480.1 M513.2,279.5l-13,21.3L513.2,279.5
	L513.2,279.5"/>
<polyline id="XMLID_302_" class="st3" points="528.1,303.9 515.1,325.2 608,477.4 621.2,455.7 528.1,303.9 "/>
<path id="XMLID_305_" class="st2" d="M621.2,455.7L608,477.4l14.9,24.4l13.2-21.7L621.2,455.7 M513.2,279.5l-13,21.3l14.9,24.4
	l13.1-21.3L513.2,279.5"/>
<polyline id="XMLID_306_" class="st3" points="870.9,95.1 705.1,367 705.1,408.8 870.9,138.3 870.9,95.1 "/>
<path id="XMLID_309_" class="st2" d="M705.1,367l-15.5,25.4l-10,16.4l-0.1,41.6l25.5-41.6L705.1,367 M896.3,53.4l-25.5,41.8v43.1
	l25.5-41.6L896.3,53.4"/>
<polyline id="XMLID_310_" class="st2" points="896.3,53.4 689.7,392.4 705.1,367 870.9,95.1 896.3,53.4 896.3,53.4 "/>
<path id="XMLID_313_" class="st2" d="M321.3,408.9l0,0.4l21.2,34.3L321.3,408.9 M320.1,6.9l0,0.3l22.5,36.7L320.1,6.9"/>
<polyline id="XMLID_314_" class="st3" points="320.2,56.2 321.2,359.9 342.5,394.8 342.5,92.7 320.2,56.2 "/>
<path id="XMLID_317_" class="st2" d="M321.2,359.9l0.2,49l21.2,34.7v-48.8L321.2,359.9 M320.1,7.2l0.2,49l22.3,36.5V43.9l0,0
	L320.1,7.2"/>
<path id="XMLID_320_" class="st2" d="M656.9,957.2L656.9,957.2l22,35.9L656.9,957.2 M656.9,557.3L656.9,557.3l22.5,36.7v0
	L656.9,557.3"/>
<polyline id="XMLID_321_" class="st3" points="656.9,606.1 656.9,908.4 678.9,944.4 679.3,642.7 656.9,606.1 "/>
<path id="XMLID_324_" class="st2" d="M656.9,908.4v48.8l22,35.9l0.1-48.7L656.9,908.4 M656.9,557.3v48.8l22.4,36.6l0.1-48.7
	L656.9,557.3"/>
</svg>
