<?xml version="1.0" encoding="utf-8"?>
<!-- Generator: Adobe Illustrator 19.0.0, SVG Export Plug-In . SVG Version: 6.00 Build 0)  -->
<svg version="1.1" id="Layer_1" xmlns="http://www.w3.org/2000/svg" xmlns:xlink="http://www.w3.org/1999/xlink" x="0px" y="0px"
	 viewBox="0 0 792 792" style="enable-background:new 0 0 792 792;" xml:space="preserve">
<style type="text/css">
	.st0{fill:#231F20;}
	.st1{fill:#A97D51;}
	.st2{fill:#BE202E;}
	.st3{fill:#9A6D47;}
	.st4{fill:#89684A;}
	.st5{fill:#7E5D42;}
	.st6{fill:#493930;}
	.st7{fill:#8B5F3D;}
	.st8{fill:#98724E;}
	.st9{fill:#7E583B;}
	.st10{fill:#E74450;}
	.st11{fill:#F89521;}
	.st12{fill:#D9D6D6;}
	.st13{fill:#AC292F;}
	.st14{fill:#CB454C;}
	.st15{fill:#D7842A;}
	.st16{fill:#8B6545;}
	.st17{fill:#7D6047;}
	.st18{fill:#73563F;}
	.st19{fill:#45362F;}
	.st20{fill:#FFFFFF;}
</style>
<g id="XMLID_91_">
	<path id="XMLID_93_" class="st0" d="M627.2,164.2c-22.3,0-37,7-47.5,18.8c-10.3-48.8-27.5-79-27.5-79l-127.8-2.3L419.9,51
		c-0.3-4-3.8-7-7.8-6.8c-4.1,0.2-7.3,3.7-7.1,7.8l2.4,49.4l-160.4-2.8c58.6,173.3,1.3,355.2,1.3,355.2c4.2-0.9,8.3-1.9,12.3-3
		c1-0.3,2-0.6,3-0.8c0,0.4,0.1,0.8,0.1,1.2c0.1,1.7,0.2,3.4,0.3,5c0.1,1.5,0.2,3,0.4,4.4c0.2,1.9,0.3,3.7,0.5,5.6
		c0.1,0.9,0.2,1.8,0.3,2.8c0.9,7.4,2,14.5,3.5,21.2c0.1,0.6,0.3,1.3,0.4,1.9c0.4,2,0.9,3.9,1.4,5.8c0.1,0.5,0.2,1,0.3,1.4L148.3,566
		l-1.5,0.8c-0.1-0.1-0.2-0.1-0.3-0.2l-5.2-3c-1.7-1-3.8-1-5.5-0.1L102.6,581c-2.1,1.1-3.3,3.5-3,5.9c0.3,1.8,0.9,4,2.3,6.7
		c1.4,2.6,2.9,4.5,4.2,5.7c1.8,1.7,4.4,2,6.5,0.9l33.2-17.6c1.7-0.9,2.9-2.6,3-4.6l0.4-6c0-0.1,0-0.2,0-0.3l1.5-0.8L273.3,508
		c0.1,0.4,0.2,0.7,0.3,1c0.4,1.4,0.9,2.8,1.4,4.2c0.6,1.7,1.2,3.4,1.8,5.1c0.3,0.8,0.5,1.5,0.8,2.3c3.1,8,6.6,15.5,10.5,22.5
		l-91.9,80.3l-1.6,1.4l-6.6-2.1c-1.9-0.6-3.9-0.2-5.4,1.1l-32.3,27.2c-1.8,1.5-2.5,3.9-1.8,6c0.7,2,1.9,4.5,4.3,7.4
		c2.4,2.9,4.7,4.5,6.5,5.5c2,1.1,4.5,0.8,6.2-0.7l32.3-27.2c1.5-1.3,2.2-3.2,2-5.1l-1-6.8l1.6-1.4l92.8-76.7
		c9.6,14.8,21.1,27.2,34,37.2l-71.5,93.7l-1.4,1.9l-8-1.1c-1.9-0.3-3.9,0.5-5.1,2L210,723.1c-1.5,1.8-1.7,4.2-0.7,6.2
		c1.1,2.1,3,4.9,6.6,7.8c3.5,2.9,6.6,4.3,8.9,5c2.2,0.7,4.5,0,6-1.8l31.3-37.6c1.2-1.5,1.6-3.5,1-5.4l-2.5-7.6l1.7-2.1l74.5-92.1
		c32.1,21.1,71.4,29.3,110.9,26.4c62-3.4,122-32.6,147.8-75.3c0.1-0.1,0.1-0.2,0.2-0.4c11-16.2,18.7-34.6,23.3-54.7
		c23.5-91.4-29.4-168.1-26.7-216.1c0.7-7.6,2.6-14.1,5.3-19.4c2.4-4.2,5.5-8,9.8-11.4c1.1-0.7,2.2-1.4,3.4-2
		c8.7-4.2,18-3.7,26.3,1.2c3,1.9,5.8,4.3,8.4,7c7.1,7.7,12.8,19.4,15.6,35C713.7,259.2,690.1,164.2,627.2,164.2"/>
	<path id="XMLID_96_" class="st0" d="M627.5,179.2l-3.3,0l-0.8,0l-0.6,0l-1.3,0c-0.4,0-0.8,0-1.3,0l-1.4,0.1
		c-0.9,0.1-1.8,0.1-2.7,0.3c-0.9,0.1-1.8,0.2-2.6,0.4c-0.8,0.2-1.7,0.3-2.5,0.5c-0.8,0.2-1.7,0.3-2.5,0.6c-0.8,0.2-1.6,0.4-2.4,0.7
		c-0.8,0.3-1.6,0.5-2.3,0.8c-0.7,0.3-1.5,0.6-2.2,0.9c-0.7,0.3-1.5,0.7-2.2,1.1l-1.1,0.6l-1,0.6c-0.7,0.4-1.4,0.9-2,1.3
		c-0.7,0.4-1.3,1-1.9,1.5c-0.7,0.5-1.2,1.1-1.9,1.6c-0.6,0.6-1.2,1.2-1.8,1.7l-1.1,1c-5.3,5-13.7,4.8-18.7-0.6
		c-1.8-1.9-2.9-4.2-3.4-6.7l-0.9-5c-0.3-1.7-0.6-3.3-1-5l-1.1-4.9c-0.3-1.7-0.7-3.3-1.1-4.9l-1.2-4.9l-1.3-4.9
		c-0.4-1.6-0.9-3.3-1.4-4.9c-0.5-1.6-0.9-3.2-1.5-4.8l-1.6-4.8c-0.5-1.6-1.1-3.2-1.7-4.8c-0.6-1.6-1.1-3.2-1.7-4.7
		c-0.6-1.6-1.2-3.1-1.8-4.7c-0.6-1.6-1.3-3.1-1.9-4.6c-0.7-1.5-1.3-3.1-2-4.6c-0.7-1.5-1.4-3-2.1-4.5l-1.1-2.2l-0.6-1l-0.5-0.9
		l9.9,5.9c-10.7-0.1-21.3,0-32,0.3l-16,0.3c-5.3,0.1-10.7,0.2-16,0.1c-5.3,0-10.7-0.1-16-0.2c-5.3-0.1-10.7-0.3-16-0.5
		c-5.3-0.2-10.6-0.4-16-0.6c-5.3-0.2-10.6-0.5-16-0.8l-0.9-0.1c-6.2-0.3-11.1-5.4-11.4-11.5l-1.5-30.9l-0.8-15.4l-0.2-3.9l0-0.5
		l0-0.1l0-0.1l0,0c0.1,0.7,0.1,0.6,0.1,0.5c0,0,0-0.1,0,0l0-0.2l-0.1-0.5c0,0.2,0,0.4,0.1,0.6l0.1,0.4l0.1,0.2
		c0,0.1,0.1,0.2,0.2,0.4c0.6,0.9,1.6,1.5,2.7,1.4l0.2,0l0,0l0,0c0,0,0.1,0,0.3,0c0.2,0,0.5,0,0.2,0l-0.1,0l-0.2,0l-0.2,0l-0.1,0
		l0.1,0c0.2,0,0.4,0,0.5-0.1l0.3-0.1l0.2-0.1c0.1,0,0.2-0.1,0.4-0.2c0.4-0.3,0.8-0.6,1-1.1c0.2-0.4,0.4-0.9,0.4-1.4l0-0.2l0-0.1
		l0,0.2l0,1l0.1,1.9l0.4,7.7c0.1,2.6,0.2,5.1,0.4,7.7c0.3,5.1,0.6,10.3,0.9,15.4c0.3,5.1,0.7,10.3,1.1,15.4
		c0.4,5.8-3.9,10.8-9.7,11.3c-0.2,0-0.4,0-0.6,0l-0.6,0l-10,0.1l-10,0.2l-10,0.2l-10,0.3c-13.4,0.4-26.8,1-40.1,1.4
		c-6.7,0.2-13.4,0.5-20.1,0.7c-6.7,0.2-13.4,0.4-20.1,0.5l-10,0.2l-10,0.1l-10,0l-10,0L263.4,93c1.2,3.7,2.4,7.4,3.6,11.1l1.8,5.6
		l1.5,5.6c1,3.8,2,7.5,2.9,11.3c0.8,3.8,1.6,7.6,2.4,11.4l1.1,5.7l0.9,5.8c0.6,3.8,1.2,7.7,1.7,11.5l1.3,11.5
		c0.2,1.9,0.5,3.8,0.6,5.8l0.5,5.8c0.3,3.8,0.7,7.7,1,11.5l0.8,11.5l0.2,2.9l0.1,2.9l0.3,5.7c0.2,3.8,0.5,7.7,0.6,11.5l0.4,11.5
		l0.1,11.5c0.1,3.8,0,7.6-0.1,11.5c-0.1,3.8-0.1,7.6-0.2,11.5l-0.4,11.4l-0.6,11.4c-0.1,3.8-0.5,7.6-0.7,11.4l-0.4,5.7l-0.5,5.7
		c-0.6,7.6-1.4,15.2-2.2,22.7l-1.3,11.3l-1.5,11.3c-0.5,3.8-1,7.5-1.5,11.3c-0.5,3.8-1,7.6-1.4,11.3c-1,7.6-1.9,15.2-3.1,22.7
		c-1.2,7.6-2.6,15.1-4.3,22.6c-0.8,3.8-1.7,7.5-2.6,11.3c-0.4,1.9-0.9,3.8-1.4,5.7l-0.7,2.9l-0.8,3l-16-17.5l7.3-2l3.6-1l0.5-0.1
		l0.4-0.1l0.9-0.3l1.9-0.6c7.3-2.2,14.9,1.9,17.1,9.2c0.3,0.9,0.4,1.8,0.5,2.7l0.1,1l0.5,5.8l0.3,3.1l0.3,2.8l0.4,3.1l0.4,2.9
		l0.4,2.9l0.5,2.9c0.6,3.9,1.3,7.7,2.1,11.5l0.6,2.8l0.3,1.5l0,0.2l0,0.1l0,0l0,0c0,0.1,0,0,0-0.1c0-0.1,0-0.2,0-0.2l0,0l0.1,0.4
		l0.2,0.8l1.4,5.8l0,0c1.7,6.7-1.5,13.6-7.3,16.8c-5.1,2.9-10.3,5.7-15.5,8.5c-5.2,2.8-10.3,5.6-15.5,8.4
		c-5.2,2.7-10.4,5.5-15.7,8.1l-7.9,4l-7.9,3.9c-10.6,5.2-21.2,10.3-31.6,15.7c-5.2,2.7-10.4,5.4-15.6,8.2
		c-5.2,2.8-10.3,5.6-15.4,8.6l-12.8-0.6c0.7,0.4,0,0-0.2-0.1l-0.9-0.5l-1.7-1l-1.7-1l-0.2-0.1l-0.1-0.1c-0.2-0.1,0,0,0.1,0.1
		c0.1,0.1,0.2,0.1,0.2,0.1l0,0l-0.1,0l-0.2-0.1c0.1,0.1,0.3,0.2,0.5,0.3l0.4,0.2l0.3,0.1c0.2,0.1,0.4,0.1,0.6,0.2
		c1.6,0.4,3.3,0.3,4.9-0.4l-3.2,1.9c-4.6,2.7-9.2,5.4-13.7,8.1l-13.7,8.2l-0.9,0.5l-0.4,0.3l-0.2,0.1l-0.1,0l0,0
		c0.6-0.4,0.6-0.3,0.5-0.3c0,0-0.1,0,0,0l-0.1,0.1l-0.2,0.1l0,0l0.2-0.1l0.3-0.2c0.2-0.1,0.4-0.3,0.6-0.4c0.1-0.1,0.2-0.2,0.3-0.2
		c0.4-0.3,0.8-0.7,1.2-1.1c1.4-1.6,2.3-3.7,2.3-5.9c0-0.3,0-0.6,0-0.8c0-0.1,0-0.3,0-0.4l0-0.2c0-0.2,0-0.2,0-0.1c0,0,0,0,0,0l0,0
		l0,0.1l0,0.2l0-0.1l0,0l0.2,0.4c0.2,0.4,0.4,0.8,0.7,1.3c-0.1-0.2-0.1-0.1-0.1-0.1c0,0,0,0,0,0l0,0l0,0.1l0.1,0.1l0.1,0.2
		c0.1,0.1,0,0.1,0.1,0.1l0.2,0.3c0.1,0.2,0.3,0.4,0.4,0.5c0.1,0.1,0.2,0.2,0.3,0.3l0.1,0.1l0,0l0,0c-0.1-0.1,0,0,0,0
		c0.1,0.1,0.1,0.1-0.4-0.4l0.1,0.1l0.2,0.2l0,0l-0.1-0.1l-0.3-0.2c-0.2-0.2-0.4-0.3-0.6-0.5c-1.9-1.4-4.3-1.9-6.5-1.7
		c-1.1,0.1-2.2,0.4-3.2,0.9l1.4-0.8c4.7-2.5,9.4-5,14.1-7.4l7.1-3.6l7.1-3.6l1.8-0.9l0.9-0.4l0.4-0.2l0.2-0.1l0.1,0l0,0
		c0,0-0.1,0.1-0.2,0.1c-0.2,0.1-0.4,0.2-0.2,0.1l0.1-0.1l0.1-0.1l0.1,0l0,0l-0.1,0c-0.2,0.1-0.4,0.3-0.6,0.4l-0.4,0.3l-0.3,0.3
		c-0.4,0.3-0.8,0.7-1.1,1.1c-0.7,0.8-1.2,1.8-1.6,2.8c-0.2,0.5-0.3,1-0.4,1.6c0,0.3-0.1,0.5-0.1,0.8l0,0.2l0-0.1l0-0.2l0.2-2l0.2-2
		l0.1-1l0.1-0.5l0-0.1l0,0c0,0,0,0.1,0,0.2c0,0.2,0,0.4,0,0.2l0-0.1l0-0.2c-0.2-5.3,2.8-10,7.4-12.1l0.5-0.3l31.6-14.8
		c10.5-4.9,21-10,31.4-15.1c5.2-2.6,10.4-5.2,15.6-7.8c5.2-2.6,10.3-5.3,15.5-8l15.4-8.1l15.4-8.2c6.2-3.3,13.8-0.9,17.1,5.2
		c0.3,0.6,0.6,1.2,0.8,1.8l0.2,0.7l1.5,4.3l0.2,0.6l0,0.1l0,0c-0.1-0.4-0.1-0.3-0.1-0.3c0,0,0,0,0,0l0,0l0,0l0,0.1l0.1,0.3l0.4,1.1
		l0.8,2.2l0.4,1.1l0.1,0.1l0,0c0,0,0-0.1-0.1-0.2c0-0.1-0.1-0.2,0-0.1l0,0l0,0l0,0.1l0.1,0.3l0.2,0.6l0.4,1.1l0.4,1l0.9,2l0.9,2
		c2.4,5.4,5.1,10.6,8.1,15.6c3.3,5.5,2.1,12.3-2.4,16.5l-0.6,0.5l-22.8,21.1c-7.6,7-15.2,14-22.8,21l-11.5,10.4l-11.6,10.4
		c-3.9,3.4-7.7,6.9-11.6,10.3c-3.9,3.4-7.8,6.8-11.7,10.2l-0.1,0c-4.4,3.8-10.2,4.8-15.4,3.1l-4.2-1.4l-2.1-0.7l-0.3-0.1l-0.1,0
		c-0.1,0,0.1,0,0.3,0.1c0.2,0.1,0.4,0.1,0.2,0.1l0,0l-0.1,0l-0.1,0l0,0l0.1,0l0.2,0.1c0.3,0.1,0.6,0.1,0.9,0.2
		c0.7,0.1,1.3,0.2,2,0.2c1.3,0,2.7-0.3,3.9-0.8c0.6-0.3,1.2-0.6,1.7-1c0.3-0.2,0.5-0.4,0.8-0.6l0.1-0.1l-0.1,0l-0.1,0.1l-0.2,0.2
		l-3.4,2.8c-4.5,3.7-9,7.4-13.6,11.1l-13.7,11l-1.7,1.4l-0.1,0c-0.2,0.2,0,0,0.2-0.1c0.1-0.1,0.3-0.3,0.2-0.2l0,0l-0.1,0.1l-0.1,0.1
		l-0.1,0l0,0l0.1-0.1c0.2-0.2,0.4-0.4,0.6-0.6l0.4-0.5c0.4-0.5,0.7-1,1-1.5c1.1-2.1,1.5-4.8,0.7-7.4l-0.1-0.2l-0.1-0.2l0,0.1
		l0.1,0.3l0,0l0.1,0.2c0.1,0.2,0.1,0.4,0.2,0.6c0.2,0.5,0.6,1.1,1,1.7c0.4,0.5,0.4,0.5,0.7,0.8c0.2,0.3,0.4,0.5,0.6,0.7
		c0.2,0.2,0.4,0.4,0.5,0.5l0.2,0.2l0.1,0.1l0,0l0,0l0,0c-0.7-0.3-0.6-0.3-0.5-0.3c0,0,0.1,0,0,0l0.1,0.1l0.1,0.1l0.1,0l0,0l0,0
		c-0.2-0.1-0.5-0.2-0.8-0.3l-0.4-0.1l-0.2-0.1c-0.1,0-0.3-0.1-0.4-0.1c-0.6-0.2-1.2-0.2-1.8-0.2c-1.2,0-2.3,0.1-3.3,0.5
		c-0.5,0.2-1,0.4-1.5,0.7c-0.2,0.1-0.5,0.3-0.7,0.4l-0.3,0.2l-0.1,0.1l-0.1,0.1l0.1,0l1.7-1.3l13.9-10.7l13.9-10.7l3.5-2.7l0.2-0.2
		l0.1-0.1l0.1,0c0,0,0,0,0,0c0,0,0.1-0.1-0.3,0.2l0,0l0.2-0.2l-0.1,0.1l-0.2,0.2l-0.2,0.2l-0.1,0.1l-0.2,0.3
		c-0.1,0.2-0.2,0.4-0.4,0.5c-0.4,0.7-0.7,1.6-0.9,2.4c-0.1,0.4-0.1,0.8-0.1,1.3c0,0.2,0,0.4,0.1,0.6l0,0.2l0,0.1l0-0.1l0-0.3
		l-0.2-2.2l-0.5-4.4l-0.1-0.9c-0.4-4,1.3-7.7,4.3-10l12.1-9.3l12.1-9.4c4-3.2,8-6.3,12-9.5c4-3.2,8-6.4,11.9-9.6
		c4-3.2,7.9-6.4,11.9-9.7c3.9-3.3,7.8-6.6,11.6-10c3.8-3.4,7.6-6.8,11.4-10.3l5.6-5.2l5.6-5.3c4.6-4.4,11.9-4.1,16.3,0.5
		c0.3,0.3,0.5,0.6,0.8,0.9l1.1,1.4c1.2,1.6,2.4,3.1,3.6,4.6c1.2,1.5,2.5,3,3.8,4.4c1.3,1.4,2.6,2.9,3.9,4.3c1.3,1.4,2.7,2.8,4,4.1
		c1.4,1.3,2.7,2.7,4.1,4c1.4,1.3,2.8,2.6,4.2,3.8c1.4,1.2,2.9,2.5,4.4,3.7c1.5,1.2,3,2.4,4.5,3.6c6.2,4.8,7.3,13.7,2.6,20l0,0
		c-3,4-6.1,8-9.1,11.9c-3.1,4-6.2,7.9-9.3,11.8c-6.2,7.8-12.6,15.6-19,23.3c-6.4,7.8-12.7,15.5-19,23.3c-3.1,3.9-6.2,7.8-9.3,11.8
		l-4.6,5.9c-1.5,2-3,4-4.6,6c-2.7,3.5-6.9,5.1-11,4.6l-0.1,0l-4.9-0.7l-2.5-0.3l-0.6-0.1c0.1,0,0,0,0,0c-0.1,0-0.1,0,0.4,0l0,0
		l-0.1,0l-0.2,0l-0.1,0l0.1,0l0.3,0l0.5,0l0.3,0c0.2,0,0.5,0,0.7-0.1c0.9-0.2,1.8-0.5,2.5-1.1c0.4-0.3,0.7-0.6,1-0.9l0.1-0.1
		l-0.1,0.1l-0.2,0.2l-0.4,0.5l-3.1,3.9c-2,2.6-4.1,5.2-6.1,7.9c-2,2.7-3.9,5.3-5.9,8c-1.9,2.7-3.9,5.4-5.8,8.2l-5.7,8.2l-1.4,2.1
		l-0.2,0.3l-0.1,0.1l0,0.1c-0.2,0.2,0,0,0.1-0.2c0.1-0.1,0.2-0.3,0.2-0.3l0,0l-0.2,0.3l0,0l0,0l0.1-0.2l0.3-0.4l0.4-0.6
		c0.1-0.1,0.2-0.3,0.3-0.5c0.2-0.3,0.3-0.6,0.5-0.9c0.6-1.3,0.8-2.7,0.8-4.2c0-0.7-0.1-1.4-0.3-2.1c-0.1-0.3-0.2-0.7-0.3-1
		c-0.1-0.2-0.1-0.3-0.2-0.5l0-0.1c0,0-0.2-0.3-0.1-0.2l0,0.1l0.1,0.1c0.2,0.1,0.7,0.5,1.2,0.9c0.5,0.4,1.2,0.8,1.9,1.3
		c1.5,0.9,2.9,1.4,3.2,1.3l0,0l0,0c-0.1,0,0,0,0,0c0.1,0,0.2,0-0.6-0.2l0,0l0.2,0l0.2,0l0,0l-0.3-0.1c-0.4-0.1-0.7-0.2-1.1-0.2
		c-0.9-0.2-1.7-0.2-2.6-0.2c-1.7,0.1-3.4,0.5-4.9,1.3c-0.8,0.4-1.5,0.9-2.2,1.5c-0.3,0.3-0.6,0.6-0.9,0.9l-0.2,0.2l-0.1,0.1l0-0.1
		l0.2-0.2l1.5-2c4.1-5.3,8.3-10.4,12.5-15.5l6.4-7.6l6.5-7.5l3.3-3.7l0.4-0.5l0.2-0.2l0.1-0.1l0.1-0.1l0,0c-0.1,0.1,0,0,0,0
		c0.1-0.1,0.1-0.1-0.3,0.4l0.2-0.2c0.1-0.1-0.1,0.1-0.2,0.3l-0.3,0.5c-0.2,0.4-0.3,0.5-0.4,0.7l-0.3,0.6c-0.8,1.6-1.2,3.3-1.2,5.1
		c0,0.9,0.1,1.7,0.2,2.6c0.1,0.4,0.2,0.8,0.3,1.3l0.1,0.2l0,0.1l0-0.1l-0.1-0.3l-0.7-2.4l-1.4-4.8l-0.4-1.4
		c-1.5-5.4-0.1-11,3.4-14.9l10-11.3l10.1-11.3c6.7-7.5,13.4-15.1,19.9-22.8c3.3-3.8,6.5-7.7,9.8-11.6c3.2-3.9,6.4-7.8,9.6-11.7
		c3.2-3.9,6.3-7.9,9.4-11.8c3.1-4,6.2-7.9,9.3-11.9c4.4-5.8,12.4-7.2,18.5-3.6l1,0.6l3.7,2.2l1.8,1.1l1.9,1l3.8,2l3.9,1.8l1.9,0.9
		c0.6,0.3,1.3,0.5,2,0.8l4,1.6c1.3,0.5,2.7,0.9,4,1.4c1.3,0.5,2.7,1,4.1,1.3c10.9,3.4,22.1,5.7,33.5,6.9c5.7,0.7,11.4,1,17.2,1.3
		c2.9,0,5.8,0.2,8.7,0.1l4.3-0.1l4.3-0.2l2.2-0.1l2.4-0.1l2.4-0.1c0.8,0,1.6-0.1,2.3-0.1l4.2-0.3l4.3-0.4c5.8-0.6,11.6-1.4,17.4-2.5
		c11.5-2.1,22.9-5.1,33.8-9.2c10.9-4.1,21.5-9.3,31.1-15.5c9.6-6.3,18.4-13.6,25.7-22c3.6-4.2,6.9-8.6,9.6-13.2l2-3.5l1.6-2.6l0.6-1
		l0.3-0.5l0.2-0.4c1.2-2.2,2.6-4.7,3.8-7.2c4.9-10,8.7-20.6,11.5-31.5l1-4.1l1-4.3l1.1-4.6c0.3-1.5,0.7-3.1,0.9-4.4
		c0.2-1.3,0.5-2.6,0.7-4l0.4-2l0.3-2.1l0.6-4.2c0.3-1.4,0.3-2.8,0.5-4.2c1.3-11.3,1.9-22.8,1.6-34.5c-0.3-11.7-1.3-23.6-3.1-35.5
		c-1.8-12-4.3-24-7.4-36.1c-3-12.1-6.6-24.2-10-36.7c-1.7-6.3-3.3-12.7-4.6-19.3c-1.3-6.7-2.3-13.6-2.4-21.1l0-2.8l0.1-1.8l0.1-1.4
		c0.2-1.9,0.4-3.7,0.7-5.6c0.7-3.8,1.6-7.6,3-11.4c0.4-1,0.7-1.9,1.1-2.9c0.2-0.5,0.4-1,0.6-1.4l0.9-1.7c0.6-1.1,1.1-2,1.7-2.9
		c0.6-0.9,1.2-1.8,1.8-2.6c2.5-3.4,5.3-6.5,8.4-9.2l0.1-0.1l0.8-0.6c1-0.7,2-1.4,3.2-2.1c0.6-0.3,1.1-0.7,1.7-1l0.1-0.1l0.1,0
		l0.4-0.2l0.1-0.1l0.3-0.1l0.6-0.3l0.6-0.3l1-0.4c0.7-0.3,1.4-0.6,2-0.8c1.2-0.4,2.4-0.9,3.7-1.2c2.5-0.7,5.1-1.2,7.7-1.4
		c2.6-0.2,5.3-0.2,8,0.1c2.6,0.3,5.2,0.8,7.7,1.6c2.5,0.8,4.9,1.7,7.1,2.9l0.8,0.4l0.4,0.2l0.8,0.5c0.2,0.1,1.1,0.6,1.5,0.9
		c1,0.6,1.9,1.3,2.9,2c1.9,1.4,3.6,2.8,5.2,4.3c0.4,0.4,0.8,0.7,1.2,1.1l0.3,0.3l0.1,0.1l0,0l0.5,0.6l0.1,0.1l0.4,0.5l0.9,0.9
		l1.3,1.4c0.9,1,1.5,1.8,2.2,2.7c0.7,0.9,1.3,1.8,2,2.7c1.2,1.8,2.4,3.7,3.4,5.5c1.1,1.9,2,3.7,2.9,5.6c0.5,0.9,0.9,1.9,1.3,2.9
		c0.4,1,0.8,1.9,1.2,2.9c0.4,1,0.7,1.9,1.1,2.9c0.3,1,0.7,1.9,1,2.9c0.6,1.9,1.1,3.9,1.6,5.8c0.5,1.9,0.9,3.9,1.3,5.8l-24.8-12.3
		c1-0.6,2-1.2,3-1.8c0.9-0.7,1.8-1.4,2.8-2c0.9-0.8,1.7-1.5,2.5-2.3c0.8-0.8,1.5-1.7,2.3-2.5c0.7-0.9,1.4-1.8,2-2.8
		c0.6-1,1.2-2,1.8-3l0.8-1.6c0.2-0.5,0.6-1,0.8-1.6l0.6-1.7c0.2-0.6,0.5-1.1,0.6-1.7c0.7-2.4,1.3-4.8,1.7-7.4
		c0.4-2.5,0.6-5.2,0.6-7.8c0-1.3,0.1-2.7-0.1-4c-0.1-1.3-0.1-2.7-0.4-4c-0.3-2.7-0.8-5.4-1.5-8c-1.4-5.3-3.4-10.5-6.1-15.2
		c-2.7-4.7-6-9-9.8-12.5c-3.8-3.5-8.1-6.3-12.8-8.3l-1.8-0.7l-0.9-0.4c-0.3-0.1-0.6-0.2-0.9-0.2l-1.8-0.5c-0.6-0.2-1.2-0.4-1.9-0.4
		c-1.3-0.2-2.5-0.5-3.8-0.6c-1.3-0.1-2.6-0.2-3.9-0.3L627.5,179.2 M627.2,149.2c2.2,0,4.3,0.1,6.5,0.2c2.2,0.1,4.4,0.5,6.5,0.8
		c1.1,0.1,2.2,0.4,3.2,0.6l3.2,0.7c0.5,0.1,1.1,0.2,1.6,0.4l1.6,0.5l3.2,1c4.2,1.5,8.2,3.4,12,5.6c3.8,2.2,7.4,4.8,10.8,7.6
		c6.7,5.6,12.3,12.2,16.9,19.4c2.3,3.6,4.3,7.3,6.1,11.2c1.8,3.8,3.3,7.8,4.5,11.8c1.2,4,2.2,8.2,2.8,12.4c0.7,4.2,1.1,8.4,1.1,12.7
		c0.1,4.3-0.2,8.6-0.7,13l-0.2,1.6l-0.3,1.6l-0.6,3.3c-0.2,1.1-0.5,2.2-0.8,3.2l-0.9,3.2c-0.3,1.1-0.7,2.1-1.1,3.2l-1.2,3.2
		c-0.9,2.1-1.9,4.2-2.9,6.2c-1.1,2-2.4,4-3.6,6c-1.3,1.9-2.8,3.8-4.2,5.6c-1.6,1.7-3.1,3.5-4.8,5.2c-1.7,1.6-3.5,3.1-5.3,4.6
		c-1.9,1.4-3.8,2.7-5.7,4c-2,1.2-4,2.3-6,3.4c-8.2,4.5-18.5,1.5-22.9-6.7c-0.9-1.6-1.5-3.3-1.8-5l-0.1-0.5c-0.3-1.4-0.5-2.8-0.8-4.1
		c-0.3-1.4-0.6-2.7-1-4c-0.2-0.7-0.3-1.3-0.5-2c-0.2-0.7-0.4-1.3-0.6-1.9c-0.2-0.6-0.4-1.3-0.6-1.9c-0.2-0.6-0.5-1.2-0.7-1.8
		c-0.5-1.2-1-2.4-1.5-3.5c-0.5-1.1-1.1-2.2-1.7-3.2c-0.3-0.5-0.6-1-0.9-1.5c-0.3-0.4-0.7-1-0.9-1.3l-0.3-0.5l-0.8-1l-0.4-0.5
		l-0.1-0.1c0.1,0.1,0,0,0,0c-0.1-0.1-0.1-0.2,0.5,0.5l0,0l0,0l-0.1-0.1l-0.1-0.2l-0.6-0.7c-0.8-0.9-1.6-1.7-2.4-2.4
		c-0.4-0.4-0.8-0.7-1.2-1c-0.3-0.2-0.2-0.2-0.6-0.5l-0.1-0.1l-0.1,0l0,0c-0.3-0.2,0,0,0.2,0.1c0.2,0.1,0.4,0.2,0.3,0.2l0,0l-0.1-0.1
		l-0.3-0.2c-0.7-0.5-1.4-0.9-2.1-1.2c-0.7-0.4-1.4-0.6-2.1-0.8c-0.7-0.2-1.4-0.3-2.2-0.4c-0.7-0.1-1.5-0.1-2.3,0
		c-0.4,0-0.8,0.1-1.2,0.2c-0.2,0-0.2,0-0.4,0.1c-0.1,0-0.1,0-0.2,0l-0.6,0.2l-0.6,0.2l-0.3,0.1l-0.1,0.1c0.1,0,0,0,0,0
		c-0.1,0-0.1,0.1,0.4-0.2l0,0l0,0l0,0c-0.2,0.1-0.3,0.1-0.5,0.2c-0.3,0.1-0.7,0.3-1.2,0.6l1-0.7c-1.8,1.3-3.4,2.7-4.8,4.2
		c-0.4,0.4-0.7,0.8-1,1.2c-0.3,0.4-0.7,0.9-0.9,1.1c-0.1,0.1-0.2,0.3-0.3,0.5l-0.2,0.2c-0.2,0.3,0,0.1,0.1-0.2
		c0.1-0.2,0.2-0.3,0.2-0.3l0,0.1c-0.1,0.2-0.3,0.4-0.4,0.7c-0.3,0.5-0.5,0.9-0.8,1.4c-1,2-1.8,4.2-2.4,6.6c-0.3,1.2-0.6,2.5-0.8,3.7
		l-0.1,0.4c0,0.1-0.1,0.3-0.1,0.5l-0.1,0.6l0,0.3l0,0.1c0-0.1,0,0,0,0.1c0,0.1,0,0.2,0-0.5l-0.1,1.9c-0.3,5.1,0.2,10.7,1.1,16.4
		c0.9,5.7,2.3,11.6,3.9,17.4c3.2,11.8,7.2,23.7,11.4,35.7c4.1,12,8.3,24.3,11.9,36.9c3.6,12.6,6.6,25.6,8.4,39
		c0.3,1.7,0.4,3.4,0.6,5c0.2,1.7,0.4,3.4,0.5,5.1l0.3,5.1c0.1,1.7,0.2,3.4,0.2,5.1c0.1,3.4,0.2,6.8,0,10.3l-0.2,5.1l-0.4,5.1
		c-0.2,3.4-0.7,6.9-1.1,10.3l-0.3,2.6l-0.5,2.7l-1,5.3c-0.3,1.9-0.7,3.3-1.1,4.9L637,495l-1.2,4.8c-0.5,1.7-0.9,3.4-1.4,5
		c-3.9,13.3-9.4,26.3-16.7,38.3c-1.8,3-3.7,5.9-5.8,9l-0.4,0.6l-0.3,0.5l-0.7,1l-0.7,1l-0.3,0.5c0,0.1,0.1-0.1,0.2-0.3
		c0.2-0.2,0.3-0.5,0.1-0.2l-0.1,0.1l-0.2,0.3l-3.1,4.5c-4.2,5.9-8.9,11.3-13.9,16.3c-9.9,10-20.9,18.5-32.5,25.8
		c-11.5,7.3-23.6,13.5-36.1,18.6c-3.1,1.3-6.3,2.5-9.4,3.7c-3.2,1.1-6.3,2.3-9.5,3.3c-6.4,2.1-12.9,3.9-19.4,5.5
		c-6.6,1.6-13.2,2.8-19.9,3.8l-5,0.7l-5.2,0.6c-0.9,0.1-1.7,0.2-2.4,0.2l-2.4,0.2l-2.3,0.2l-2.5,0.2l-5.1,0.3l-5.1,0.1l-2.6,0.1
		l-2.6,0l-5.1-0.1c-6.8-0.3-13.6-0.8-20.4-1.8c-6.8-0.9-13.5-2.3-20.2-4c-3.3-0.9-6.6-1.8-9.9-2.9c-1.6-0.5-3.3-1-4.9-1.6l-4.8-1.8
		c-12.9-5-25.1-11.6-36.5-19.4l19.5-3c-3.3,3.8-6.5,7.7-9.7,11.6c-3.2,3.9-6.4,7.8-9.6,11.7c-3.2,3.9-6.3,7.9-9.5,11.8
		c-3.1,4-6.2,7.9-9.3,12c-6.1,8-12.2,16.1-18.1,24.3l-9,12.2l-9,12.2l3-16.2l1.7,4.7l0.9,2.3l0.1,0.3l0.1,0.1l0.2,0.5
		c0.3,0.8,0.5,1.6,0.6,2.5c0.3,1.7,0.5,3.4,0.4,5.1c-0.1,3.4-0.9,6.8-2.5,9.8c-0.2,0.4-0.4,0.8-0.6,1.1c-0.2,0.4-0.4,0.7-0.8,1.2
		l-0.5,0.7l-0.4,0.5l-0.2,0.2l-1.1,1.4l-3.1,3.9l-6.2,7.7l-6.3,7.7c-4.3,5.1-8.5,10.2-13,15.1l-1.7,1.9l-0.9,1
		c-0.6,0.6-1.2,1.2-1.8,1.8c-1.3,1.1-2.7,2.1-4.2,2.9c-3,1.6-6.3,2.6-9.7,2.7c-1.7,0.1-3.3,0-5-0.3c-0.6-0.1-1.1-0.2-1.7-0.3
		l-0.4-0.1l-0.1,0l-0.1,0l-0.1,0l-0.7-0.2l-0.1,0l-0.6-0.2c-6-2.2-10.3-5.3-13.9-8.7c-3.6-3.4-7-7.4-9.7-12.9l-0.1-0.1l0-0.1
		l-0.2-0.4c-0.2-0.3-0.3-0.7-0.5-1.1c-0.3-0.7-0.5-1.4-0.8-2.2c-0.4-1.5-0.7-3-0.8-4.6c-0.2-3.1,0.3-6.2,1.5-9.1
		c0.3-0.7,0.6-1.4,1-2.1c0.2-0.3,0.4-0.7,0.6-1l0.3-0.5l0.4-0.6l0.5-0.6l0.2-0.3l0.1-0.1l0,0l0.2-0.2l0,0c0,0,0.1-0.1,0.2-0.3
		c0.2-0.2,0.3-0.4,0.2-0.2l0.1-0.1l0.1-0.1l0.2-0.2l1.8-1.8l7.1-7.1c2.3-2.4,4.7-4.7,7-7.1c2.3-2.4,4.6-4.8,6.8-7.3
		c2.3-2.4,4.5-4.9,6.7-7.4l3.3-3.7l1-1.2c0.9-1,1.8-1.8,2.9-2.6c2.1-1.5,4.5-2.5,7.1-3c0.6-0.1,1.3-0.2,1.9-0.2c0.3,0,0.6,0,1,0
		l0.5,0l0.6,0l0.6,0l0.4,0l0.7,0.1l0.6,0.1l2.5,0.4l4.9,0.7l-11,4.6c1.5-2,3.1-4,4.6-6l4.5-6c3-4,6-8.1,8.9-12.1
		c5.9-8.1,11.7-16.3,17.5-24.5c5.8-8.2,11.6-16.4,17.5-24.4c2.9-4.1,5.9-8.1,8.9-12.1c3-4,6-8,9.1-12l2.6,20l-2.7-2.2l-2.7-2.2
		c-1.7-1.5-3.5-3.1-5.1-4.7c-1.7-1.6-3.3-3.2-4.9-4.9c-1.6-1.7-3.1-3.4-4.6-5.2c-1.5-1.8-2.9-3.6-4.3-5.4c-1.4-1.8-2.7-3.7-4-5.6
		c-1.3-1.9-2.5-3.8-3.7-5.8c-1.2-1.9-2.4-3.9-3.5-5.9l18.1,2.8l-6.2,4.5l-6.2,4.5c-4.1,3-8.2,6.1-12.2,9.2c-4,3.1-8,6.3-12,9.5
		c-4,3.2-7.8,6.5-11.7,9.8c-3.9,3.3-7.8,6.6-11.7,9.9c-3.9,3.3-7.7,6.7-11.6,10l-11.5,10.1l-11.5,10.2l4.2-10.8l0.8,4.3l0.4,2.2
		l0,0.3l0,0.3l0.1,0.4c0.1,0.6,0.1,1.1,0.1,1.7c0,1.2-0.1,2.3-0.3,3.4c-0.4,2.3-1.2,4.5-2.5,6.4c-0.3,0.5-0.6,1-1,1.4
		c-0.2,0.2-0.4,0.5-0.6,0.7l-0.3,0.3l-0.4,0.4l-0.4,0.4l-0.3,0.3l-0.2,0.2l-0.7,0.6l-3.2,3l-12.9,11.8l-12.9,11.8l-1.6,1.5l-0.2,0.2
		l-0.4,0.3c-0.2,0.2-0.5,0.4-0.7,0.6c-0.5,0.4-1,0.7-1.6,1c-1.1,0.6-2.2,1.2-3.4,1.6c-2.4,0.8-5,1.3-7.6,1.1
		c-1.3-0.1-2.6-0.3-3.9-0.6l-1-0.3l-0.5-0.2l-0.6-0.2c-0.4-0.2-0.9-0.3-1.3-0.5l-0.3-0.1l-0.1-0.1l-0.7-0.4l-0.4-0.2l-0.9-0.5
		c-0.6-0.3-1.1-0.7-1.6-1c-1.1-0.7-2-1.4-3-2.2c-0.9-0.8-1.8-1.5-2.6-2.3c-0.8-0.7-1.7-1.8-2.3-2.4c-1.4-1.6-2.8-3.4-4.1-5.4
		c-0.6-1-1.2-2.1-1.8-3.2c-0.3-0.6-0.6-1.2-0.8-1.8l-0.4-1.1l-0.1-0.3l-0.2-0.4l-0.2-0.5c-0.8-2.7-1.1-5.5-0.8-8.2
		c0.3-2.7,1.1-5.3,2.4-7.7c0.6-1.2,1.4-2.3,2.2-3.3l0.3-0.4l0.4-0.5c0.3-0.3,0.6-0.7,1-1l0.3-0.3l0.1-0.1l0.5-0.5l1.6-1.5l13.2-11.6
		c4.4-3.8,8.8-7.7,13.3-11.5l3.3-2.8l0.6-0.5c0.5-0.4,1.1-0.9,1.7-1.3c1.2-0.8,2.4-1.5,3.7-2c2.6-1.1,5.3-1.7,8.1-1.7
		c1.4,0,2.8,0.1,4.2,0.3c0.4,0.1,0.9,0.2,1.4,0.3l0.7,0.2l1,0.3l2.1,0.7l4.2,1.3l-15.4,3.2c3.9-3.4,7.8-6.8,11.7-10.2
		c3.9-3.4,7.8-6.8,11.8-10.1l11.8-10.1l11.9-10c7.9-6.6,15.9-13.2,23.9-19.8l24-19.7l-3,17c-3.2-6.1-6.1-12.4-8.6-18.7l-0.9-2.4
		l-0.9-2.4l-0.4-1.2l-0.4-1.1l-0.9-2.5l-0.8-2.3l-0.4-1.1l-0.1-0.3l-0.1-0.4l0-0.1l-0.2-0.6l-1.4-4.8l18.1,7.7l-15.6,7.7l-15.6,7.8
		c-5.2,2.6-10.4,5.2-15.5,7.9c-5.2,2.7-10.3,5.4-15.4,8.1c-10.3,5.4-20.4,11-30.6,16.7l-30.4,17l7.9-12.3l0,0.2l0,0.1
		c0-0.2,0,0,0,0.2c0,0.2,0,0.3,0,0.3l0,0l0,0.1l0,0.5l0,1l-0.1,2l-0.1,2l0,0.2l0,0.1l0,0.4c0,0.6-0.1,1.2-0.2,1.8
		c-0.2,1.2-0.5,2.3-0.9,3.5c-0.8,2.3-2,4.4-3.6,6.2c-0.8,0.9-1.6,1.8-2.6,2.5c-0.2,0.2-0.5,0.4-0.7,0.6c-0.2,0.2-0.4,0.3-0.8,0.6
		c-0.3,0.2-0.7,0.5-1,0.7l-0.3,0.2l-3.9,2.2l-7,3.9l-7,3.8c-4.7,2.5-9.4,5-14.1,7.5l-2.1,1.1c-2.2,1.1-4.6,1.8-7,2
		c-4.9,0.5-9.9-0.7-14.1-3.5c-0.3-0.2-0.7-0.5-1-0.8l-0.5-0.4l-0.3-0.2l-0.9-0.8c-0.5-0.4-0.9-0.9-1.3-1.3c-0.8-0.9-1.6-1.8-2.3-2.7
		c-0.7-0.9-1.3-1.8-1.9-2.8c-0.3-0.5-0.5-0.9-0.8-1.4l-0.4-0.8l-0.3-0.6c-0.9-1.8-1.8-3.8-2.4-6c-0.3-1.1-0.6-2.2-0.9-3.4l-0.2-0.9
		l-0.1-0.6l0-0.3l-0.1-0.7l-0.1-0.9c-0.1-0.6-0.1-1.2-0.1-1.8c0-4.9,1.9-9.6,5.1-13.2c0.8-0.9,1.6-1.7,2.6-2.5l0.7-0.5
		c0.3-0.2,0.7-0.5,1-0.7l0.5-0.3l0.3-0.2l0.2-0.1l0.1-0.1l0.5-0.3l0,0l0.1,0l0.2-0.1l0.5-0.2l0.9-0.4l14.5-6.7
		c4.8-2.2,9.7-4.5,14.5-6.8l3.9-1.9c3.9-1.9,8.5-2.3,12.6-1.3c0.5,0.1,1,0.3,1.5,0.5l0.8,0.3l0.4,0.2l0.5,0.2
		c0.3,0.1,0.7,0.3,0.9,0.5l0.2,0.1l0.5,0.3l0.1,0.1l0.2,0.1l1.7,1l1.7,1l0.8,0.5c0.4,0.2,0.3,0.1,1.5,0.9l-12.8-0.6
		c5.2-2.7,10.4-5.5,15.6-8.3c5.2-2.8,10.3-5.7,15.4-8.7c10.2-5.9,20.3-12,30.4-18l7.6-4.5l7.6-4.5c5.1-3,10.2-5.9,15.3-8.8
		c5.1-2.9,10.3-5.7,15.5-8.5c5.2-2.8,10.3-5.6,15.5-8.4l-7.3,16.8l-1.5-6.3l-0.2-0.8l-0.2-1l-0.3-1.6l-0.6-3.3
		c-0.8-4.4-1.5-8.7-2-13.1l-0.4-3.3l-0.4-3.3l-0.2-1.6l-0.1-0.8l0-0.4l0-0.2l0-0.4l-0.2-3.1l-0.2-3.4l-0.2-3.1l-0.3-6.7l17.7,12.9
		l-1.9,0.5l-1,0.2l-0.6,0.1l-0.5,0.1l-4,0.9l-8,1.8l-0.2,0c-7.3,1.6-14.6-3-16.2-10.4c-0.5-2.4-0.4-4.9,0.4-7.2l0.8-2.4l0.8-2.6
		c0.5-1.7,1.1-3.5,1.6-5.2c1-3.5,2-7,3-10.6c1-3.5,1.9-7.1,2.8-10.7l2.7-10.7c1.9-7.1,3.6-14.3,5.3-21.5c0.8-3.6,1.5-7.2,2.2-10.9
		c0.6-3.6,1.2-7.3,1.8-10.9l1.4-11c0.4-3.7,0.8-7.3,1.3-11c0.4-3.7,0.7-7.4,1-11c0.4-3.7,0.6-7.4,0.8-11.1l0.4-5.5l0.3-5.5
		c0.1-3.7,0.4-7.4,0.4-11.1l0.2-11.1l0-11.1c0-3.7-0.2-7.4-0.2-11.1c-0.1-3.7-0.2-7.4-0.4-11l-0.6-11l-0.9-11
		c-0.3-3.7-0.7-7.3-1.1-11c-0.4-3.6-0.8-7.3-1.4-10.9l-1.7-10.9c-0.6-3.6-1.4-7.2-2.1-10.8l-1.1-5.4c-0.4-1.8-0.8-3.6-1.2-5.3
		l-2.5-10.7l-2.8-10.6l-1.4-5.3l-1.5-5.2c-1-3.5-2-7-2.9-10.5c-1.1-3.5-2.1-6.9-3.1-10.4l-1.5-5.2l-1.6-5.2
		c-1.1-3.4-2.2-6.9-3.2-10.3l-0.2-0.8c-2.7-9,2.3-18.5,11.4-21.3c1.8-0.6,3.7-0.8,5.5-0.7l10,0.3l10,0.4l10,0.5l10,0.5
		c6.7,0.4,13.4,0.8,20,1.2c6.7,0.4,13.4,0.9,20,1.4c13.4,0.9,26.7,2,40.1,2.8l10,0.6l10,0.6l10,0.5l10,0.5l-10.9,11.3
		c-0.1-5.1-0.3-10.3-0.4-15.4c-0.2-5.1-0.4-10.3-0.6-15.4c-0.1-2.6-0.2-5.1-0.4-7.7l-0.4-7.7l-0.1-1.9l-0.1-1l0-0.3l0-0.6l0-1.1
		c0.1-3.1,1.1-6.1,2.7-8.7c1.6-2.6,3.9-4.8,6.6-6.2c0.7-0.4,1.4-0.7,2.1-1c0.4-0.1,0.7-0.3,1.1-0.4c0.4-0.1,0.7-0.2,1.2-0.3
		c0.5-0.1,1-0.2,1.5-0.3l0.4-0.1l0.2,0l0.2,0l0.1,0l0.6,0l0.1,0l0.1,0c0.4,0,0.8,0,1.2,0c3.1,0.1,6.2,1,8.9,2.5
		c2.7,1.6,4.9,3.8,6.5,6.6c0.4,0.7,0.7,1.4,1,2.1c0.1,0.4,0.3,0.7,0.4,1.1l0.2,0.6l0.2,0.7c0.1,0.5,0.2,1,0.3,1.5l0.1,0.5l0,0.2
		l0.1,0.8l0.1,0.5l0.4,3.8L433,70l3.8,30.7l-12.3-11.5c5.3-0.1,10.7-0.2,16-0.2c5.3,0,10.7-0.1,16-0.1c5.3,0,10.7,0.1,16,0.1
		c5.3,0.1,10.7,0.2,16,0.4c5.3,0.2,10.6,0.4,16,0.7l16,0.9c10.6,0.6,21.3,1.2,31.9,1.4l0.3,0c4.2,0.1,7.8,2.5,9.6,5.9l0.8,1.4
		l0.7,1.3l1.3,2.5c0.8,1.7,1.6,3.3,2.4,5c1.6,3.3,3.1,6.6,4.5,10c0.7,1.7,1.4,3.3,2.1,5c0.7,1.7,1.4,3.4,2.1,5
		c0.7,1.7,1.4,3.4,2,5.1l1.9,5.1l1.8,5.1c0.6,1.7,1.2,3.4,1.8,5.1l1.7,5.2l1.6,5.2c0.5,1.7,1.1,3.5,1.6,5.2l1.5,5.2
		c0.5,1.7,0.9,3.5,1.4,5.3l1.4,5.3l-23.2-6.2c0.9-1,1.8-2.1,2.7-3c1-1,1.9-2,2.9-2.9c1-0.9,2-1.9,3.1-2.7c1.1-0.9,2.2-1.8,3.3-2.6
		l1.7-1.2l1.8-1.1c1.2-0.8,2.4-1.4,3.6-2.1c1.2-0.7,2.5-1.3,3.7-1.9c1.3-0.6,2.5-1.1,3.8-1.6c1.3-0.5,2.6-0.9,3.9-1.4
		c1.3-0.5,2.6-0.8,3.9-1.2c1.3-0.4,2.6-0.6,3.9-0.9c1.3-0.3,2.6-0.5,3.9-0.7c1.3-0.2,2.6-0.4,3.9-0.6l1.9-0.2c0.6-0.1,1.3-0.1,2-0.2
		l2-0.2l1-0.1l0.8,0l3.3-0.1L627.2,149.2"/>
	<path id="XMLID_97_" class="st1" d="M423.8,431L405,52c-0.2-4.1,3-7.6,7.1-7.8c4-0.2,7.5,2.8,7.8,6.8l32.6,378
		c0.7,7.9-5.2,14.9-13.1,15.6c-7.9,0.7-14.9-5.2-15.6-13.1C423.8,431.4,423.8,431.2,423.8,431"/>
	<path id="XMLID_98_" class="st2" d="M248.4,459c-1.4,0-2.9-0.6-3.9-1.7c-1.3-1.4-1.7-3.3-1.1-5.1c0.1-0.5,14.3-45.9,21.1-111.8
		c6.3-60.7,7.5-151.6-22.4-240.1c-0.5-1.6-0.3-3.4,0.7-4.8c1-1.3,2.6-2.1,4.2-2.1l305.2,5.4c1.8,0,3.5,1,4.5,2.6
		c0.9,1.5,21,37.3,30.7,94.1c5.7,33.4,6.5,67,2.5,100c-5,41.3-17.7,81.7-37.7,120.1c-2.2,4.2-6.6,6.9-11.4,6.9
		c-4.1,0-7.9-1.9-10.3-5.3c-9.7-13.4-38.2-46.6-97.3-71c-5.5,7.1-20.1,24.7-44.2,44.4c-28.3,23.2-75.4,53.9-139.5,68.2
		C249.1,458.9,248.8,459,248.4,459"/>
	<path id="XMLID_101_" class="st0" d="M247.1,98.6l305.1,5.4c0,0,81.7,143.4-4.6,309.2c-1.4,2.7-4,4.1-6.7,4.1c-2.3,0-4.6-1-6.1-3.1
		c-12.1-16.8-43.4-50.4-103.3-74.3c0,0-60.9,86.8-183.1,113.9C248.4,453.7,305.7,271.8,247.1,98.6 M247.1,88.1
		c-3.3,0-6.5,1.6-8.4,4.3c-2,2.7-2.6,6.3-1.5,9.5c29.6,87.5,28.4,177.5,22.2,237.6c-6.8,65.4-20.8,110.6-21,111.1
		c-1.1,3.6-0.3,7.5,2.3,10.2c2,2.2,4.8,3.4,7.7,3.4c0.8,0,1.5-0.1,2.3-0.2c28.8-6.4,56.6-16.5,82.7-30.2
		c20.9-10.9,40.7-24.1,59-39.1c21.3-17.6,35.5-33.5,42.5-42.1c55.4,23.8,82.2,55,91.4,67.7c3.4,4.7,8.8,7.4,14.6,7.4
		c6.8,0,12.9-3.7,16-9.7c20.3-38.9,33.1-79.9,38.2-121.8c4.1-33.5,3.2-67.7-2.5-101.6c-9.8-57.7-30.4-94.3-31.3-95.9
		c-1.8-3.2-5.2-5.2-8.9-5.3l-305.1-5.4L247.1,88.1"/>
	<path id="XMLID_102_" class="st1" d="M432.5,627.9c-49.9,0-94.4-17.7-125.1-49.9c-16.9-17.7-29.7-39.6-37.9-65
		c-8.9-27.3-12.6-58.9-11-93.8l0-0.3c0.3-2.7,2.5-4.7,5.2-4.7c1.7,0,3.2,0.8,4.2,2.1c0.1,0.1,0.1,0.2,0.2,0.3
		c15.6,24.2,44.8,37.5,82.1,37.5c53.8,0,124.8-29.3,162.4-94.8c18.6-32.4,26.4-68.2,33.3-99.7c11.8-54,22-100.6,81.3-100.6
		c36.1,0,59.1,28.5,65.8,56.7c3.5,14.6,3,29.7-1.5,42.6c-5,14.5-14.7,25.7-28.1,32.5c-0.7,0.4-1.6,0.6-2.4,0.6
		c-0.8,0-1.6-0.2-2.3-0.5c-1.5-0.7-2.5-2.1-2.8-3.8c-4.6-25.3-17.6-41.7-33.2-41.7c-3.3,0-6.6,0.8-9.8,2.3
		c-15.9,7.7-23.8,36.9-5.6,85c19,50.3,25.8,100.1,19.6,144c-6.7,46.9-28.1,84.5-62,108.7C527,612.4,478.7,627.9,432.5,627.9"/>
	<path id="XMLID_105_" class="st0" d="M627.2,164.2c63,0,86.5,95,33.9,121.9c-5.5-30.3-21.8-46-38.3-46c-4.1,0-8.1,0.9-12.1,2.8
		c-20,9.7-26.3,43.6-8.2,91.6c36.8,97.3,28.1,197.5-40.6,246.6c-37.4,26.7-84.2,41.7-129.5,41.7c-90.5,0-175.3-59.6-168.8-203.2l0,0
		l0,0c17.4,27,49.8,39.9,86.5,39.9c59.6,0,130.6-34.1,166.9-97.5C567.9,273.3,539,164.2,627.2,164.2 M627.2,153.7
		c-28.9,0-49.7,10.8-63.3,33.1c-11.6,18.9-17.2,44.5-23.1,71.7c-6.8,31.2-14.5,66.5-32.7,98.2c-36.5,63.7-105.6,92.2-157.8,92.2
		c-35.5,0-63.1-12.5-77.7-35.1c-1.9-3-5.2-4.8-8.8-4.8c-5.6,0-10.1,4.3-10.5,9.9l0,0.1c-1.6,35.5,2.2,67.7,11.3,95.7
		c8.5,26.2,21.7,48.7,39.1,67c16.4,17.2,36.4,30.3,59.3,39.1c21.4,8.2,44.8,12.4,69.6,12.4c23.7,0,47.5-3.8,70.9-11.3
		c23.4-7.5,45.2-18.4,64.7-32.3c35.1-25.1,57.3-63.9,64.1-112.2c6.4-44.8-0.5-95.4-19.9-146.6c-10.1-26.7-10.8-44.8-9.6-55.2
		c1.4-11.7,5.8-20,12.5-23.2c2.5-1.2,5-1.8,7.5-1.8c10.6,0,23.3,11.6,28,37.4c0.6,3.3,2.7,6,5.7,7.5c1.5,0.7,3.1,1.1,4.6,1.1
		c1.6,0,3.3-0.4,4.8-1.1c14.5-7.4,25.1-19.6,30.6-35.4c4.8-13.8,5.4-30,1.7-45.6c-3.9-16.3-12.4-31.2-23.8-42
		C661.2,160.2,644.9,153.7,627.2,153.7"/>
	<path id="XMLID_108_" class="st3" d="M273.1,458.1c-1.5,0.4-2.9,0.8-4.3,1.2c1.9,9.3,4.2,18,6.7,26.1l7.8-4.2
		C279.2,473.2,275.8,465.4,273.1,458.1 M626.7,206.6c-22.5,0-47.3,16.4-55.6,50.7c-14,58,48.1,230.8-109.9,298.3
		c-21.1,9-40.4,12.9-57.9,12.9c-8.6,0-16.8-0.9-24.5-2.7l-16.8,21.5c16.7,6.3,34.4,9.1,52.2,9.1c52.2,0,105.5-23.7,138-51.4
		c72-61.5,41.9-200.2,31.4-268.7c-5.2-34.1,17.4-53.3,39.6-53.3c22.5,0,44.7,19.6,37.8,63.2l0,0l0,0
		C680.8,234,655.7,206.6,626.7,206.6"/>
	<path id="XMLID_111_" class="st3" d="M329.8,541.3l-15.7,14c5,5.3,10.2,10,15.6,14.1l13.9-18.2
		C338.8,548.3,334.2,544.9,329.8,541.3 M300.4,509.4l-12.8,6.9c1.6,3.3,3.3,6.5,5.1,9.6l12.1-10.6
		C303.3,513.4,301.8,511.4,300.4,509.4"/>
	<path id="XMLID_115_" class="st0" d="M581.8,578.4c-0.4,0.4-0.8,0.7-1.2,1.1l0.8-0.4L581.8,578.4 M634.4,450.8
		c-0.2,9-1,17.9-2.2,26.6c-0.9,6.6-2.1,13-3.6,19.2l8.3-14.5L634.4,450.8 M625,371.1c1.9,7.7,3.6,15.3,4.9,22.9l-1-12.2L625,371.1"
		/>
	<path id="XMLID_121_" class="st4" d="M349.8,602.7l-0.4,0.5c25.2,13.3,53.8,19.5,83,19.5c4.5,0,9.1-0.1,13.6-0.4
		c-3.5,0.2-7,0.3-10.5,0.3C405.8,622.5,376,616.4,349.8,602.7 M618.7,492.6c-4.6,17.6-12.1,35.7-23.3,54.2c0,0.1-0.1,0.1-0.1,0.2
		C606.3,531,614,512.6,618.7,492.6 M596.9,257.4c-2.8,5.3-4.2,11.2-4.7,17.6C592.9,268.2,594.5,262.3,596.9,257.4 M646.7,252.4
		c6.5,7.7,11.7,19,14.4,33.6l0,0C661,275,655.2,261.9,646.7,252.4 M622,239.3c-4.9,0-9.9,1.7-14.6,5.5c1-0.7,2.1-1.3,3.3-1.9
		c3.9-1.9,8-2.8,12.1-2.8c4.7,0,9.4,1.3,13.9,3.8C632,241,627,239.3,622,239.3"/>
	<path id="XMLID_122_" class="st0" d="M622.7,240c-4.1,0-8.1,0.9-12.1,2.8c-1.1,0.6-2.2,1.2-3.3,1.9c0,0-0.1,0-0.1,0.1
		c-4.6,3.8-8,8-10.4,12.6c-2.4,4.9-4,10.8-4.7,17.6c-3.3,48.1,50.7,125.4,26.5,217.6c-4.6,20-12.4,38.4-23.4,54.4
		c-26.1,42.9-86.7,72.2-149.2,75.2c-4.6,0.3-9.1,0.4-13.6,0.4c-29.2,0-57.9-6.2-83-19.5l-3.2,4.1l25.4,15.4l111.2,4.6l97.8-47.8
		c0.4-0.4,0.8-0.7,1.2-1.1l46.7-81.9c1.5-6.2,2.7-12.6,3.6-19.2c1.2-8.6,2-17.5,2.2-26.6l-4.5-56.8c-1.3-7.6-3-15.2-4.9-22.9
		l-22.6-61.2l-0.9-53.6l22.7-10l21.4,15.3l9.6,28.8l5.9-4.2c-2.7-14.7-7.9-25.9-14.4-33.6c-3-3.4-6.4-6.3-10-8.5
		C632.2,241.3,627.5,240,622.7,240"/>
	<path id="XMLID_123_" class="st0" d="M254.1,463.1c-0.1,0-0.2,0.1-0.4,0.1l0.6,2.4C254.3,464.8,254.2,464,254.1,463.1"/>
	<path id="XMLID_124_" class="st0" d="M254.1,462.9c-0.1,0-0.3,0.1-0.4,0.1l0.1,0.2c0.1,0,0.2-0.1,0.4-0.1
		C254.1,463.1,254.1,463,254.1,462.9"/>
	<path id="XMLID_125_" class="st0" d="M264.4,460.4c-4.2,1.1-7.7,1.9-10.3,2.5c0,0.1,0,0.2,0,0.3c0.1,0.8,0.2,1.6,0.2,2.5l7,27.4
		l7.1-3.9C266.6,480.1,265.2,470.5,264.4,460.4"/>
	<path id="XMLID_126_" class="st4" d="M278,521.4L278,521.4c1.7,4.3,3.5,8.5,5.4,12.6l0,0C281.5,529.9,279.7,525.8,278,521.4"/>
	<path id="XMLID_127_" class="st0" d="M272.4,519.7l-3.8,1.9l1.8,7.1l7.6,9.9l5.4-4.7c-1.9-4-3.8-8.2-5.4-12.6l-4.6,2.5L272.4,519.7
		"/>
	<path id="XMLID_128_" class="st4" d="M303.3,565.1l-0.2,0.2c5.2,6.4,10.7,12.2,16.6,17.4l0.3-0.3
		C314,577.2,308.4,571.4,303.3,565.1"/>
	<path id="XMLID_129_" class="st0" d="M303.1,565.3l-2.8,2.6l15.4,20.2l4.1-5.3C313.8,577.4,308.2,571.6,303.1,565.3"/>
	<path id="XMLID_130_" class="st5" d="M623.2,222.8c-22.3,0-44.9,19.2-39.6,53.3c10.5,68.6,40.6,207.3-31.4,268.7
		c-32.5,27.8-85.8,51.4-138,51.4c-17.8,0-35.5-2.8-52.2-9.1l-12.1,15.5c26.2,13.6,56,19.8,85.8,19.8c3.5,0,7-0.1,10.5-0.3
		c40.9-2.7,82.1-17.1,115.8-41.2c13.3-9.5,24.4-21,33.3-34c0-0.1,0.1-0.1,0.1-0.2c11.2-18.6,18.7-36.7,23.3-54.2
		c10.9-47.1,4.7-103.1-16.2-158.2c-8.9-23.6-11.9-43.8-10.3-59.4c0.4-6.4,1.9-12.3,4.7-17.6c2.6-5.5,6.2-9.7,10.5-12.6
		c4.7-3.8,9.7-5.5,14.6-5.5c5,0,10,1.7,14.6,4.6c3.6,2,6.9,4.9,10,8.5c8.5,9.5,14.4,22.5,14.4,33.6l0,0
		C668,242.4,645.8,222.8,623.2,222.8"/>
	<path id="XMLID_135_" class="st6" d="M595.3,547.1c-8.9,13-20,24.5-33.3,34c-33.7,24.1-74.9,38.6-115.8,41.2
		C508.5,619.3,569.2,590,595.3,547.1 M592.2,275c-1.6,15.6,1.3,35.8,10.3,59.4c20.8,55.1,27.1,111.1,16.2,158.2
		C642.9,400.4,588.9,323.1,592.2,275 M607.4,244.8c-4.3,2.9-7.9,7.2-10.5,12.6C599.3,252.8,602.7,248.6,607.4,244.8
		C607.3,244.8,607.4,244.8,607.4,244.8 M636.6,243.9c3.6,2.2,7,5.2,10,8.5C643.6,248.8,640.2,245.9,636.6,243.9"/>
	<path id="XMLID_136_" class="st5" d="M268.8,459.2c-1.5,0.4-3,0.8-4.4,1.2c0.9,10.1,2.3,19.7,4.2,28.7l6.9-3.8
		C272.9,477.2,270.7,468.5,268.8,459.2"/>
	<path id="XMLID_157_" class="st6" d="M264.4,460.4C264.4,460.4,264.4,460.4,264.4,460.4c0.9,10.1,2.2,19.7,4.1,28.8l0,0
		C266.6,480.1,265.3,470.5,264.4,460.4"/>
	<path id="XMLID_161_" class="st5" d="M287.6,516.3l-9.6,5.2c1.7,4.3,3.5,8.5,5.5,12.5l9.2-8.1C290.9,522.8,289.2,519.6,287.6,516.3
		"/>
	<path id="XMLID_165_" class="st5" d="M314.2,555.3l-10.9,9.8c5.2,6.3,10.8,12.1,16.7,17.3l9.9-12.9
		C324.4,565.3,319.1,560.6,314.2,555.3"/>
	<path id="XMLID_166_" class="st0" d="M259.7,696c-1.1,0-2.2-0.3-3.1-1.1l-6.3-5c-2.1-1.7-2.5-4.8-0.9-7l171.2-224.2
		c0.8-1.1,2-1.8,3.3-1.9c0.2,0,0.4,0,0.6,0c1.1,0,2.2,0.4,3.1,1.1l12.5,9.8c1.1,0.8,1.7,2,1.9,3.4c0.1,1.3-0.2,2.7-1.1,3.7
		L263.6,694.1C262.6,695.3,261.2,696,259.7,696"/>
	<path id="XMLID_169_" class="st0" d="M424.6,461.8l12.5,9.8l-4.9,6.1l-169.9,210l-2.6,3.2l-6.3-5l2.5-3.2l164-214.7L424.6,461.8
		 M424.6,451.8c-0.4,0-0.8,0-1.3,0.1c-2.7,0.3-5.1,1.7-6.7,3.9l-4.8,6.2l-164,214.7l-2.5,3.2c-3.3,4.3-2.5,10.6,1.8,13.9l6.3,5
		c1.8,1.4,4,2.1,6.2,2.1c2.9,0,5.8-1.3,7.8-3.7l2.6-3.2L440,484l4.9-6.1c1.7-2.1,2.5-4.7,2.2-7.4c-0.3-2.7-1.7-5.1-3.8-6.7
		l-12.5-9.8C429,452.6,426.8,451.8,424.6,451.8"/>
	<path id="XMLID_170_" class="st0" d="M198,635.7c-1.4,0-2.8-0.6-3.8-1.8l-4.3-5.1c-1.8-2.1-1.5-5.2,0.5-7l182.5-159.4
		c0.9-0.8,2.1-1.2,3.3-1.2c0.1,0,0.2,0,0.4,0c1.3,0.1,2.6,0.7,3.4,1.7l8.6,10.1c0.9,1,1.3,2.3,1.2,3.7c-0.1,1.3-0.8,2.6-1.8,3.4
		L201.2,634.6C200.3,635.3,199.2,635.7,198,635.7"/>
	<path id="XMLID_179_" class="st0" d="M376.2,466.2l8.6,10.1l-5,4.2L200.7,628.6l-2.6,2.2l-4.3-5.1l2.6-2.2l175-152.8L376.2,466.2
		 M376.2,456.2c-2.4,0-4.7,0.9-6.6,2.5l-4.9,4.3l-175,152.8l-2.6,2.2c-4.1,3.6-4.6,9.8-1,14l4.3,5.1c2,2.3,4.8,3.5,7.6,3.5
		c2.2,0,4.5-0.8,6.4-2.3l2.6-2.2l179.1-148.1l5-4.2c2.1-1.7,3.4-4.2,3.6-6.8c0.2-2.7-0.6-5.3-2.3-7.4l-8.6-10.1
		c-1.7-2-4.2-3.3-6.9-3.5C376.7,456.2,376.4,456.2,376.2,456.2"/>
	<path id="XMLID_180_" class="st0" d="M148.5,577c-1.8,0-3.5-1-4.4-2.7l-2.5-4.7c-1.3-2.4-0.4-5.4,2-6.7l186.4-101.5
		c0.7-0.4,1.6-0.6,2.4-0.6c0.5,0,1,0.1,1.4,0.2c1.3,0.4,2.4,1.3,3,2.4l5,9.4c0.6,1.2,0.8,2.6,0.3,3.8c-0.4,1.3-1.3,2.3-2.5,2.9
		l-188.8,96.9C150,576.9,149.2,577,148.5,577"/>
	<path id="XMLID_183_" class="st0" d="M332.3,465.8l5,9.4l-4.7,2.4l-181.7,93.3l-2.4,1.2l-2.5-4.7l2.4-1.3l179.4-97.7L332.3,465.8
		 M332.3,455.8c-1.7,0-3.3,0.4-4.8,1.2l-4.6,2.5l-179.4,97.7l-2.4,1.3c-4.8,2.6-6.6,8.6-4.1,13.5l2.5,4.7c1.8,3.4,5.3,5.3,8.8,5.3
		c1.5,0,3.1-0.4,4.6-1.1l2.4-1.2l181.7-93.3l4.7-2.4c2.4-1.2,4.2-3.3,5-5.9c0.8-2.6,0.6-5.3-0.7-7.7l-5-9.4c-1.3-2.4-3.4-4.1-6-4.9
		C334.3,455.9,333.3,455.8,332.3,455.8"/>
	<polyline id="XMLID_184_" class="st7" points="432.2,477.8 262.3,687.8 259.7,691 253.4,686 255.9,682.8 419.8,468 424.6,461.8 
		437.1,471.6 432.2,477.8 	"/>
	<polyline id="XMLID_185_" class="st7" points="379.7,480.5 200.7,628.6 198,630.7 193.7,625.6 196.3,623.4 371.3,470.5 
		376.2,466.2 384.8,476.3 379.7,480.5 	"/>
	<polyline id="XMLID_186_" class="st7" points="332.6,477.5 150.9,570.8 148.5,572 146,567.3 148.3,566 327.7,468.3 332.3,465.8 
		337.3,475.1 332.6,477.5 	"/>
	<path id="XMLID_187_" class="st1" d="M316.6,482.3c-11.6,0-21-11.4-21-25.3c0-14,9.4-25.3,21-25.3c11.6,0,21,11.4,21,25.3
		C337.6,470.9,328.2,482.3,316.6,482.3"/>
	<path id="XMLID_190_" class="st0" d="M316.6,435.5c9.4,0,17,9.6,17,21.4s-7.6,21.4-17,21.4c-9.4,0-17-9.6-17-21.4
		S307.2,435.5,316.6,435.5 M316.6,427.7c-13.7,0-24.9,13.1-24.9,29.3c0,16.1,11.2,29.3,24.9,29.3c13.7,0,24.9-13.1,24.9-29.3
		C341.5,440.8,330.3,427.7,316.6,427.7"/>
	<path id="XMLID_191_" class="st1" d="M316.6,471.8c-5.7,0-10.5-6.8-10.5-14.9c0-8.1,4.8-14.9,10.5-14.9s10.5,6.8,10.5,14.9
		C327.1,465,322.3,471.8,316.6,471.8"/>
	<path id="XMLID_194_" class="st7" d="M316.6,448.6c1,0,3.9,2.9,3.9,8.3s-2.9,8.3-3.9,8.3s-3.9-2.9-3.9-8.3S315.6,448.6,316.6,448.6
		 M316.6,435.5c-9.4,0-17,9.6-17,21.4s7.6,21.4,17,21.4c9.4,0,17-9.6,17-21.4S326,435.5,316.6,435.5"/>
	<path id="XMLID_195_" class="st1" d="M352.8,492.7c-14.7,0-26.6-14.5-26.6-32.4c0-17.9,11.9-32.4,26.6-32.4
		c14.7,0,26.6,14.5,26.6,32.4C379.4,478.2,367.5,492.7,352.8,492.7"/>
	<path id="XMLID_198_" class="st0" d="M352.8,431.8c12.5,0,22.7,12.8,22.7,28.5c0,15.7-10.1,28.5-22.7,28.5
		c-12.5,0-22.7-12.8-22.7-28.5C330.2,444.6,340.3,431.8,352.8,431.8 M352.8,423.9c-8.4,0-16.5,4.1-22.2,11.3
		c-5.4,6.8-8.3,15.7-8.3,25c0,9.4,3,18.3,8.3,25c5.7,7.2,13.8,11.3,22.2,11.3c8.4,0,16.5-4.1,22.2-11.3c5.4-6.8,8.3-15.7,8.3-25
		c0-9.4-3-18.3-8.3-25C369.3,428.1,361.2,423.9,352.8,423.9"/>
	<path id="XMLID_199_" class="st1" d="M352.8,481c-8,0-14.8-9.5-14.8-20.7c0-11.2,6.8-20.7,14.8-20.7c8,0,14.8,9.5,14.8,20.7
		C367.7,471.5,360.9,481,352.8,481"/>
	<path id="XMLID_202_" class="st7" d="M352.8,447.5c2.8,0,7,5.1,7,12.8c0,7.7-4.2,12.8-7,12.8c-2.8,0-7-5.1-7-12.8
		C345.9,452.6,350.1,447.5,352.8,447.5 M352.8,431.8c-12.5,0-22.7,12.8-22.7,28.5c0,15.7,10.1,28.5,22.7,28.5
		c12.5,0,22.7-12.8,22.7-28.5C375.5,444.6,365.4,431.8,352.8,431.8"/>
	<path id="XMLID_203_" class="st1" d="M398.8,492.1c-17.9,0-32.4-17.7-32.4-39.4c0-21.7,14.5-39.4,32.4-39.4
		c17.9,0,32.4,17.7,32.4,39.4C431.2,474.4,416.7,492.1,398.8,492.1"/>
	<path id="XMLID_206_" class="st0" d="M398.8,418.5c15,0,27.2,15.3,27.2,34.2c0,18.9-12.2,34.2-27.2,34.2c-15,0-27.2-15.3-27.2-34.2
		C371.6,433.8,383.8,418.5,398.8,418.5 M398.8,408c-10.4,0-20.4,5.1-27.4,14c-6.6,8.3-10.2,19.2-10.2,30.7s3.6,22.4,10.2,30.7
		c7.1,8.9,17.1,14,27.4,14c10.4,0,20.4-5.1,27.4-14c6.6-8.3,10.2-19.2,10.2-30.7s-3.6-22.4-10.2-30.7
		C419.2,413.1,409.2,408,398.8,408"/>
	<path id="XMLID_207_" class="st1" d="M398.8,477.7c-9.8,0-18-11.5-18-25c0-13.6,8.3-25,18-25s18,11.5,18,25
		C416.9,466.3,408.6,477.7,398.8,477.7"/>
	<path id="XMLID_210_" class="st7" d="M398.8,436.8c3.5,0,8.9,6.3,8.9,15.9c0,9.5-5.3,15.9-8.9,15.9s-8.9-6.3-8.9-15.9
		C390,443.1,395.3,436.8,398.8,436.8 M398.8,418.5c-15,0-27.2,15.3-27.2,34.2c0,18.9,12.2,34.2,27.2,34.2c15,0,27.2-15.3,27.2-34.2
		C426,433.8,413.8,418.5,398.8,418.5"/>
	<path id="XMLID_211_" class="st1" d="M455,487.2c-22.3,0-40.4-22.2-40.4-49.5s18.1-49.5,40.4-49.5c22.3,0,40.4,22.2,40.4,49.5
		S477.3,487.2,455,487.2"/>
	<path id="XMLID_215_" class="st0" d="M455,393.4c19.4,0,35.2,19.8,35.2,44.2s-15.7,44.2-35.2,44.2c-19.4,0-35.2-19.8-35.2-44.2
		S435.6,393.4,455,393.4 M455,383c-12.7,0-24.4,6-33.1,16.9c-8.1,10.2-12.6,23.6-12.6,37.8c0,14.2,4.5,27.6,12.6,37.8
		c8.7,10.9,20.4,16.9,33.1,16.9c12.7,0,24.4-6,33.1-16.9c8.1-10.2,12.6-23.6,12.6-37.8c0-14.2-4.5-27.6-12.6-37.8
		C479.4,389,467.7,383,455,383"/>
	<path id="XMLID_216_" class="st1" d="M455,471.5c-13.4,0-24.7-15.5-24.7-33.8s11.3-33.8,24.7-33.8c13.4,0,24.7,15.5,24.7,33.8
		S468.4,471.5,455,471.5"/>
	<path id="XMLID_219_" class="st7" d="M455,414.4c6.7,0,14.2,10,14.2,23.3c0,13.3-7.5,23.3-14.2,23.3c-6.7,0-14.2-10-14.2-23.3
		C440.8,424.3,448.3,414.4,455,414.4 M455,393.4c-19.4,0-35.2,19.8-35.2,44.2s15.7,44.2,35.2,44.2c19.4,0,35.2-19.8,35.2-44.2
		S474.5,393.4,455,393.4"/>
	<path id="XMLID_220_" class="st8" d="M316.6,448.6c-1,0-3.9,2.9-3.9,8.3s2.9,8.3,3.9,8.3s3.9-2.9,3.9-8.3S317.6,448.6,316.6,448.6"
		/>
	<path id="XMLID_223_" class="st9" d="M316.6,465.3c-1,0-3.9-2.9-3.9-8.3s2.9-8.3,3.9-8.3s3.9,2.9,3.9,8.3S317.6,465.3,316.6,465.3
		 M316.6,442c-6.6,0-11.9,6.7-11.9,14.9s5.3,14.9,11.9,14.9c2.5,0,4.8-0.9,6.7-2.6c-0.6-2.9-0.9-5.9-0.9-9c0-5,0.8-9.8,2.4-14.3
		C322.6,443.5,319.8,442,316.6,442"/>
	<path id="XMLID_224_" class="st0" d="M324.7,446c-1.6,4.5-2.4,9.3-2.4,14.3c0,3.1,0.3,6.1,0.9,9c3.2-2.7,5.2-7.2,5.2-12.4
		C328.5,452.6,327.1,448.8,324.7,446"/>
	<path id="XMLID_225_" class="st8" d="M352.8,447.5c-2.8,0-7,5.1-7,12.8c0,7.7,4.2,12.8,7,12.8c2.8,0,7-5.1,7-12.8
		C359.8,452.6,355.6,447.5,352.8,447.5"/>
	<path id="XMLID_228_" class="st9" d="M352.8,473.1c-2.8,0-7-5.1-7-12.8c0-7.7,4.2-12.8,7-12.8c2.8,0,7,5.1,7,12.8
		C359.8,468,355.6,473.1,352.8,473.1 M352.8,439.9c-8.9,0-16.2,9.1-16.2,20.4c0,11.3,7.3,20.4,16.2,20.4c5,0,9.5-2.9,12.5-7.4
		c-2.7-6.3-4.2-13.3-4.2-20.6c0-3.1,0.3-6.2,0.8-9.2C359.4,441.2,356.2,439.9,352.8,439.9"/>
	<path id="XMLID_229_" class="st0" d="M362,443.5c-0.5,3-0.8,6.1-0.8,9.2c0,7.3,1.4,14.3,4.2,20.6c2.3-3.5,3.7-8,3.7-13
		C369,453.3,366.2,447.1,362,443.5"/>
	<path id="XMLID_230_" class="st8" d="M398.8,436.8c-3.5,0-8.9,6.3-8.9,15.9c0,9.5,5.3,15.9,8.9,15.9s8.9-6.3,8.9-15.9
		C407.7,443.1,402.4,436.8,398.8,436.8"/>
	<path id="XMLID_233_" class="st9" d="M398.8,468.6c-3.5,0-8.9-6.3-8.9-15.9c0-9.5,5.3-15.9,8.9-15.9s8.9,6.3,8.9,15.9
		C407.7,462.2,402.4,468.6,398.8,468.6 M398.8,427.6c-11,0-19.9,11.2-19.9,25.1c0,13.8,8.9,25.1,19.9,25.1c7.2,0,13.5-4.8,17-12
		c-4.2-8.4-6.4-18.1-6.4-28.1c0-2,0.1-4.1,0.3-6.1C406.5,429.1,402.8,427.6,398.8,427.6"/>
	<path id="XMLID_234_" class="st0" d="M409.7,431.6c-0.2,2-0.3,4-0.3,6.1c0,10,2.2,19.7,6.4,28.1c1.9-3.8,2.9-8.3,2.9-13.1
		C418.8,443.9,415.1,436.1,409.7,431.6"/>
	<path id="XMLID_237_" class="st8" d="M455,414.4c-6.7,0-14.2,10-14.2,23.3c0,13.3,7.5,23.3,14.2,23.3c6.7,0,14.2-10,14.2-23.3
		C469.3,424.3,461.8,414.4,455,414.4"/>
	<path id="XMLID_240_" class="st9" d="M455,461c-6.7,0-14.2-10-14.2-23.3c0-13.3,7.5-23.3,14.2-23.3c6.7,0,14.2,10,14.2,23.3
		C469.3,451,461.8,461,455,461 M455,405.4c-14.2,0-25.7,14.5-25.7,32.3S440.8,470,455,470c14.2,0,25.7-14.5,25.7-32.3
		S469.2,405.4,455,405.4"/>
	<path id="XMLID_242_" class="st7" d="M146.6,566.6l-5.2-3c-1.7-1-3.8-1-5.5-0.1L102.6,581c-2.1,1.1-3.3,3.5-3,5.9
		c0.3,1.8,0.9,4,2.3,6.7c1.4,2.6,2.9,4.5,4.2,5.7c1.8,1.7,4.4,2,6.5,0.9l33.2-17.6c1.7-0.9,2.9-2.6,3-4.6l0.4-6
		C149.5,569.8,148.4,567.7,146.6,566.6"/>
	<path id="XMLID_245_" class="st7" d="M110.1,601.8c-1.7,0-3.3-0.6-4.6-1.8c-1.7-1.6-3.1-3.6-4.4-6c-1.3-2.4-2.1-4.7-2.4-7
		c-0.4-2.8,1-5.6,3.5-6.9l33.2-17.6c2.1-1.1,4.5-1,6.5,0.1l5.2,3c2.2,1.3,3.5,3.7,3.3,6.3l-0.4,6c-0.2,2.3-1.5,4.4-3.6,5.4
		L113.2,601C112.2,601.5,111.1,601.8,110.1,601.8 M138.5,563.9c-0.7,0-1.5,0.2-2.2,0.5L103.1,582c-1.7,0.9-2.7,2.8-2.4,4.8
		c0.3,2,1.1,4.2,2.2,6.3c1.2,2.2,2.5,4,4,5.4c1.4,1.3,3.6,1.6,5.3,0.7l33.2-17.6c1.4-0.7,2.3-2.2,2.4-3.7l0.4-6
		c0.1-1.7-0.8-3.4-2.3-4.3l-5.2-3C140.1,564.1,139.3,563.9,138.5,563.9"/>
	<path id="XMLID_247_" class="st7" d="M195.1,624.9l-7-2.3c-1.9-0.6-3.9-0.2-5.4,1.1l-32.3,27.2c-1.8,1.5-2.5,3.9-1.8,6
		c0.7,2,1.9,4.5,4.3,7.4c2.4,2.9,4.7,4.5,6.5,5.5c2,1.1,4.5,0.8,6.2-0.7l32.3-27.2c1.5-1.3,2.2-3.2,2-5.1l-1-7.3
		C198.7,627.3,197.2,625.5,195.1,624.9"/>
	<path id="XMLID_250_" class="st7" d="M162.1,671.5c-1.1,0-2.1-0.3-3.1-0.8c-2.4-1.3-4.7-3.2-6.8-5.8c-2.1-2.5-3.7-5.1-4.5-7.7
		c-0.9-2.6,0-5.5,2.1-7.3l32.3-27.2c1.8-1.5,4.2-2,6.5-1.3l7,2.3h0c2.5,0.8,4.3,3,4.6,5.5l1,7.3c0.3,2.3-0.5,4.6-2.4,6.2l-32.3,27.2
		C165.2,671,163.6,671.5,162.1,671.5 M186.3,623.5c-1,0-2.1,0.4-2.9,1.1l-32.3,27.2c-1.4,1.2-2,3.1-1.4,4.8c0.8,2.3,2.2,4.7,4.1,7
		c1.9,2.3,4,4.1,6.2,5.2c1.6,0.8,3.6,0.6,5-0.6l32.3-27.2c1.2-1,1.8-2.5,1.6-4.1l-1-7.3c-0.2-1.7-1.4-3.1-3.1-3.7h0l-7-2.3
		C187.3,623.6,186.8,623.5,186.3,623.5"/>
	<path id="XMLID_251_" class="st7" d="M255.6,684.8l-9.2-1.3c-1.9-0.3-3.9,0.5-5.1,2L210,723.1c-1.5,1.8-1.7,4.2-0.7,6.2
		c1.1,2.1,3,4.9,6.6,7.8c3.5,2.9,6.6,4.3,8.9,5c2.2,0.7,4.5,0,6-1.8l31.3-37.6c1.2-1.5,1.6-3.5,1-5.4l-2.9-8.8
		C259.5,686.6,257.7,685.1,255.6,684.8"/>
	<path id="XMLID_254_" class="st7" d="M226.4,743.8c-0.7,0-1.4-0.1-2-0.3c-3.1-0.9-6.3-2.7-9.4-5.3c-3.1-2.6-5.4-5.3-6.9-8.3
		c-1.3-2.5-0.9-5.5,0.8-7.7l31.3-37.6c1.5-1.9,3.9-2.8,6.3-2.4l9.2,1.3h0c2.6,0.4,4.8,2.2,5.7,4.7l2.9,8.8c0.8,2.3,0.3,4.8-1.3,6.6
		l-31.3,37.6C230.4,742.9,228.5,743.8,226.4,743.8 M245.6,684.8c-1.3,0-2.5,0.6-3.3,1.6L211,723.9c-1.1,1.3-1.3,3.2-0.5,4.8
		c1.3,2.6,3.4,5.1,6.2,7.4c2.8,2.3,5.6,3.9,8.4,4.8c1.7,0.5,3.5,0,4.6-1.4L261,702c1-1.2,1.3-2.7,0.8-4.1l-2.9-8.8
		c-0.5-1.6-1.9-2.7-3.5-3l-9.2-1.3C246,684.8,245.8,684.8,245.6,684.8"/>
	<path id="XMLID_255_" class="st10" d="M488.2,370.1l10.3,7.6c0,0,48-151-8.4-274.9h0l-243.2-4.3c58.6,173.3,1.3,355.2,1.3,355.2
		c35.6-7.9,65.9-20.9,91.1-35.3c0.4-1.2,41.6-136.7-5.8-318.4l83.4,1.5c0,0,51.9,116.9,14.4,238.3
		C454.4,349,473.2,359.6,488.2,370.1"/>
	<path id="XMLID_257_" class="st11" d="M394.2,299.5c-2.8,0-5.5-1.2-7.3-3.4c-1.8-2.1-2.6-4.9-2.1-7.7l7-40.6L357.7,220
		c-3-2.4-4.2-6.4-3.1-10.1c1.1-3.7,4.3-6.3,8.2-6.7l46.4-4.6l17.7-39.1c1.6-3.4,4.9-5.6,8.7-5.6c3.8,0,7.3,2.3,8.8,5.8l16.8,40
		l38.5,5.2c3.7,0.5,6.7,3.1,7.8,6.7c1.1,3.6,0,7.4-2.8,9.9l-28,24.7l6.2,37.6c0.5,2.8-0.3,5.6-2.1,7.7c-1.8,2.1-4.5,3.4-7.3,3.4
		c-1.6,0-3.2-0.4-4.6-1.2l-33.1-18.2l-36.4,22.5C397.7,299,396,299.5,394.2,299.5"/>
	<path id="XMLID_260_" class="st0" d="M435.5,159.1c1.6,0,3.2,0.9,3.9,2.6l17,40.5c0.6,1.4,1.9,2.4,3.4,2.6l39,5.3
		c3.6,0.5,5,5,2.2,7.4l-28.4,25c-1.1,1-1.6,2.4-1.4,3.9l6.3,38.1c0.5,2.8-1.7,5-4.2,5c-0.7,0-1.4-0.2-2.1-0.5l-33.6-18.5
		c-0.6-0.4-1.3-0.5-2.1-0.5c-0.8,0-1.6,0.2-2.3,0.6l-36.8,22.8c-0.7,0.5-1.5,0.7-2.2,0.7c-2.5,0-4.7-2.2-4.2-5l7.1-41.2
		c0.3-1.5-0.3-3.1-1.5-4L361,215.9c-3-2.4-1.5-7.2,2.3-7.6l46.9-4.6c1.5-0.1,2.8-1.1,3.5-2.5l17.9-39.6
		C432.4,160,433.9,159.1,435.5,159.1 M435.5,148.7c-5.8,0-11,3.4-13.4,8.7l-16.4,36.3l-43.4,4.3c-6,0.6-10.9,4.7-12.7,10.4
		c-1.7,5.7,0.2,11.9,4.8,15.7l31.8,25.8l-6.5,37.6c-0.7,4.3,0.4,8.7,3.2,12c2.8,3.3,6.9,5.3,11.3,5.3c2.7,0,5.4-0.8,7.8-2.2
		l33.8-20.9l30.5,16.7c2.2,1.2,4.6,1.8,7.1,1.8c4.3,0,8.4-1.9,11.3-5.2c2.8-3.3,4-7.6,3.3-11.9l-5.7-34.7l25.9-22.8
		c4.3-3.8,6-9.8,4.4-15.3c-1.7-5.5-6.4-9.6-12.1-10.3l-35.5-4.8l-15.6-37.3C446.8,152.2,441.5,148.7,435.5,148.7"/>
	<path id="XMLID_261_" class="st0" d="M249.1,458.6c0,0,29.2-6.1,48.5-14.5L249.1,458.6"/>
	<path id="XMLID_262_" class="st0" d="M250.1,463.8l-2.1-10.2c0.3-0.1,28.9-6.1,47.5-14.2l4.2,9.6
		C280.1,457.5,251.3,463.5,250.1,463.8"/>
	<path id="XMLID_264_" class="st12" d="M261.9,268.4L247.4,406c1.7-6.6,3.3-13.3,4.9-20c0.8-3.6,1.5-7.2,2.2-10.9
		c0.6-3.6,1.2-7.3,1.8-10.9l1.4-11c0.4-3.7,0.8-7.3,1.3-11c0.4-3.7,0.7-7.4,1-11c0.4-3.7,0.6-7.4,0.8-11.1l0.4-5.5l0.3-5.5
		c0.1-3.7,0.4-7.4,0.4-11.1l0.2-11.1l0-11.1C262,273.3,262,270.9,261.9,268.4"/>
	<path id="XMLID_265_" class="st0" d="M262.8,259.3l-1,9.1c0.1,2.5,0.2,4.9,0.1,7.4l0,11.1l-0.2,11.1c0,3.7-0.3,7.4-0.4,11.1
		l-0.3,5.5l-0.4,5.5c-0.3,3.7-0.5,7.4-0.8,11.1c-0.4,3.7-0.6,7.4-1,11c-0.4,3.7-0.8,7.3-1.3,11l-1.4,11c-0.6,3.7-1.1,7.3-1.8,10.9
		c-0.7,3.6-1.4,7.3-2.2,10.9c-1.5,6.7-3.1,13.4-4.9,20l-1.8,17.1c4.5-19.7,10.2-48.7,13.8-83.6C261.7,316.5,263.4,289.2,262.8,259.3
		"/>
	<path id="XMLID_266_" class="st0" d="M267,219.8l-4.2,39.5c0.5,29.9-1.1,57.2-3.5,80.2c-3.6,34.8-9.3,63.9-13.8,83.6l-3.9,37.2
		l7.4-1.7l-1.1-5.1c0,0,0.2,0,0.5-0.1c0.4-1.3,2.1-6.9,4.4-15.9c-0.1-6.1,0.1-12.2,0.4-18.5l0-0.1c0.2-3.9,2.6-7.2,5.9-8.9
		c6.8-33.3,14.4-83,14.4-140c0-12.8-0.4-25.9-1.2-39.3C270.4,227.3,268.7,223.6,267,219.8"/>
	<path id="XMLID_267_" class="st0" d="M259.1,410.1c-3.3,1.6-5.7,4.9-5.9,8.9l0,0.1c-0.3,6.3-0.4,12.4-0.4,18.5
		C254.6,430.4,256.8,421.1,259.1,410.1"/>
	<path id="XMLID_271_" class="st0" d="M420.7,368.5c-5.9,6.2-13.2,13.2-21.8,20.7l18.2-7l4.1-3.8L420.7,368.5 M446.4,357.8l0.8,9.3
		l34.1,10.9C471.4,371.2,459.9,364.3,446.4,357.8"/>
	<path id="XMLID_272_" class="st8" d="M434.8,352.6c-3.2,4-7.9,9.4-14.1,15.9l0.5,10l15.9-14.6l10.1,3.2l-0.8-9.3
		C442.7,356,438.8,354.3,434.8,352.6"/>
	<path id="XMLID_277_" class="st13" d="M438,342.5C438,342.6,438.1,342.6,438,342.5C438.1,342.6,438,342.6,438,342.5 M437.8,342.5
		c0,0,0.1,0,0.1,0.1C437.9,342.5,437.9,342.5,437.8,342.5 M435.8,281.6L402,302.5c-2.3,1.5-5,2.2-7.8,2.2c-4.4,0-8.5-1.9-11.3-5.3
		c-2.8-3.3-4-7.7-3.2-12l1-5.8c-7.8,2-16,3.4-24.3,3.7c-1.1,81.2-16.7,132.2-16.9,133c-5.8,3.3-11.9,6.6-18.3,9.7c0,0,0,0,0,0
		c73.5-36.1,110.2-88.3,110.2-88.3c2.2,0.9,4.3,1.7,6.4,2.6c-2.1-0.9-4.2-1.8-6.4-2.6c5.7-18.3,9.3-36.6,11.4-54.4L435.8,281.6
		 M540.7,258.4c-7,7.3-15.3,11.5-24.1,13.6c-2.7,43.2-10.7,78.4-15.1,95.1c2.3-3.4,4.4-6.9,6.5-10.4
		C526.2,325,533.9,289.6,540.7,258.4C540.7,258.5,540.7,258.4,540.7,258.4"/>
	<path id="XMLID_278_" class="st0" d="M431.4,339.8c0,0-36.7,52.3-110.2,88.3c0.5,0.1,1,0.2,1.5,0.4l65-35.1l11.1-4.2
		c8.6-7.5,15.9-14.5,21.8-20.7c6.2-6.5,10.9-12,14.1-15.9c4,1.7,7.8,3.5,11.5,5.3c13.5,6.5,25.1,13.4,34.9,20.2l9.9,3.1
		c1.5-1.8,3-3.7,4.4-5.6l-7.3-5.4c-13.6-9.5-30.2-19-50.2-27.6c0,0,0,0-0.1,0c0,0,0,0-0.1,0c0,0-0.1,0-0.1-0.1c0,0,0,0,0,0
		C435.7,341.6,433.6,340.7,431.4,339.8"/>
	<path id="XMLID_281_" class="st0" d="M297.1,438.8c-0.5,0.2-1,0.4-1.5,0.6l0.5,1.1C296.4,439.9,296.7,439.4,297.1,438.8
		 M552.2,240.8c-3.2,7.3-7.1,13.1-11.5,17.7c0,0,0,0,0,0c-6.8,31.2-14.5,66.5-32.7,98.2c-2.1,3.6-4.2,7.1-6.5,10.4
		c-1.8,6.8-3,10.6-3,10.6l-3-2.2c-1.4,1.9-2.9,3.8-4.4,5.6l6.1,1.9l17.8-17.7L552.2,240.8"/>
	<path id="XMLID_282_" class="st0" d="M321.2,428.2c-7.6,3.8-15.7,7.3-24.1,10.7c-0.4,0.6-0.7,1.1-1.1,1.7l0.9,2l25.9-14
		C322.3,428.4,321.8,428.3,321.2,428.2C321.2,428.2,321.2,428.2,321.2,428.2"/>
	<path id="XMLID_283_" class="st8" d="M286.9,442.6c-3.3,1.2-6.6,2.3-10,3.4C280.2,445,283.7,443.9,286.9,442.6
		C287,442.7,286.9,442.7,286.9,442.6"/>
	<path id="XMLID_284_" class="st0" d="M292.7,440.5c-1.9,0.7-3.9,1.4-5.8,2.1c0,0,0,0,0.1,0C288.9,442,290.9,441.3,292.7,440.5"/>
	<path id="XMLID_287_" class="st14" d="M516.7,272.1c-4.8,1.1-9.8,1.6-14.8,1.6c-5.3,0-10.6-0.6-15.8-1.5l1.8,10.8
		c0.7,4.3-0.5,8.6-3.3,11.9c-2.8,3.3-6.9,5.2-11.3,5.2c-2.5,0-4.9-0.6-7.1-1.8l-23.4-12.8c-2.1,17.8-5.7,36-11.4,54.4
		c2.2,0.9,4.3,1.7,6.4,2.6c0,0,0,0,0,0c0,0,0.1,0,0.1,0.1c0,0,0,0,0.1,0c0,0,0,0,0.1,0c20,8.5,36.6,18.1,50.2,27.6l7.3,5.4l3,2.2
		c0,0,1.2-3.8,3-10.6C505.9,350.4,513.9,315.3,516.7,272.1 M272.2,230.7c0.8,13.4,1.2,26.5,1.2,39.3c0,57.1-7.5,106.8-14.4,140
		c-2.3,11.1-4.5,20.3-6.3,27.4c-2.3,9.1-4,14.6-4.4,15.9c2.6-0.6,15.2-3.3,28.4-7.4c3.4-1.1,6.8-2.2,10-3.4c2-0.7,3.9-1.4,5.8-2.1
		c1-0.4,1.9-0.8,2.8-1.2l0,0.1c0.5-0.2,1-0.4,1.5-0.6c8.4-3.3,16.5-6.9,24.1-10.7c6.4-3.1,12.4-6.4,18.3-9.7
		c0.2-0.8,15.8-51.8,16.9-133c-1.3,0-2.5,0.1-3.8,0.1C324.1,285.5,294.1,272.7,272.2,230.7"/>
	<path id="XMLID_288_" class="st15" d="M438.2,254c0,0-19.5,15-46.3,24.3l-1.9,10.9c-0.5,2.8,1.7,5,4.2,5c0.7,0,1.5-0.2,2.2-0.7
		l36.8-22.8c0.7-0.4,1.5-0.6,2.3-0.6c0.7,0,1.4,0.2,2.1,0.5l33.6,18.5c0.7,0.4,1.4,0.5,2.1,0.5c2.5,0,4.7-2.2,4.2-5l-2.5-15
		C454.4,263.9,438.2,254,438.2,254"/>
	<path id="XMLID_289_" class="st0" d="M475,269.7l2.5,15c0.5,2.8-1.7,5-4.2,5c-0.7,0-1.4-0.2-2.1-0.5l-33.6-18.5
		c-0.6-0.4-1.3-0.5-2.1-0.5c-0.8,0-1.6,0.2-2.3,0.6l-36.8,22.8c-0.7,0.5-1.5,0.7-2.2,0.7c-2.5,0-4.7-2.2-4.2-5l1.9-10.9
		c-3.6,1.3-7.4,2.4-11.2,3.4l-1,5.8c-0.7,4.3,0.4,8.7,3.2,12c2.8,3.3,6.9,5.3,11.3,5.3c2.7,0,5.4-0.8,7.8-2.2l33.8-20.9l7.1,3.9
		l23.4,12.8c2.2,1.2,4.6,1.8,7.1,1.8c4.3,0,8.4-1.9,11.3-5.2c2.8-3.3,4-7.6,3.3-11.9l-1.8-10.8C482.3,271.5,478.6,270.7,475,269.7"
		/>
	<path id="XMLID_290_" class="st0" d="M295.5,439.3c-0.9,0.4-1.8,0.8-2.8,1.2c-1.8,0.7-3.8,1.5-5.7,2.2c-3.3,1.2-6.7,2.3-10.1,3.3
		c-13.2,4-25.8,6.8-28.4,7.4c-0.3,0.1-0.5,0.1-0.5,0.1l1.1,5.1l31.5-7.2l16.4-8.8l-0.9-2L295.5,439.3L295.5,439.3"/>
	<path id="XMLID_293_" class="st0" d="M406.3,78.7h-5.4v12.1l6.1,0.1L406.3,78.7 M427,78.7h-4.7l1.1,12.5l3.7,0.1V78.7"/>
	<polyline id="XMLID_294_" class="st8" points="422.3,78.7 406.3,78.7 406.9,90.9 423.4,91.2 422.3,78.7 	"/>
	<polyline id="XMLID_295_" class="st0" points="400.9,90.8 400.9,95.7 427,95.7 427,91.3 423.4,91.2 406.9,90.9 400.9,90.8 	"/>
	<path id="XMLID_299_" class="st0" d="M297.7,659.9l-27.7,34.2l-2.6,3.2c-0.8,1-1.8,1.8-2.8,2.4c-0.1,1.4-0.6,2.8-1.6,4l-31.3,37.6
		c-1.3,1.6-3.3,2.5-5.4,2.5c-0.7,0-1.4-0.1-2-0.3c-1.5-0.5-3.1-1.1-4.6-2l4.1,10.1l17.8-7l34.5-44l-0.4-11.8L297.7,659.9
		 M214.4,630.2l-7.3,6.1l-2.6,2.2c-1.2,1-2.5,1.6-3.8,2c-0.4,0.9-1,1.7-1.8,2.4l-32.3,27.2c-1.3,1.1-2.8,1.6-4.4,1.6
		c-1.1,0-2.1-0.3-3.1-0.8c-2.1-1.1-4.1-2.7-6-4.8v10.2l23.8-3.1l32.3-35.3L214.4,630.2 M169.3,572.6l-13.9,7.1l-2.4,1.2
		c-1.5,0.7-3,1.1-4.6,1.1c-0.1,0-0.2,0-0.2,0c-0.5,0.6-1.1,1.1-1.8,1.4L113.2,601c-1,0.5-2.1,0.8-3.1,0.8c-1.7,0-3.3-0.6-4.6-1.8
		c-1.4-1.3-2.6-2.9-3.7-4.7l-2.1,15L146,592L169.3,572.6"/>
	<path id="XMLID_304_" class="st8" d="M381.3,492.2L325.9,538c1.3,1.1,2.6,2.2,3.9,3.3l38.4-34.4c2.8,0.3,5.7,0.6,8.6,0.9l9.8-12.8
		C384.8,494.2,383,493.3,381.3,492.2 M333.4,488.4l-35.1,18c0.7,1,1.4,2,2.1,3l20.2-10.9c0.8,0.3,1.7,0.5,2.6,0.8l11.3-9.9
		C334.1,489.1,333.8,488.7,333.4,488.4 M292.9,465.7c0.4,3.2,1.2,6.2,2.1,9l1.4-0.8C294.9,471.5,293.7,468.7,292.9,465.7
		 M498.6,456.9l-1.1,1c-2.1,6.5-5.3,12.5-9.4,17.6c-8.7,10.9-20.4,16.9-33.1,16.9c-6.4,0-12.6-1.5-18.2-4.5l-62.2,76.8
		c1.4,0.4,2.7,0.7,4.1,1l45.7-58.3C455.8,503.5,485.7,490.4,498.6,456.9"/>
	<path id="XMLID_307_" class="st0" d="M342.2,604.9l-0.9,1.1l3.9,2.6l1-1.2L342.2,604.9 M296.2,562.5l-0.2,0.1l3.5,5.7l0.6-0.6
		L296.2,562.5"/>
	<path id="XMLID_308_" class="st16" d="M374.6,564.8l-16.8,20.8c1.4,0.6,2.8,1.1,4.1,1.6l16.8-21.5
		C377.4,565.5,376,565.1,374.6,564.8"/>
	<path id="XMLID_311_" class="st16" d="M325.9,538l-15.7,13c1.3,1.5,2.6,3,4,4.4l15.7-14C328.5,540.2,327.2,539.1,325.9,538
		 M298.3,506.4l-12.3,6.3c0.5,1.2,1.1,2.4,1.7,3.5l12.8-6.9C299.6,508.4,298.9,507.4,298.3,506.4"/>
	<path id="XMLID_312_" class="st17" d="M345.7,600.5l-0.4,0.5c1.3,0.8,2.7,1.5,4.1,2.2l0.4-0.5C348.4,602,347.1,601.3,345.7,600.5"
		/>
	<path id="XMLID_313_" class="st0" d="M345.3,601l-3.1,3.9l4,2.4l3.2-4.1C348,602.5,346.7,601.8,345.3,601"/>
	<path id="XMLID_314_" class="st17" d="M276.8,518.4c0.4,1,0.8,2.1,1.2,3.1l0,0C277.6,520.4,277.2,519.4,276.8,518.4"/>
	<path id="XMLID_315_" class="st0" d="M276.5,517.6l-4.1,2.1l0.9,4.3l4.6-2.5c-0.4-1-0.8-2-1.2-3.1
		C276.7,518.1,276.6,517.8,276.5,517.6"/>
	<path id="XMLID_316_" class="st17" d="M299.3,560l-0.2,0.1c1.3,1.7,2.6,3.5,4,5.1l0.2-0.2C301.9,563.5,300.6,561.7,299.3,560"/>
	<path id="XMLID_317_" class="st0" d="M299.1,560.1l-2.9,2.4l4,5.3l2.8-2.6C301.7,563.6,300.4,561.9,299.1,560.1"/>
	<path id="XMLID_318_" class="st18" d="M357.8,585.6l-12.1,14.9c1.4,0.8,2.7,1.5,4.1,2.2l12.1-15.5
		C360.6,586.7,359.2,586.2,357.8,585.6"/>
	<path id="XMLID_319_" class="st18" d="M285.9,512.7l-9.4,4.8c0.1,0.3,0.2,0.5,0.3,0.8c0.4,1,0.8,2,1.2,3.1l9.6-5.2
		C287,515.1,286.5,513.9,285.9,512.7"/>
	<path id="XMLID_320_" class="st19" d="M276.5,517.6L276.5,517.6c0.1,0.3,0.2,0.5,0.3,0.8C276.7,518.1,276.6,517.8,276.5,517.6"/>
	<path id="XMLID_321_" class="st18" d="M310.2,551l-11,9.1c1.3,1.7,2.6,3.4,4,5.1l10.9-9.8C312.8,553.9,311.5,552.5,310.2,551"/>
	<path id="XMLID_324_" class="st0" d="M386.7,495l-9.8,12.8c3.9,0.3,7.9,0.6,12,0.8l8.6-11.3c-2.6-0.1-5.1-0.5-7.6-1.3l-0.9,0.4
		l-1.2-1.1C387.4,495.3,387,495.1,386.7,495 M428.5,482.3L262.3,687.8l-0.7,0.9l2.8,8.4c0.3,0.9,0.4,1.8,0.3,2.6
		c1.1-0.6,2-1.4,2.8-2.4l2.6-3.2l27.7-34.2l41.9-55l1.7,1.1l0.9-1.1l3.1-3.9l0.4-0.5l12.1-14.9l16.8-20.8l62.2-76.8
		C433.9,486.4,431.1,484.5,428.5,482.3"/>
	<polyline id="XMLID_325_" class="st0" points="343.4,494.9 335.5,501.8 335.5,501.8 343.4,494.9 343.4,494.9 	"/>
	<path id="XMLID_329_" class="st0" d="M334.5,489.4l-11.3,9.9c2.2,0.6,4.6,1.1,7,1.6c1.5,0.3,3.3,0.6,5.3,0.9l7.9-6.9
		C340.2,493.6,337.2,491.8,334.5,489.4 M344.8,514.7l11-9.5c0.2,0,0.5,0.1,0.7,0.1L344.8,514.7 M374.1,486.4
		c-3.3,3.8-7.3,6.7-11.7,8.4L200.7,628.6l-0.6,0.5c0,0.1,0,0.2,0,0.3l1,7.3c0.2,1.3,0,2.6-0.6,3.8c1.4-0.4,2.7-1,3.8-2l2.6-2.2
		l7.3-6.1l5.5-7.9l73.7-63.6l2.4,3.9l0.2-0.1l2.9-2.4l0.2-0.1l11-9.1l15.7-13l55.4-45.8C378.7,490.6,376.3,488.7,374.1,486.4"/>
	<path id="XMLID_332_" class="st0" d="M328.7,482.5c-3.6,2.3-7.7,3.7-12,3.7c-0.3,0-0.6,0-0.8,0l-164.9,84.6l-0.5,0.2
		c0,0.3,0,0.6,0,1l-0.4,6c-0.1,1.5-0.7,2.9-1.7,4c0.1,0,0.2,0,0.2,0c1.5,0,3.1-0.4,4.6-1.1l2.4-1.2l13.9-7.1l13.9-11.6l126.5-67.6
		c0.3,0.2,0.5,0.3,0.8,0.5l-39.2,20.4l1.1,5.3l4.1-2.1l0,0l9.4-4.8l12.3-6.3l35.1-18c-1-0.9-1.9-1.9-2.7-3
		C330,484.4,329.3,483.5,328.7,482.5 M296.4,474l-1.4,0.8c1.1,3.2,2.6,6.2,4.5,8.9l3.7-2C300.6,479.6,298.2,477,296.4,474"/>
	<path id="XMLID_333_" class="st9" d="M427.6,481.5c-0.4,0.6-0.9,1.2-1.4,1.8c-7.1,8.9-17.1,14-27.4,14c-0.4,0-0.9,0-1.3,0
		l-8.6,11.3c2.4,0.1,4.8,0.2,7.2,0.2l-136,177c0.6,0.7,1,1.5,1.3,2.3l0.1,0.4l0.7-0.9l166.2-205.5
		C428.2,482.1,427.9,481.8,427.6,481.5"/>
	<path id="XMLID_334_" class="st9" d="M362.4,494.8c-3.1,1.2-6.3,1.8-9.6,1.8c-3.2,0-6.4-0.6-9.4-1.8l-7.9,6.9
		c2.8,0.5,6.1,1.1,9.8,1.8l0,0L198.7,626c0.7,0.9,1.2,1.9,1.4,3l0.6-0.5L362.4,494.8"/>
	<path id="XMLID_335_" class="st9" d="M303.3,481.6l-3.7,2c0.8,1.1,1.6,2.2,2.5,3.2l-152.5,81.3c0.5,0.9,0.8,1.8,0.9,2.8l0.5-0.2
		l164.9-84.6C311.2,486,306.9,484.3,303.3,481.6"/>
	<path id="XMLID_336_" class="st0" d="M292.3,456.9c0,3.1,0.2,6,0.6,8.8c0.8,3,2,5.8,3.5,8.2c1.9,3,4.2,5.6,6.9,7.6
		c3.6,2.7,7.9,4.4,12.5,4.6l0,0c0.3,0,0.6,0,0.8,0c4.4,0,8.5-1.3,12-3.7c-0.7-1.1-1.3-2.2-1.9-3.3l-21.8,2.7L292.3,456.9"/>
	<path id="XMLID_337_" class="st0" d="M330.2,478.8l-3.4,0.4c0.6,1.1,1.2,2.2,1.9,3.3c0.6,1,1.3,1.9,2,2.8c0.9,1.1,1.8,2.1,2.7,3
		c0.4,0.3,0.7,0.7,1.1,1c2.7,2.4,5.7,4.3,8.9,5.5h0c3,1.2,6.2,1.8,9.4,1.8c3.3,0,6.5-0.6,9.6-1.8l0,0c4.4-1.7,8.4-4.6,11.7-8.4
		c-0.5-0.5-1-1-1.4-1.6l-27.4,8.4L334,482.5l-0.4-0.5l-0.1,0.1L330.2,478.8"/>
	<path id="XMLID_340_" class="st0" d="M375.5,484l-2.9,0.9c0.5,0.5,1,1.1,1.4,1.6c2.2,2.3,4.6,4.2,7.2,5.8c1.7,1.1,3.6,2,5.4,2.8
		c0.4,0.1,0.7,0.3,1.1,0.4l-3.3-3l0.3-0.3l-5.3-5.2l-0.5,0.4L375.5,484 M423.8,477.7l-6.7,6.6l-27.3,11.8c2.5,0.7,5,1.1,7.6,1.3
		c0.4,0,0.9,0,1.3,0c10.4,0,20.4-5.1,27.4-14c0.5-0.6,0.9-1.2,1.4-1.8C426.3,480.4,425,479.1,423.8,477.7"/>
	<path id="XMLID_341_" class="st0" d="M497.5,457.9l-22.9,20.5l-21.8,8.5l-20.6-9.1l-2.5,1.1l-3.7-3.3l-2.2,2.2
		c1.2,1.4,2.5,2.7,3.8,3.9c0.3,0.3,0.6,0.5,0.9,0.8l0,0c2.6,2.2,5.4,4.1,8.3,5.6c5.7,2.9,11.8,4.5,18.2,4.5c12.7,0,24.4-6,33.1-16.9
		C492.2,470.3,495.4,464.4,497.5,457.9"/>
	<path id="XMLID_342_" class="st9" d="M147.7,569.2l-44.8,23.9c0,0,0,0,0,0c1.2,2.2,2.5,4,4,5.4c0.9,0.8,2,1.2,3.1,1.2
		c0.7,0,1.5-0.2,2.2-0.5l33.2-17.6c1.4-0.7,2.3-2.2,2.4-3.7l0.4-6C148.4,570.9,148.2,570,147.7,569.2"/>
	<path id="XMLID_343_" class="st9" d="M149.5,568.2l-1.8,1c0.5,0.8,0.7,1.7,0.6,2.7l-0.4,6c-0.1,1.6-1,3-2.4,3.7l-33.2,17.6
		c-0.7,0.4-1.4,0.5-2.2,0.5c-1.1,0-2.3-0.4-3.1-1.2c-1.5-1.4-2.8-3.2-4-5.4c0,0,0,0,0,0l-0.9,0.5l-0.2,1.7c1.1,1.9,2.4,3.5,3.7,4.7
		c1.3,1.2,2.9,1.8,4.6,1.8c1.1,0,2.2-0.3,3.1-0.8l33.2-17.6c0.7-0.4,1.3-0.9,1.8-1.4c1-1.1,1.6-2.5,1.7-4l0.4-6c0-0.3,0-0.6,0-1l0,0
		C150.3,570.1,150,569.1,149.5,568.2"/>
	<path id="XMLID_344_" class="st9" d="M196.9,627.5l-43.1,36c1.9,2.3,4,4.1,6.2,5.2c0.6,0.3,1.3,0.5,2,0.5c1,0,2.1-0.4,2.9-1.1
		l32.3-27.2c1.2-1,1.8-2.5,1.6-4.1l-1-7.3C197.7,628.8,197.4,628.1,196.9,627.5"/>
	<path id="XMLID_345_" class="st9" d="M198.7,626l-1.8,1.5c0.5,0.6,0.8,1.3,0.9,2.1l1,7.3c0.2,1.5-0.4,3.1-1.6,4.1L165,668.2
		c-0.8,0.7-1.9,1.1-2.9,1.1c-0.7,0-1.4-0.2-2-0.5c-2.2-1.2-4.2-2.9-6.2-5.2l-0.9,0.7v1.7c1.9,2.1,3.9,3.7,6,4.8c1,0.5,2,0.8,3.1,0.8
		c1.6,0,3.2-0.5,4.4-1.6l32.3-27.2c0.8-0.7,1.4-1.5,1.8-2.4c0.5-1.2,0.7-2.5,0.6-3.8l-1-7.3c0-0.1,0-0.2,0-0.3l0,0
		C199.9,627.9,199.4,626.9,198.7,626"/>
	<path id="XMLID_346_" class="st9" d="M258.5,688l-38.7,50.4c1.8,1.2,3.6,2,5.4,2.5c0.4,0.1,0.8,0.2,1.3,0.2c1.3,0,2.5-0.6,3.4-1.6
		L261,702c1-1.2,1.3-2.7,0.8-4.1l-2.9-8.8C258.8,688.7,258.7,688.3,258.5,688"/>
	<path id="XMLID_347_" class="st9" d="M260.1,685.9l-1.7,2.1c0.2,0.3,0.4,0.6,0.5,1l2.9,8.8c0.5,1.4,0.2,3-0.8,4.1l-31.3,37.6
		c-0.8,1-2.1,1.6-3.4,1.6c-0.4,0-0.8-0.1-1.3-0.2c-1.8-0.5-3.6-1.4-5.4-2.5l-0.8,1l0.8,2c1.5,0.9,3.1,1.5,4.6,2
		c0.7,0.2,1.3,0.3,2,0.3c2,0,4-0.9,5.4-2.5l31.3-37.6c1-1.2,1.5-2.6,1.6-4c0.1-0.9-0.1-1.8-0.3-2.6l-2.8-8.4l-0.1-0.4
		C261.1,687.4,260.7,686.6,260.1,685.9"/>
	<path id="XMLID_348_" class="st20" d="M478.1,389.1c-3-2-11-6.7-19-7.2v-17.1c4.2,2.3,14.4,8.2,23.7,15.2L478.1,389.1z"/>
	<path id="XMLID_351_" class="st0" d="M460.5,367c4.7,2.7,13,7.6,20.7,13.3l-3.6,6.9c-3.5-2.2-10.2-5.8-17.1-6.5V367 M457.9,362.5
		v20.6c10,0,20.8,7.8,20.8,7.8l5.9-11.4C472.2,370,457.9,362.5,457.9,362.5z"/>
	<path id="XMLID_352_" class="st20" d="M369,424.6c-1.4-1.6-4-3.9-8-4.4c9.7-6.5,35.2-24,48.3-38v26.8c-1.7-0.4-4.6-0.9-8.3-0.9
		C391.9,408.1,379.2,411,369,424.6z"/>
	<path id="XMLID_355_" class="st0" d="M408,385.4v22c-1.8-0.3-4.2-0.6-7-0.6c-9.1,0-21.8,2.8-32.1,15.8c-1.2-1.1-2.7-2.2-4.8-3
		C374.5,412.6,395.4,397.9,408,385.4 M410.6,378.7c-14.7,17.3-54.1,42.8-54.1,42.8c0.9-0.2,1.8-0.3,2.6-0.3c6.8,0,10,5.5,10,5.5
		c10.1-14.5,23.2-17.4,31.9-17.4c5.7,0,9.6,1.2,9.6,1.2V378.7z"/>
	<path id="XMLID_356_" class="st0" d="M291.3,452.7c0,0,34.7-11.3,53.4-20.9l-5.9-11.9l-49.6,27.5L291.3,452.7z"/>
</g>
</svg>
