<?xml version="1.0" encoding="utf-8"?>
<!-- Generator: Adobe Illustrator 19.0.0, SVG Export Plug-In . SVG Version: 6.00 Build 0)  -->
<svg version="1.1" id="Layer_1" xmlns="http://www.w3.org/2000/svg" xmlns:xlink="http://www.w3.org/1999/xlink" x="0px" y="0px"
	 viewBox="0 0 792 792" style="enable-background:new 0 0 792 792;" xml:space="preserve">
<style type="text/css">
	.st0{fill:#BE202E;}
	.st1{fill:#E74450;}
	.st2{fill:#231F20;}
	.st3{fill:#F89521;}
	.st4{fill:#AC292F;}
	.st5{fill:#CB454C;}
	.st6{fill:#D7842A;}
</style>
<g id="XMLID_2_">
	<path id="XMLID_10_" class="st0" d="M638.8,696.5c-87.3-44.1-172.6-92-256-143.2c-86.1,57.8-170,118.9-248.8,186.3
		C96.3,517.4,171.2,294.3,134,72c172.1,10.2,344.1,20.4,516.2,30.6C680.1,300.9,612.8,498.1,638.8,696.5"/>
	<path id="XMLID_11_" class="st1" d="M251.1,646.1c-40,30-79.1,61-117,93.5C96.3,517.4,171.2,294.3,134,72c43,2.6,86,5.1,129,7.7
		C293.9,268.5,242.5,456.7,251.1,646.1"/>
	<path id="XMLID_12_" class="st1" d="M505.2,625.4c-42.8-23.2-85.1-47.2-127-71.9c6.8-155.5,38.8-310.6,14-466.1
		c43,2.6,86,5.1,129,7.7C548.7,272.1,500.6,448,505.2,625.4"/>
	<path id="XMLID_15_" class="st2" d="M633.6,707.3c-11.2-5.9-22.3-11.9-33.4-17.9c-11-5.9-22-11.9-33-18c-10.9-6-21.7-12-32.5-18.1
		c-6.5-3.6-9.7-5.4-16.1-9.1c-6.4-3.6-9.6-5.4-16-9.1c-10.6-6.1-21.2-12.2-31.7-18.3c-10.5-6.1-20.9-12.3-31.3-18.5
		c-6.2-3.7-9.3-5.6-15.5-9.3c-6.2-3.7-9.3-5.6-15.5-9.3c-10.3-6.2-20.5-12.5-30.7-18.8c3.9-0.2,5.8-0.2,9.6-0.4
		c-22,14.7-43.8,29.8-65.3,45.3c-6.4,4.7-9.6,7-15.9,11.7c-6.3,4.7-9.5,7.1-15.7,11.8c-10.4,7.9-20.7,15.8-30.9,23.8
		c-10.1,7.9-20.2,15.9-30.2,24c-9.9,8-19.8,16-29.6,24.1c-9.7,8-19.4,16-29,24.1c-9.5,8-18.9,16.1-28.2,24.3
		c-4.7,4.2-12.5,3-17.2-2.6c-1.8-2.1-2.8-4.4-3.3-6.8l0,0c-2.4-13.9-4.5-27.8-6.2-41.8c-1.5-13.9-2.7-27.8-3.7-41.8
		c-1.5-27.9-1.8-55.7-1.3-83.6c1.7-55.9,6.5-111.6,11.7-167.2c5.1-55.7,9.9-111.3,11.5-167.3c0.3-13.9,0.3-27.9,0.2-41.8
		c-0.3-14-0.9-27.9-1.6-41.8c-1-14-2.2-27.9-3.8-41.8c-1.8-14-3.9-27.9-6.4-41.8c-1.2-6.6,2.8-11.7,9.1-11.3l0.1,0
		c10.7,0.6,21.5,1.1,32.2,1.7c10.7,0.5,21.5,1,32.2,1.6c21.5,1,42.9,2.1,64.4,3.1c10.7,0.6,21.5,1.1,32.2,1.7
		c10.7,0.6,21.5,1.2,32.2,1.8c10.8,0.6,21.5,1.3,32.3,1.9c10.8,0.7,21.5,1.4,32.3,2c21.5,1.4,43.1,2.8,64.6,4.2
		c21.5,1.4,43.1,2.9,64.6,4.3c43.1,3,86.2,5.9,129.3,8.9l0.2,0c6.7,0.5,13,5.9,14,12.2l0,0c7,49.2,8.3,98.4,6.4,148
		c-1.2,24.7-3,49.4-5.2,74.1c-2.3,24.7-4.9,49.4-7.5,74.1c-2.6,24.7-5.1,49.4-7.4,74.1c-1.1,12.3-2,24.7-2.9,37
		c-0.8,12.4-1.4,24.7-2,37c-0.5,12.3-0.7,24.7-0.7,37c0,12.3,0.3,24.7,0.8,37c0.6,12.4,1.5,24.7,2.7,37c0.8,7.4,1.2,11.1,2.2,18.5
		c1,7.4,1.6,11.1,2.8,18.5l0,0.1c1.1,6.7-3.5,12.5-10.4,13.1C638.6,709.2,635.9,708.6,633.6,707.3 M623.9,675.9
		c-0.6-6.4-0.8-9.6-1.2-15.9c-0.8-12.4-1.3-24.8-1.5-37.3c-0.2-12.4-0.2-24.8,0.1-37.2c0.2-12.4,0.7-24.8,1.4-37.2
		c0.7-12.4,1.6-24.8,2.5-37.2c1-12.4,2.1-24.8,3.3-37.2c2.3-24.8,4.9-49.6,7.6-74.4c2.5-24.8,5-49.6,7.1-74.4
		c1.9-24.8,3.4-49.5,4.3-74.4c1-50-1.3-99.4-9.3-148.8c5.6,4.9,8.4,7.3,13.9,12.2c-42.9-2.1-85.9-4.3-128.8-6.4
		c-21.5-1.1-42.9-2.2-64.4-3.3c-21.5-1.2-43-2.3-64.4-3.5c-10.7-0.6-21.5-1.2-32.2-1.8c-10.7-0.6-21.5-1.3-32.2-1.9
		c-10.8-0.7-21.5-1.4-32.3-2c-10.8-0.7-21.5-1.4-32.3-2.2c-21.5-1.5-43.1-3-64.6-4.5c-10.8-0.8-21.5-1.5-32.3-2.3
		c-10.8-0.7-21.5-1.4-32.3-2.2c3.9-4.5,5.8-6.8,9.5-11.3c2.3,13.9,4.2,27.7,5.8,41.7c1.4,13.9,2.6,27.7,3.5,41.7
		c0.7,13.9,1.3,27.8,1.4,41.7c0.2,13.9,0.1,27.8-0.2,41.7c-1.5,55.7-6.2,111.1-11.1,166.6c-4.8,55.5-9.4,110.9-10.7,166.5
		c-0.4,27.8,0.1,55.5,1.7,83.2c1,13.9,2.2,27.8,3.8,41.6c1.7,13.9,3.8,27.8,6.2,41.6c-8.2-3.8-12.2-5.7-20.3-9.4
		c9.6-8.1,19.3-16.1,29.1-24.1c9.9-8,19.9-15.9,29.9-23.8c10.2-7.8,20.5-15.6,30.8-23.3c10.5-7.7,21-15.3,31.6-22.8
		c10.7-7.6,21.4-15.1,32.2-22.5c6.5-4.5,9.7-6.7,16.3-11.2c6.5-4.5,9.8-6.7,16.4-11.2c22-15,44.1-29.9,66.2-44.8
		c3.1-2.1,6.8-2.1,9.6-0.4l0.1,0c10.2,6.2,20.4,12.5,30.6,18.6c6.2,3.7,9.2,5.5,15.4,9.2c6.2,3.6,9.3,5.5,15.5,9.1
		c10.4,6.1,20.9,12.1,31.3,18c10.6,6,21.1,11.8,31.8,17.7c6.4,3.5,9.6,5.3,16,8.7c6.4,3.5,9.7,5.2,16.1,8.6
		c10.8,5.7,21.7,11.4,32.6,17.1c11,5.6,22.1,11.2,33.1,16.7C615,671.6,619.4,673.7,623.9,675.9"/>
	<path id="XMLID_16_" class="st3" d="M383.9,410.2c-20.5,10.3-40.9,20.6-61.3,31.1c-8.7,4.5-17.7-2.6-15.2-12
		c5.8-22,11.6-43.9,17.3-65.9c1-3.7,0.1-7.5-2.3-10.1c-14.5-15.8-29-31.7-43.5-47.5c-6.2-6.8-1.8-18.4,7.5-19.5
		c22-2.7,43.9-5.5,65.9-8.1c3.7-0.5,7-2.7,8.8-6c10.5-19.4,20.8-38.8,30.8-58.5c4.2-8.3,16.2-7.8,20.3,0.7
		c9.5,19.8,18.7,39.7,27.6,59.7c1.5,3.3,4.5,5.7,8.2,6.3c21.6,3.6,43.2,7.2,64.8,10.8c9.2,1.5,12.1,12.7,4.9,18.9
		c-17,14.8-34.1,29.7-51.1,44.5c-2.9,2.5-4.5,6.2-4.2,9.8c1.7,21.4,3.2,42.7,4.8,64.1c0.7,9.1-9.6,16.1-17.5,11.8
		c-18.5-10-37-20.1-55.4-30.3C391.3,408.4,387.4,408.4,383.9,410.2"/>
	<path id="XMLID_23_" class="st2" d="M387.4,418.2c0,0-3.1,1.5-8.8,4.3c-2.9,1.4-6.4,3.2-10.6,5.2c-4.2,2-9,4.3-14.4,6.9
		c-5.4,2.5-11.4,5.3-17.9,8.4c-3.3,1.5-6.6,3.1-10.2,4.8c0,0-0.2,0.1-0.4,0.2c-0.3,0.1-0.5,0.2-0.3,0.1l-0.2,0.1
		c-0.1,0.1-0.2,0.1-0.3,0.1c-0.3,0.1-0.4,0.2-0.7,0.3c-0.1,0.1-0.2,0.1-0.3,0.1c-0.3,0.1-0.4,0.1-0.7,0.2c-0.5,0.1-0.9,0.3-1.4,0.4
		c-0.4,0.1-1,0.3-1.4,0.3c-0.5,0.1-0.7,0.1-1.2,0.1c-0.5,0-0.7,0.1-1.2,0.1c-0.5,0-0.7,0-1.2,0c-3.2-0.1-6.3-1.1-8.8-2.8
		c-2.6-1.7-4.6-4.2-5.9-7.2c-1.3-3-1.6-6.5-1-9.9c0.1-0.5,0.2-0.8,0.3-1.3c0.1-0.3,0.1-0.4,0.1-0.6c0-0.2,0.1-0.2,0.1-0.4
		c0.2-0.5,0.3-1.1,0.5-1.6c0.3-1.1,0.6-2.2,0.9-3.2c0.6-2.2,1.3-4.4,1.9-6.6c1.3-4.5,2.4-9.1,3.5-13.8c1.1-4.7,2.3-9.6,3.4-14.5
		c1.1-4.9,2.3-10,3.5-15.1c0.6-2.6,1.2-5.2,1.8-7.8c0.2-0.8,0.3-1.2,0.5-2c0.1-0.4,0.1-0.6,0.2-1c0,0.1,0-0.1,0-0.3
		c0-0.2,0.1-0.4,0-0.3l0,0l0-0.2c0-0.1,0-0.2,0-0.3c0-0.2-0.1-0.4-0.1-0.6c-0.1-0.4-0.3-0.8-0.5-1.1c-0.1-0.2-0.3-0.3-0.4-0.4
		c-0.5-0.6-0.8-0.8-1.3-1.4c-1.8-1.9-3.6-3.8-5.5-5.7c-3.7-3.8-7.4-7.8-11.1-11.8c-7.7-8.3-15.4-16.6-23-25c-0.6-0.6-0.9-1-1.5-1.6
		c-0.3-0.3-0.4-0.5-0.7-0.8c-0.1-0.2-0.2-0.2-0.4-0.4l-0.2-0.2c-0.1-0.1-0.1-0.1-0.1-0.1c0,0,0,0-0.5-0.6c-0.3-0.3-0.4-0.5-0.7-0.9
		c-0.1-0.2-0.2-0.3-0.3-0.4c-0.2-0.3-0.4-0.6-0.6-1c-0.4-0.7-0.8-1.4-1.2-2.1c-0.3-0.6-0.5-1.2-0.7-1.9c-0.8-2.5-1.2-5.2-1-7.9
		c0.2-2.7,0.9-5.3,2-7.8c1.2-2.4,2.8-4.7,4.8-6.5c0.3-0.3,0.5-0.4,0.8-0.7c0.3-0.2,0.5-0.4,0.8-0.6c0.6-0.4,1.1-0.8,1.7-1.2
		c1.2-0.7,2.4-1.3,3.7-1.7c1.3-0.5,2.6-0.7,3.9-0.9c0.4-0.1,0.5-0.1,0.7-0.1c0.2,0,0.3,0,0.6-0.1c0.5-0.1,0.7-0.1,1.1-0.1
		c1.5-0.2,3.1-0.4,4.6-0.5c12.5-1.4,25-2.9,37.4-4.3c6.3-0.7,12.7-1.5,19.1-2.2c1-0.1,1.4-0.2,2.4-0.3c0.1,0,0.2,0,0.3,0
		c-0.2,0-0.1,0,0,0c0.1,0,0.1,0,0.1,0c0.2,0,0.5-0.1,0.4-0.1l0,0l0.2,0c0.5-0.1,0.9-0.4,1.3-0.7c0.2-0.2,0.4-0.3,0.5-0.5
		c0.2-0.2,0.2-0.2,0.7-1.1c0.9-1.7,1.4-2.6,2.3-4.3c6.2-11.5,12.3-23.1,18.4-34.6c3-5.8,5.9-11.6,8.8-17.4c0.2-0.4,0.3-0.7,0.5-1.1
		c0.1-0.1,0.1-0.2,0.1-0.3c0,0,0.1-0.2,0.2-0.4c0.1-0.3,0.3-0.5,0.2-0.3c0.1-0.2,0.2-0.3,0.3-0.5c0.1-0.2,0.2-0.3,0.3-0.5
		c0.1-0.1,0.1-0.2,0.2-0.3c0.1-0.2,0.2-0.3,0.4-0.5c0.5-0.7,1-1.3,1.5-1.9c1.9-2,4.3-3.6,6.9-4.5c2.6-1,5.4-1.3,8.1-1.1
		c1.4,0.1,2.8,0.4,4.1,0.8c1.3,0.5,2.7,1,3.9,1.7c2.5,1.4,4.8,3.3,6.5,5.6c0.5,0.6,0.8,1.2,1.2,1.8c0.2,0.4,0.3,0.5,0.5,0.9
		c0.1,0.2,0.2,0.3,0.3,0.5c0.1,0.1,0.1,0.2,0.1,0.3c0.4,0.9,0.7,1.3,1.1,2.2c1.8,3.6,2.7,5.3,4.4,8.9c2.9,5.9,5.8,11.8,8.6,17.7
		c2.8,5.9,5.6,11.7,8.4,17.6c1.4,2.9,2.7,5.8,4.1,8.7c0.8,1.6,1.1,2.5,1.9,4.1c0.1,0.2,0.4,0.6,0.7,0.8c0.3,0.2,0.6,0.4,1,0.4
		c1.6,0.3,2.5,0.4,4.1,0.7c3.2,0.5,6.3,1.1,9.5,1.6c6.3,1.1,12.5,2.2,18.8,3.3c6.2,1.1,12.4,2.2,18.5,3.2c3.1,0.5,6.1,1.1,9.2,1.6
		c1.5,0.3,3,0.5,4.6,0.8c0.1,0,0.2,0,0.3,0c0,0,0.2,0,0.5,0.1c0.3,0.1,0.6,0.1,0.4,0.1c0.2,0.1,0.3,0.1,0.6,0.1
		c0.2,0.1,0.3,0.1,0.6,0.1c0.1,0,0.2,0,0.3,0.1c0.1,0,0.3,0.1,0.5,0.2c0.8,0.3,1.5,0.5,2.3,0.9c0.2,0.1,0.4,0.2,0.5,0.2
		c0.2,0.1,0.3,0.1,0.4,0.2c0.3,0.2,0.5,0.3,0.9,0.5c1.2,0.6,2.2,1.5,3.2,2.4c0.9,0.9,1.8,1.9,2.5,3c1.4,2.1,2.4,4.5,2.8,7
		c0.4,2.5,0.4,5.1-0.3,7.6c-0.1,0.6-0.3,1.3-0.6,1.9c-0.2,0.6-0.5,1.2-0.8,1.8c-0.6,1.2-1.3,2.3-2.1,3.4c-0.8,1.1-1.7,2-2.6,2.9
		c-0.1,0.1-0.2,0.2-0.4,0.3c-0.1,0.1-0.1,0.1-0.2,0.2c-0.2,0.1-0.3,0.2-0.4,0.4c-0.4,0.3-0.5,0.4-0.9,0.7c-1.2,1-2.3,2-3.5,3
		c-2.3,2-4.7,4-7,5.9c-9.1,7.7-18.1,15.4-27.2,23.1c-4.3,3.7-8.6,7.4-12.9,11l0,0l-0.1,0.1c-0.1,0.1-0.2,0.2-0.2,0.3
		c-0.2,0.2-0.3,0.4-0.4,0.6c-0.2,0.4-0.4,0.9-0.4,1.4c0,0.2,0,0.5,0,0.7c0.1,0.8,0.1,1.2,0.1,2c0.1,1.3,0.2,2.6,0.3,3.9
		c0.7,9.9,1.4,19.9,2.1,29.8c0.7,9.5,1.3,18.7,2.1,27.4c0,0.3,0,0.5,0.1,0.8c0-0.2,0,0,0,0.3c0,0.2,0,0.4,0,0.4l0,0.2
		c0,0.2,0,0.2,0,0.4c0,0.3,0,0.5,0,0.8c0,0.1,0,0.1,0,0.2c0,0.2,0,0.2,0,0.4c0,0.3,0,0.5-0.1,0.8c-0.1,0.5-0.1,1.1-0.2,1.6
		c-0.1,0.5-0.2,0.9-0.3,1.4c-0.2,0.5-0.2,0.8-0.4,1.3c-0.2,0.4-0.3,0.9-0.5,1.3c-1.5,3.4-3.9,6.3-6.8,8.5c-2.9,2.2-6.3,3.6-9.8,4
		c-3.5,0.5-6.9-0.1-9.8-1.4c-0.2-0.1-0.3-0.1-0.5-0.2c-0.2-0.1-0.3-0.1-0.5-0.2c-0.3-0.1-0.4-0.2-0.6-0.3c-0.4-0.2-0.8-0.4-1.3-0.6
		c-0.8-0.4-1.7-0.8-2.5-1.3c-1.7-0.8-3.3-1.6-4.9-2.5c-3.2-1.6-6.3-3.2-9.2-4.7c-5.9-3-11.4-5.7-16.3-8.3c-4.9-2.5-9.2-4.8-13-6.8
		c-1.9-1-3.6-1.9-5.2-2.8c-0.8-0.4-1.6-0.8-2.3-1.2c-0.2-0.1-0.4-0.2-0.5-0.3c-0.1-0.1-0.2-0.1-0.3-0.1c0.3,0.2,0.2,0.1,0.2,0.1
		c0,0-0.1,0,0,0l-0.1,0l-0.1-0.1c-0.4-0.2-0.3-0.2-0.3-0.1c0,0,0.1,0,0,0c-0.6-0.2-1.1-0.1-1.4,0
		C387.5,418.1,387.4,418.2,387.4,418.2 M380.5,402.1c0,0,0.3-0.2,1-0.5c0.7-0.3,1.7-0.7,3.2-1.1c1.4-0.4,3.2-0.7,5.3-0.7
		c2.1,0,4.5,0.3,7.1,1.3c0.6,0.2,1.7,0.7,1.9,0.8c0.2,0.1,0.3,0.2,0.5,0.3c0.1,0.1,0.2,0.1,0.3,0.1c0.2,0.1,0.4,0.2,0.5,0.3
		c0.7,0.4,1.5,0.8,2.3,1.3c1.6,0.9,3.3,1.9,5.1,2.9c3.7,2.1,8,4.5,12.7,7.3c11.3,6.6,22.5,13.2,33.8,19.8c0.6,0.3,1.2,0.5,1.9,0.5
		c0.7,0,1.4-0.3,2.1-0.8c0.7-0.5,1.2-1.1,1.6-1.8c0-0.1,0.1-0.2,0.1-0.3c0-0.1,0-0.2,0.1-0.3l0.1-0.2l0,0l0,0l0,0l0-0.2
		c0-0.3,0-0.5,0-0.8c0-0.2,0-0.2,0-0.4l0-0.2c0-0.1,0,0.1,0,0.2c0,0.2,0,0.4,0,0.1c0-0.3,0-0.5-0.1-0.8c-0.6-8.7-1.3-17.9-2-27.5
		c-0.8-10-1.6-19.9-2.4-29.9c-0.1-1.3-0.2-2.6-0.3-3.9c-0.1-0.8-0.1-1.2-0.2-2c-0.1-1-0.1-2.2,0-3.2c0.2-2.2,0.8-4.4,1.8-6.5
		c0.5-1,1.1-2,1.7-3c0.3-0.5,0.7-0.9,1.1-1.4c0.2-0.2,0.4-0.4,0.6-0.7c0.3-0.3,0.4-0.5,0.7-0.8c0.2-0.2,0.3-0.3,0.4-0.4l0.2-0.2
		c0.1-0.1,0.2-0.2,0.4-0.3c0.3-0.3,0.5-0.4,0.8-0.7c0.6-0.6,1-0.9,1.6-1.4c1.1-0.9,2.1-1.9,3.2-2.9c2.1-1.9,4.3-3.8,6.5-5.8
		c8.9-7.9,17.7-15.8,26.6-23.7c2.3-2,4.5-4,6.8-6.1c1.1-1,2.3-2,3.4-3.1c0.3-0.3,0.5-0.5,0.9-0.8c0.2-0.2,0.3-0.2,0.4-0.4l0.2-0.2
		l0.1-0.1c0.1-0.2,0.4-0.3,0.4-0.5c0.2-0.2,0.2-0.4,0.3-0.5c0-0.1,0-0.2,0.1-0.3c0.1-0.1,0.1-0.2,0.1-0.3c0.1-0.4,0.1-0.8,0-1.2
		c0-0.2-0.1-0.4-0.2-0.6c-0.1-0.2-0.2-0.4-0.3-0.5c-0.1-0.2-0.3-0.3-0.4-0.4c-0.2-0.1-0.3-0.2-0.5-0.3l-0.1-0.1l-0.1,0l0,0l0.1,0
		c0,0,0.1,0,0,0c-0.1,0-0.2,0-0.3-0.1c-0.2-0.1-0.3-0.1-0.6-0.1c-0.2-0.1-0.3-0.1-0.6-0.1c-0.4-0.1-0.1,0,0.1,0c0.2,0,0.3,0.1,0.2,0
		c-0.1,0-0.2,0-0.3,0c-1.5-0.2-3-0.5-4.6-0.7c-3-0.5-6.1-0.9-9.2-1.4c-6.1-1-12.3-1.9-18.5-2.9c-6.2-1-12.5-2-18.8-3
		c-3.1-0.5-6.3-1-9.4-1.6c-0.9-0.2-1.4-0.2-2.4-0.4c-0.8-0.2-1.3-0.2-3-0.6c-2.8-0.7-5.3-2-7.5-3.7c-2.2-1.8-3.9-4-5.2-6.6
		c-0.1-0.3-0.2-0.5-0.4-0.8c-0.1-0.2-0.1-0.3-0.2-0.5c-0.2-0.4-0.3-0.7-0.5-1.1c-0.4-0.9-0.6-1.3-0.9-2.2c-1.3-2.9-2.5-5.9-3.8-8.8
		c-2.5-5.9-5.1-11.9-7.8-17.8c-2.6-6-5.3-11.9-8.1-17.9c-1.7-3.6-2.5-5.4-4.2-9c-0.4-0.9-0.6-1.4-1.1-2.3c-0.1-0.1-0.1-0.2-0.1-0.3
		l-0.1-0.1l-0.1-0.2c-0.1-0.1-0.1-0.3-0.2-0.3c-0.3-0.4-0.6-0.7-1-0.9c-0.2-0.1-0.4-0.2-0.7-0.3c-0.3,0-0.5-0.1-0.8-0.1
		c-0.5,0-1.1,0-1.5,0.2c-0.4,0.2-0.8,0.5-1.1,0.7l0-0.1l0,0c-0.1,0.1-0.1,0.1-0.2,0.2c-0.1,0.2-0.2,0.3-0.3,0.5
		c-0.1,0.2-0.2,0.3-0.3,0.5c-0.2,0.3-0.1,0.1,0,0c0.1-0.1,0.1-0.3,0.1-0.2c-0.1,0.1-0.1,0.2-0.1,0.3c-0.2,0.4-0.3,0.6-0.6,1.1
		c-3,5.8-6,11.5-9,17.3c-6.1,11.6-12.3,23.1-18.5,34.6c-0.9,1.7-1.4,2.6-2.4,4.3c-0.3,0.5-1.1,2-1.9,3c-0.8,1.1-1.8,2.2-2.8,3.1
		c-2.1,1.8-4.6,3.3-7.2,4.1c-0.4,0.1-0.6,0.2-1,0.3c-0.3,0.1-0.8,0.2-1.2,0.3c-0.5,0.1-0.6,0.1-0.8,0.1c-0.3,0-0.5,0.1-0.8,0.1
		c-1,0.1-1.4,0.2-2.4,0.3c-6.4,0.8-12.8,1.6-19.1,2.5c-12.5,1.7-25,3.3-37.4,5c-1.5,0.2-3.1,0.4-4.6,0.6c-0.5,0.1-0.7,0.1-1.1,0.2
		c-0.2,0-0.3,0-0.6,0.1c-0.2,0-0.4,0.1-0.4,0.1c-0.2,0.1-0.5,0.1-0.6,0.2c-0.4,0.1-0.7,0.3-0.9,0.6c-0.3,0.2-0.5,0.6-0.7,1
		c-0.2,0.4-0.3,0.8-0.3,1.2c-0.1,0.4,0.1,0.7,0.2,1.1l0.1,0.2l-0.1-0.1l-0.1,0c0.1,0.2,0.2,0.3,0.3,0.4c0.3,0.3,0.4,0.5,0.7,0.9
		c-0.5-0.6-0.4-0.4-0.3-0.3c0.1,0.1,0.1,0.1,0.1,0.1l0.2,0.2c0.2,0.2,0.2,0.2,0.4,0.4c0.3,0.3,0.4,0.5,0.7,0.8
		c0.6,0.6,0.9,1,1.5,1.6c7.7,8.4,15.4,16.7,23,25.1c3.7,4.1,7.3,8.1,10.8,12.1c1.8,2,3.5,4,5.2,6c0.5,0.6,0.8,0.9,1.3,1.5
		c0.7,0.8,1.4,1.7,1.9,2.7c1.1,1.9,1.9,4,2.2,6.2c0.2,1.1,0.3,2.2,0.2,3.3c0,0.6,0,1.1-0.1,1.7c0,0.3-0.1,0.5-0.1,0.8
		c0,0.3-0.1,0.7-0.2,1c-0.2,0.9-0.1,0.6-0.3,1.4c-0.1,0.4-0.2,0.6-0.3,1c-0.2,0.8-0.3,1.2-0.6,1.9c-0.8,2.6-1.5,5.1-2.3,7.7
		c-1.5,5.1-3,10-4.4,14.9c-1.4,4.9-2.8,9.7-4.2,14.3c-1.4,4.7-2.7,9.3-3.7,13.7c-0.5,2.2-1.1,4.5-1.6,6.7c-0.3,1.1-0.5,2.2-0.8,3.3
		c-0.1,0.5-0.3,1.1-0.4,1.6c0,0.2-0.1,0.2-0.1,0.4l0,0.2c0,0.1,0,0.2,0,0.4c-0.1,0.9,0.1,1.7,0.5,2.4c0.4,0.7,1,1.2,1.6,1.6
		c0.7,0.3,1.4,0.5,2.1,0.4l0.2,0l0.2-0.1l0.2,0l0.1-0.1l0,0l0,0c0.1-0.1,0.2-0.1,0.3-0.2c0.3-0.1,0.4-0.2,0.7-0.3
		c0.1-0.1,0.2-0.1,0.3-0.2l0.2-0.1c0.3-0.1,0.1,0-0.1,0c-0.2,0.1-0.3,0.1-0.2,0.1c3.4-1.9,6.7-3.7,9.9-5.5
		c6.3-3.5,12.2-6.7,17.4-9.6c5.3-2.8,10-5.4,14.1-7.5c4.1-2.2,7.6-4,10.5-5.4C377.4,403.7,380.5,402.1,380.5,402.1"/>
	<path id="XMLID_26_" class="st4" d="M308.3,401.3c-8.7,1.3-17.7,2-26.8,2c-6.5,0-13-0.4-19.5-1.2c-6.8,76.9-13.8,153.9-11.4,231
		c9.6-6.7,19.2-13.4,28.8-20.1c6.5-4.5,9.7-6.7,16.3-11.2c6.5-4.5,9.8-6.7,16.4-11.2c22-15,44.1-29.9,66.2-44.8
		c0.1,0,0.1-0.1,0.2-0.1c2.1-42.7,6-85.3,10-127.9c0,0,0,0,0,0c-0.3,0-0.5,0-0.6,0.1c-0.3,0.1-0.4,0.2-0.4,0.2c0,0,0,0,0,0
		c0,0-3.1,1.5-8.8,4.3c-2.9,1.4-6.4,3.2-10.6,5.2c-4.2,2-9,4.3-14.4,6.9c-5.4,2.5-11.4,5.3-17.9,8.4c-3.3,1.5-6.6,3.1-10.2,4.8
		c0,0,0,0,0,0l0,0l0,0c0,0-0.2,0.1-0.4,0.2c-0.2,0.1-0.4,0.2-0.4,0.2c0,0,0,0,0.1,0l-0.2,0.1c-0.1,0.1-0.2,0.1-0.3,0.1
		c-0.3,0.1-0.4,0.2-0.7,0.3c-0.1,0.1-0.2,0.1-0.3,0.1c-0.3,0.1-0.4,0.1-0.7,0.2c-0.5,0.1-0.9,0.3-1.4,0.4c-0.4,0.1-1,0.3-1.4,0.3
		c-0.5,0.1-0.7,0.1-1.2,0.1c-0.5,0-0.7,0.1-1.2,0.1c-0.5,0-0.7,0-1.2,0c-3.2-0.1-6.3-1.1-8.8-2.8c-2.6-1.7-4.6-4.2-5.9-7.2
		c-1.3-3-1.6-6.5-1-9.9c0.1-0.5,0.2-0.8,0.3-1.3c0.1-0.3,0.1-0.4,0.1-0.6c0-0.2,0.1-0.2,0.1-0.4c0.2-0.5,0.3-1.1,0.5-1.6
		c0.3-1.1,0.6-2.2,0.9-3.2c0.6-2.2,1.3-4.4,1.9-6.6c1.3-4.5,2.4-9.1,3.5-13.8C308.1,402.1,308.2,401.7,308.3,401.3 M642.6,330.3
		c-32.4,68.9-78.3,89.6-121.8,89.6c-1.6,0-3.1,0-4.7-0.1c-6.2,64.6-12,129.3-11.2,194.1c2.6,1.4,5.1,2.8,7.7,4.2
		c6.4,3.5,9.6,5.3,16,8.7c6.4,3.5,9.7,5.2,16.1,8.6c10.8,5.7,21.7,11.4,32.6,17.1c11,5.6,22.1,11.2,33.1,16.7
		c4.4,2.2,8.9,4.3,13.3,6.5c-0.6-6.4-0.8-9.6-1.2-15.9c-0.8-12.4-1.3-24.8-1.5-37.3c-0.2-12.4-0.2-24.8,0.1-37.2
		c0.2-12.4,0.7-24.8,1.4-37.2c0.7-12.4,1.6-24.8,2.5-37.2c1-12.4,2.1-24.8,3.3-37.2c2.3-24.8,4.9-49.6,7.6-74.4
		C638.3,376.4,640.6,353.4,642.6,330.3"/>
	<path id="XMLID_27_" class="st5" d="M153.4,298.8c-2.2,35.7-5.2,71.4-8.4,107.1c-4.8,55.5-9.4,110.9-10.7,166.5
		c-0.4,27.8,0.1,55.5,1.7,83.2c1,13.9,2.2,27.8,3.8,41.6c0.8,6.1,1.6,12.2,2.5,18.3c4.1-3.4,8.3-6.8,12.5-10.2
		c9.9-8,19.9-15.9,29.9-23.8c10.2-7.8,20.5-15.6,30.8-23.3c10.5-7.7,21-15.3,31.6-22.8c1.1-0.8,2.3-1.6,3.4-2.4
		c-2.4-77.1,4.6-154.1,11.4-231C218.7,396.5,176,370.3,153.4,298.8"/>
	<path id="XMLID_28_" class="st5" d="M473.2,412.5c0.4,4.8,0.7,9.5,1.1,14c0,0.3,0,0.5,0.1,0.8c0-0.1,0-0.1,0-0.1c0,0,0,0.2,0,0.4
		c0,0.2,0,0.4,0,0.4c0,0,0,0,0,0l0,0.2c0,0.2,0,0.2,0,0.4c0,0.3,0,0.5,0,0.8c0,0.1,0,0.1,0,0.2c0,0.2,0,0.2,0,0.4
		c0,0.3,0,0.5-0.1,0.8c-0.1,0.5-0.1,1.1-0.2,1.6c-0.1,0.5-0.2,0.9-0.3,1.4c-0.2,0.5-0.2,0.8-0.4,1.3c-0.2,0.4-0.3,0.9-0.5,1.3
		c-1.5,3.4-3.9,6.3-6.8,8.5c-2.9,2.2-6.3,3.6-9.8,4c-0.8,0.1-1.6,0.2-2.5,0.2c-2.6,0-5.2-0.6-7.3-1.5c-0.2-0.1-0.3-0.1-0.5-0.2
		c-0.2-0.1-0.3-0.1-0.5-0.2c-0.3-0.1-0.4-0.2-0.6-0.3c-0.4-0.2-0.8-0.4-1.3-0.6c-0.8-0.4-1.7-0.8-2.5-1.3c-1.7-0.8-3.3-1.6-4.9-2.5
		c-3.2-1.6-6.3-3.2-9.2-4.7c-5.9-3-11.4-5.7-16.3-8.3c-4.9-2.5-9.2-4.8-13-6.8c-1.9-1-3.6-1.9-5.2-2.8c-0.8-0.4-1.6-0.8-2.3-1.2
		c-0.2-0.1-0.4-0.2-0.5-0.3c0,0-0.1,0-0.1-0.1l0,0l-0.1-0.1c-0.2-0.1-0.3-0.1-0.3-0.1c0,0,0,0,0,0c0,0,0,0,0,0c0,0,0,0,0,0
		c0,0,0,0,0,0c0,0,0,0,0,0c-0.2-0.1-0.5-0.1-0.7-0.1c-4,42.6-7.9,85.2-10,127.9c1.6-1,3.3-1.5,5-1.5c1.6,0,3.1,0.4,4.4,1.2l0.1,0
		c10.2,6.2,20.4,12.5,30.6,18.6c6.2,3.7,9.2,5.5,15.4,9.2c6.2,3.6,9.3,5.5,15.5,9.1c10.4,6.1,20.9,12.1,31.3,18
		c8,4.5,16,9,24.1,13.4c-0.9-64.9,4.9-129.5,11.2-194.1C501.3,419.3,486.8,416.5,473.2,412.5"/>
	<path id="XMLID_31_" class="st2" d="M146,269.9l-24.2,308.7l18.2,159.7l240.6-183.1l258,141.5l-6.8-97.6l21.9-295.9
		c-3.5,9.8-7.2,18.8-11.1,27.1c-2,23.1-4.3,46.1-6.7,69.2c-2.6,24.8-5.2,49.6-7.6,74.4c-1.2,12.4-2.3,24.8-3.3,37.2
		c-0.9,12.4-1.7,24.8-2.5,37.2c-0.7,12.4-1.2,24.8-1.4,37.2c-0.3,12.4-0.3,24.8-0.1,37.2c0.2,12.4,0.7,24.8,1.5,37.3
		c0.4,6.4,0.6,9.6,1.2,15.9c-4.4-2.2-8.9-4.3-13.3-6.5c-11.1-5.5-22.1-11.1-33.1-16.7c-10.9-5.6-21.8-11.3-32.6-17.1
		c-6.5-3.4-9.7-5.2-16.1-8.6c-6.4-3.5-9.6-5.2-16-8.7c-2.6-1.4-5.1-2.8-7.7-4.2c-8-4.4-16.1-8.9-24.1-13.4c-10.5-6-20.9-12-31.3-18
		c-6.2-3.6-9.3-5.4-15.5-9.1c-6.2-3.7-9.3-5.5-15.4-9.2c-10.2-6.2-20.5-12.4-30.6-18.6l-0.1,0c-1.3-0.8-2.8-1.2-4.4-1.2
		c-1.7,0-3.4,0.5-5,1.5c-0.1,0-0.1,0.1-0.2,0.1c-22.1,14.9-44.2,29.8-66.2,44.8c-6.6,4.5-9.9,6.7-16.4,11.2
		c-6.5,4.5-9.8,6.7-16.3,11.2c-9.6,6.6-19.2,13.3-28.8,20.1c-1.1,0.8-2.3,1.6-3.4,2.4c-10.6,7.5-21.1,15.1-31.6,22.8
		c-10.3,7.7-20.6,15.4-30.8,23.3c-10,7.8-20,15.8-29.9,23.8c-4.2,3.4-8.3,6.8-12.5,10.2c-0.9-6.1-1.7-12.2-2.5-18.3
		c-1.5-13.9-2.8-27.7-3.8-41.6c-1.6-27.8-2.1-55.4-1.7-83.2c1.3-55.7,5.9-111.1,10.7-166.5c3.2-35.7,6.2-71.4,8.4-107.1
		C150.6,289.9,148.1,280.3,146,269.9"/>
	<path id="XMLID_32_" class="st6" d="M394.2,372.1c0,0-31.3,18.1-72.2,26.8c-0.6,2-1.1,3.9-1.7,5.8c-1.4,4.7-2.7,9.3-3.7,13.7
		c-0.5,2.2-1.1,4.5-1.6,6.7c-0.3,1.1-0.5,2.2-0.8,3.3c-0.1,0.5-0.3,1.1-0.4,1.6c0,0.2-0.1,0.2-0.1,0.4l0,0.2c0,0.1,0,0.2,0,0.4
		c-0.1,0.9,0.1,1.7,0.5,2.4c0.4,0.7,1,1.2,1.6,1.6c0.6,0.3,1.2,0.4,1.7,0.4c0.1,0,0.2,0,0.3,0l0.2,0l0.2-0.1l0.2,0l0.1-0.1l0,0l0,0
		c0.1-0.1,0.2-0.1,0.3-0.2c0.3-0.1,0.4-0.2,0.7-0.3c0.1-0.1,0.2-0.1,0.3-0.2l0.2-0.1c0,0,0,0,0,0c0,0-0.1,0-0.2,0.1
		c-0.1,0.1-0.2,0.1-0.3,0.1c0,0,0,0,0,0c3.4-1.9,6.7-3.7,9.9-5.5c6.3-3.5,12.2-6.7,17.4-9.6c5.3-2.8,10-5.4,14.1-7.5
		c4.1-2.2,7.6-4,10.5-5.4c5.7-2.9,8.7-4.5,8.7-4.5s0.3-0.2,1-0.5c0.7-0.3,1.7-0.7,3.2-1.1c1.4-0.4,3.2-0.7,5.3-0.7c0,0,0.1,0,0.1,0
		c2.1,0,4.5,0.3,7,1.3c0.6,0.2,1.7,0.7,1.9,0.8c0.2,0.1,0.3,0.2,0.5,0.3c0.1,0.1,0.2,0.1,0.3,0.1c0.2,0.1,0.4,0.2,0.5,0.3
		c0.7,0.4,1.5,0.8,2.3,1.3c1.6,0.9,3.3,1.9,5.1,2.9c3.7,2.1,8,4.5,12.7,7.3c11.3,6.6,22.5,13.2,33.8,19.8c0.5,0.3,1.1,0.5,1.7,0.5
		c0.1,0,0.1,0,0.2,0c0.7,0,1.4-0.3,2.1-0.8c0.7-0.5,1.2-1.1,1.6-1.8c0-0.1,0.1-0.2,0.1-0.3c0-0.1,0-0.2,0.1-0.3l0.1-0.2l0,0l0,0l0,0
		l0-0.2c0-0.3,0-0.5,0-0.8c0-0.2,0-0.2,0-0.4l0-0.1c0-0.2,0-0.4,0-0.7c-0.5-6.9-1-14-1.6-21.4C421.1,393.3,394.2,372.1,394.2,372.1"
		/>
	<path id="XMLID_36_" class="st2" d="M389.1,418C389.2,418,389.2,418.1,389.1,418C389.2,418.1,389.2,418.1,389.1,418
		C389.1,418,389.1,418,389.1,418 M320.4,434.4L320.4,434.4L320.4,434.4 M322,398.9c-4.5,1-9.1,1.8-13.8,2.5
		c-0.1,0.4-0.2,0.8-0.3,1.2c-1.1,4.7-2.2,9.3-3.5,13.8c-0.6,2.2-1.3,4.4-1.9,6.6c-0.3,1.1-0.6,2.2-0.9,3.2c-0.2,0.5-0.3,1.1-0.5,1.6
		c0,0.2-0.1,0.2-0.1,0.4c-0.1,0.3-0.1,0.4-0.1,0.6c-0.1,0.5-0.2,0.8-0.3,1.3c-0.6,3.4-0.3,6.9,1,9.9c1.3,3,3.3,5.4,5.9,7.2
		c2.5,1.7,5.6,2.7,8.8,2.8c0.5,0,0.7,0,1.2,0c0.5,0,0.7-0.1,1.2-0.1c0.5-0.1,0.7-0.1,1.2-0.1c0.4,0,0.9-0.2,1.4-0.3
		c0.5-0.1,0.9-0.3,1.4-0.4c0.3-0.1,0.4-0.1,0.7-0.2c0.1-0.1,0.2-0.1,0.3-0.1c0.3-0.1,0.4-0.2,0.7-0.3c0.1-0.1,0.2-0.1,0.3-0.1
		l0.2-0.1c-0.1,0-0.1,0-0.1,0c0,0,0.2-0.1,0.4-0.2c0.2-0.1,0.4-0.2,0.4-0.2c0,0,0,0,0,0c3.5-1.7,6.9-3.2,10.2-4.8
		c6.5-3.1,12.5-5.9,17.9-8.4c5.4-2.6,10.2-4.9,14.4-6.9c4.2-2,7.7-3.7,10.6-5.2c5.7-2.8,8.8-4.3,8.8-4.3c0,0,0,0,0,0
		c0,0,0.2-0.1,0.4-0.2c0.2,0,0.4-0.1,0.6-0.1c0,0,0,0,0,0c0.2,0,0.4,0,0.7,0.1c0,0,0,0,0,0c0,0,0,0,0,0c0,0,0.1,0,0.3,0.1l0.1,0.1
		l0,0c0,0,0.1,0,0.1,0.1c0.2,0.1,0.4,0.2,0.5,0.3c0.7,0.4,1.5,0.8,2.3,1.2c1.6,0.9,3.3,1.8,5.2,2.8c3.8,2,8.1,4.3,13,6.8
		c4.9,2.5,10.3,5.3,16.3,8.3c3,1.5,6,3,9.2,4.7c1.6,0.8,3.2,1.6,4.9,2.5c0.8,0.4,1.7,0.8,2.5,1.3c0.4,0.2,0.8,0.4,1.3,0.6
		c0.3,0.1,0.4,0.2,0.6,0.3c0.2,0.1,0.3,0.1,0.5,0.2c0.2,0.1,0.3,0.1,0.5,0.2c2.2,1,4.7,1.5,7.3,1.5c0.8,0,1.6-0.1,2.5-0.2
		c3.5-0.4,6.9-1.9,9.8-4c2.9-2.1,5.3-5.1,6.8-8.5c0.2-0.4,0.4-0.8,0.5-1.3c0.2-0.5,0.2-0.8,0.4-1.3c0.1-0.5,0.3-0.8,0.3-1.4
		c0.1-0.5,0.2-1.1,0.2-1.6c0-0.3,0-0.5,0.1-0.8c0-0.2,0-0.2,0-0.4c0-0.1,0-0.2,0-0.2c0-0.3,0-0.5,0-0.8c0-0.2,0-0.2,0-0.4l0-0.2
		c0,0,0,0,0,0c0,0,0-0.2,0-0.4c0-0.2,0-0.4,0-0.4c0,0,0,0,0,0.1c0-0.3,0-0.5-0.1-0.8c-0.4-4.5-0.8-9.2-1.1-14
		c-5.1-1.5-10-3.2-14.7-5c0.6,7.4,1.1,14.5,1.6,21.4c0,0.3,0,0.4,0,0.7l0,0.1c0,0.2,0,0.2,0,0.4c0,0.3,0,0.5,0,0.8l0,0.2l0,0l0,0
		l0,0l-0.1,0.2c0,0.1-0.1,0.2-0.1,0.3c0,0.1-0.1,0.2-0.1,0.3c-0.3,0.7-0.9,1.3-1.6,1.8c-0.7,0.5-1.4,0.7-2.1,0.8c-0.1,0-0.1,0-0.2,0
		c-0.6,0-1.1-0.2-1.7-0.5c-11.3-6.5-22.6-13.1-33.8-19.8c-4.7-2.8-9-5.2-12.7-7.3c-1.9-1.1-3.6-2.1-5.1-2.9
		c-0.8-0.4-1.5-0.9-2.3-1.3c-0.2-0.1-0.4-0.2-0.5-0.3c-0.1-0.1-0.2-0.1-0.3-0.1c-0.2-0.1-0.3-0.2-0.5-0.3c-0.1-0.1-1.2-0.6-1.9-0.8
		c-2.5-0.9-4.9-1.3-7-1.3c0,0-0.1,0-0.1,0c-2.1,0-3.9,0.3-5.3,0.7c-1.4,0.4-2.5,0.8-3.2,1.1c-0.7,0.3-1,0.5-1,0.5s-3,1.5-8.7,4.5
		c-2.9,1.4-6.4,3.3-10.5,5.4c-4.1,2.1-8.8,4.7-14.1,7.5c-5.3,2.9-11.1,6.1-17.4,9.6c-3.2,1.8-6.5,3.6-9.9,5.5c0,0,0,0,0,0
		c0,0,0.1-0.1,0.3-0.1c0.1,0,0.1-0.1,0.2-0.1c0,0,0,0,0,0l-0.2,0.1c-0.1,0.1-0.2,0.1-0.3,0.2c-0.3,0.1-0.4,0.2-0.7,0.3
		c-0.1,0.1-0.2,0.1-0.3,0.2l0,0l0,0l-0.1,0.1l-0.2,0l-0.2,0.1l-0.2,0c-0.1,0-0.2,0-0.3,0c-0.6,0-1.2-0.1-1.7-0.4
		c-0.7-0.3-1.3-0.9-1.6-1.6c-0.4-0.7-0.5-1.5-0.5-2.4c0-0.1,0-0.2,0-0.4l0-0.2c0-0.2,0.1-0.2,0.1-0.4c0.1-0.5,0.3-1.1,0.4-1.6
		c0.3-1.1,0.5-2.2,0.8-3.3c0.5-2.2,1.1-4.4,1.6-6.7c1.1-4.5,2.4-9.1,3.7-13.7C320.9,402.8,321.5,400.8,322,398.9"/>
</g>
</svg>
