<?xml version="1.0" encoding="utf-8"?>
<!-- Generator: Adobe Illustrator 19.0.0, SVG Export Plug-In . SVG Version: 6.00 Build 0)  -->
<svg version="1.1" id="Layer_1" xmlns="http://www.w3.org/2000/svg" xmlns:xlink="http://www.w3.org/1999/xlink" x="0px" y="0px"
	 viewBox="0 0 1000 1000" style="enable-background:new 0 0 1000 1000;" xml:space="preserve">
<style type="text/css">
	.st0{fill:#FFA200;}
	.st1{fill:#BA0000;}
	.st2{fill:#ED1C24;}
</style>
<g id="XMLID_23_">
	<path id="XMLID_61_" class="st0" d="M111.9,382.9C-12.4,291.3-1.4,135.1,64.3,59.4c12.5,127.5,79.5,173.5,192.1,181"/>
	<path id="XMLID_59_" class="st0" d="M730.9,286.6c113.5,19.1,218-101.7,218-183.1c64.2,111.2,19.6,257.8-115.3,328.3"/>
	<g id="XMLID_56_">
		<ellipse id="XMLID_92_" class="st1" cx="461.1" cy="560.6" rx="396.8" ry="373.8"/>
	</g>
	<path id="XMLID_65_" d="M950.9,106.6l-34.7,9.3c0,36.9-27.6,86-67.1,119.4c-20.9,17.7-62.6,45.5-113.2,40.9
		c-16.2-13.9-34-27.2-53.5-39.2c-24.7-15.2-52-28.4-81.5-38.7c-29.5-10.1-61.2-17.4-94.2-21l-3.1-0.4l-3.2-0.2
		c-2.1-0.2-4.3-0.3-6.4-0.5c-2.1-0.2-4.3-0.3-6.4-0.5l-3.2-0.2c-1.1-0.1-2.2-0.2-3.1-0.2c-4-0.1-8-0.2-12-0.3c-2-0.1-4-0.1-6-0.2
		c0.2,0-1.1,0-1.3,0l-0.8,0l-1.6,0l-3.2,0.1c-4.3,0.1-8.5,0.2-12.8,0.3c-4.3,0.1-8.6,0.5-12.9,0.8c-2.1,0.1-4.3,0.3-6.5,0.4
		l-3.2,0.2l-3.2,0.4c-4.3,0.5-8.6,1-13,1.5c-4.3,0.4-8.6,1.2-13,1.9c-4.3,0.7-8.7,1.4-13,2.2c-4.3,0.9-8.6,1.9-13,2.8
		c-2.2,0.5-4.4,0.9-6.5,1.5l-6.5,1.7c-17.3,4.3-34.3,10.2-51.2,16.8c-4.2,1.8-8.4,3.6-12.6,5.3L286,212l-3.1,1.5l-6.2,3
		c-8.1,3.7-15.9,8.2-23.8,12.4c-101.1-9.9-146.8-56.2-156.8-157.6L63.7,61C25.5,105.1,7,169.7,14.1,233.8
		c6.7,60.7,36.4,115.5,84.2,156.1c-0.2,0.3-0.3,0.6-0.5,1c-8.4,17.3-15.6,35.3-21.4,53.7c-2.6,9.3-5.4,18.5-7.3,28
		c-2.4,9.4-3.8,18.9-5.4,28.5c-1.1,9.6-2.6,19.1-3.1,29.1l-0.5,7.4c-0.2,2.6-0.2,4.7-0.2,7l-0.3,13.7l0.4,15c0.1,4.8,0.6,9.6,1,14.4
		c0.6,9.6,2.2,19.2,3.5,28.7c3.2,19,7.8,37.7,13.7,56c6.1,18.2,13.6,35.9,22.2,53c8.7,17,18.9,33.2,29.9,48.6
		c2.8,3.8,5.7,7.6,8.5,11.3c2.9,3.8,6,7.3,9,11c1.5,1.8,3,3.6,4.5,5.4l4.8,5.2l4.8,5.2c1.6,1.7,3.2,3.5,4.9,5.1
		c3.3,3.3,6.6,6.6,10,9.9c3.4,3.3,6.9,6.3,10.3,9.5c1.7,1.6,3.4,3.1,5.2,4.7l5.4,4.4l5.4,4.4c1.8,1.5,3.6,3,5.4,4.3
		c3.7,2.8,7.4,5.5,11.1,8.3c1.8,1.4,3.8,2.7,5.7,4l5.7,3.9l5.7,3.9c1.9,1.3,3.9,2.4,5.9,3.6c3.9,2.4,7.8,4.8,11.8,7.1
		c8,4.4,15.9,8.9,24.2,12.8l6.1,3l3.1,1.5l3.1,1.4c4.1,1.8,8.3,3.6,12.4,5.4c2.1,0.9,4.2,1.7,6.3,2.5l6.3,2.4
		c4.2,1.6,8.4,3.2,12.6,4.5c4.2,1.4,8.5,2.8,12.7,4.1c4.2,1.3,8.6,2.4,12.8,3.6l6.4,1.7c2.1,0.6,4.3,1,6.4,1.5
		c4.3,0.9,8.6,1.9,12.9,2.8c4.3,0.9,8.6,1.5,12.9,2.3c4.3,0.7,8.6,1.6,12.9,2c4.3,0.5,8.6,1.1,12.9,1.6l3.2,0.4l3.3,0.2
		c2.2,0.2,4.4,0.3,6.6,0.5c2.2,0.2,4.4,0.3,6.6,0.4c2.2,0.1,4.4,0.3,6.4,0.3c4.1,0.1,8.1,0.2,12.2,0.3l3,0.1l1.5,0l0.8,0
		c0.1,0,1.4,0,1.3,0c2.1-0.1,4.2-0.1,6.3-0.2c4.2-0.1,8.4-0.2,12.6-0.4c4.2-0.2,8.3-0.6,12.5-0.9c2.1-0.2,4.1-0.3,6.2-0.5l3.1-0.2
		l3.1-0.4c32.8-3.7,64.2-11.6,93.1-22.5c28.9-11.1,55.5-24.9,79.5-40.3c24.1-15.3,45.8-32.1,64.9-49.8c4.7-4.5,9.3-9,13.8-13.4
		c4.3-4.6,8.7-9.1,12.9-13.7c4-4.7,8-9.3,11.9-13.9c3.7-4.7,7.4-9.4,11-13.9c14-18.7,25.5-37.4,34.7-55.5c1.2-2.3,2.3-4.5,3.5-6.7
		c1.2-2.2,2.1-4.5,3.1-6.7c2-4.4,4-8.8,5.8-13.1c3.4-8.7,6.8-17,9.3-25c5.5-16,8.8-30.9,11.4-43.8c0.8-3.2,1.1-6.4,1.6-9.4
		c0.5-3,0.9-5.9,1.3-8.7c0.2-1.4,0.4-2.7,0.6-4.1c0.1-1.4,0.3-2.7,0.4-4c0.2-2.6,0.5-5.1,0.7-7.4c0.4-4.7,0.9-8.9,0.9-12
		c0.1-3.3,0.2-6,0.3-8.2c0.2-4.4,0.3-6.7,0.3-6.7l0-0.6c0,0,0-2.4-0.1-7.1c-0.2-4.7,0-11.7-0.8-20.8c-1.2-18.2-4.3-45-14.2-77.7
		c-1.1-4-2.5-8.1-3.9-12.3c61.4-36.9,104.9-91.3,123.4-155C989.8,224.6,982.3,160.9,950.9,106.6z M51,229.7
		c-4.1-36.7,2.1-74.5,16.5-106.1c10.3,40.5,28.4,71.7,54.7,94.8c22,19.3,50.1,32.8,85.1,40.8c-0.4,0.3-0.9,0.6-1.3,1
		c-1.9,1.4-3.7,2.9-5.5,4.4L195,269l-5.5,4.5c-1.8,1.5-3.5,3.1-5.3,4.7c-3.5,3.2-7.1,6.2-10.5,9.5c-3.4,3.3-6.7,6.7-10.1,10
		c-0.8,0.8-1.7,1.7-2.5,2.5l-2.4,2.6l-4.8,5.3l-4.8,5.3c-1.6,1.8-3,3.7-4.6,5.5c-3,3.7-6.1,7.3-9,11.1c-2.8,3.8-5.7,7.7-8.5,11.5
		c-3.6,5.1-7,10.2-10.3,15.4C69.9,314.6,55,265.3,51,229.7z M825.4,564.9c0,2.2-0.1,5-0.1,8.3c0,3.4-0.3,6.7-0.5,10.6
		c-0.1,1.9-0.3,4-0.4,6.2c-0.1,1.1-0.1,2.2-0.2,3.3c-0.1,1.2-0.3,2.4-0.4,3.6c-0.3,2.5-0.6,5-0.9,7.7c-0.3,2.7-0.5,5.5-1.1,8.4
		c-1.8,11.6-4.2,24.9-8.3,39.5c-1,3.6-1.9,7.5-3.2,11.2c-1.2,3.8-2.5,7.7-3.8,11.7c-1.4,4-3,7.9-4.5,12.1c-0.8,2-1.5,4.2-2.4,6.2
		c-0.9,2.1-1.8,4.1-2.8,6.2c-7.4,16.8-16.8,34.5-28.8,52.2c-3.1,4.3-6.3,8.7-9.5,13.2c-3.5,4.3-7,8.7-10.5,13.1
		c-3.7,4.3-7.6,8.6-11.5,13c-4.1,4.2-8.3,8.4-12.5,12.7c-17.4,16.6-37.6,32.3-60.4,45.6c-22.8,13.3-48.2,24.5-75.3,32.8
		c-27.2,8.2-55.9,13.8-85.8,16.8l-2.8,0.3l-2.8,0.2c-1.9,0.1-3.8,0.2-5.6,0.4c-3.8,0.2-7.5,0.6-11.3,0.7c-3.8,0.1-7.6,0.1-11.4,0.2
		c-1.9,0-3.8,0.1-5.7,0.1c-0.7,0,0.1,0-0.3,0l-0.8,0l-1.5,0l-3-0.1c-4-0.1-8.1-0.2-12.2-0.3c-2.1,0-3.9-0.2-5.8-0.3
		c-1.9-0.1-3.8-0.3-5.7-0.4c-1.9-0.1-3.8-0.3-5.7-0.4l-2.8-0.2l-2.9-0.3c-3.9-0.5-7.8-0.9-11.7-1.4c-3.9-0.4-7.8-1.1-11.7-1.7
		c-3.9-0.7-7.8-1.2-11.7-2c-3.9-0.8-7.8-1.7-11.7-2.5c-1.9-0.4-3.9-0.8-5.9-1.3l-5.8-1.5c-15.6-3.8-31-9.1-46.2-15
		c-3.8-1.6-7.6-3.2-11.3-4.7l-2.8-1.2l-2.8-1.3l-5.6-2.6c-7.5-3.4-14.7-7.5-22.1-11.4c-3.6-2.1-7.1-4.2-10.7-6.4
		c-1.8-1.1-3.6-2.1-5.4-3.2l-5.2-3.5l-5.2-3.5c-1.7-1.2-3.5-2.3-5.2-3.6c-3.4-2.5-6.8-5-10.2-7.4c-1.7-1.2-3.3-2.6-5-3.9l-4.9-4
		l-4.9-4c-1.6-1.4-3.2-2.8-4.7-4.2c-3.1-2.8-6.4-5.6-9.4-8.5c-3-3-6.1-5.9-9.1-8.9c-1.5-1.5-3-3-4.4-4.6l-4.3-4.7l-4.3-4.7
		c-1.4-1.6-2.8-3.3-4.1-4.9c-2.7-3.3-5.6-6.5-8.2-9.9c-2.6-3.4-5.2-6.8-7.8-10.2c-10-13.9-19.2-28.5-27.2-43.7
		c-7.8-15.3-14.6-31.3-20.2-47.6c-5.3-16.5-9.4-33.3-12.3-50.4c-1.1-8.6-2.4-17.2-2.9-25.9c-0.3-4.3-0.7-8.6-0.7-13L96,559.3
		c0.4-9.1,0.4-18.7,1.4-26.7c0.6-8.3,2-17,3.3-25.5c1.8-8.5,3.3-17,5.7-25.3c2-8.4,5-16.5,7.6-24.7c5.9-16.2,13-31.8,21-46.9
		c8.2-15,17.6-29.2,27.6-42.9c10.1-13.6,21.3-26.3,33-38.4c3-3,6-5.9,9-8.8c3-2.9,6.2-5.6,9.3-8.4c1.6-1.4,3.1-2.8,4.7-4.2l4.9-4
		l4.9-4c1.6-1.3,3.2-2.7,4.9-3.9c3.3-2.5,6.7-4.9,10-7.4c1.6-1.3,3.4-2.4,5.1-3.5l5.2-3.5l5.2-3.5c1.7-1.1,3.5-2.1,5.3-3.2
		c3.5-2.1,7-4.3,10.6-6.4c7.3-3.9,14.4-8,21.8-11.3l5.5-2.7l2.8-1.3l2.8-1.2c3.7-1.6,7.5-3.2,11.2-4.8c15.1-6,30.2-11.4,45.7-15.3
		l5.8-1.6c1.9-0.6,3.9-0.9,5.8-1.3c3.9-0.9,7.7-1.7,11.6-2.6c3.9-0.8,7.8-1.4,11.6-2.1c3.9-0.6,7.7-1.4,11.6-1.8
		c3.9-0.5,7.8-1,11.6-1.4l2.9-0.3l2.9-0.2c1.9-0.1,3.9-0.3,5.8-0.4c1.9-0.1,3.9-0.3,5.8-0.4c1.9-0.1,3.8-0.3,5.8-0.3
		c3.8-0.1,7.7-0.2,11.5-0.3c1.7,0,3.5-0.1,5.2-0.1c2,0,4,0.1,6,0.1c4,0.1,8,0.2,12,0.2c1,0,1.9,0.1,2.8,0.1l2.7,0.2
		c1.8,0.1,3.6,0.3,5.5,0.4c1.8,0.1,3.6,0.2,5.5,0.4l2.7,0.2l2.8,0.3c29.7,3,58.2,9.2,84.7,18.2c26.5,9.1,51.1,20.9,73.3,34.3
		c22.2,13.5,42.1,28.7,59.3,45c17.2,16.3,31.9,33.3,44,50.5c12.2,17.2,21.9,34.3,29.6,50.7c1,2,1.9,4.1,2.9,6.1c1,2,1.7,4.1,2.6,6.1
		c1.6,4,3.4,7.9,4.8,11.8c2.8,7.8,5.6,15.2,7.6,22.5c4.4,14.4,7.2,27.5,9.3,39c0.6,2.9,0.9,5.7,1.3,8.3c0.4,2.7,0.7,5.2,1.1,7.7
		c0.2,1.2,0.3,2.4,0.5,3.6c0.1,1.2,0.2,2.3,0.3,3.4c0.2,2.2,0.4,4.4,0.6,6.4c0.9,8,0.8,14.2,1,18.4c0.2,4.2,0.2,6.3,0.2,6.3l0-0.6
		C825.5,558.2,825.5,560.5,825.4,564.9z M936.3,275.5c-15.4,52.8-51.1,98.5-101.7,130.4c-0.8-1.7-1.7-3.5-2.5-5.2
		c-8.9-18.5-20.1-37.7-33.9-56.9c-7.8-10.7-16.4-21.4-25.8-31.9c34.9-5.4,69.5-21.7,100.8-48.2c29.3-24.8,52.4-55.6,66.1-86.8
		C946.7,208.8,945.9,242.5,936.3,275.5z"/>
	<polygon id="XMLID_20_" points="271.3,526.8 461.1,560.6 659.8,526.8 540.6,832.2 397.8,832.2 310.9,696.7 	"/>
	<path id="XMLID_24_" d="M541.3,833.2h-144l-0.3-0.4l-87-135.6l0-0.2L270,525.6l1.4,0.3l189.6,33.8l200.2-34.1l-0.6,1.6L541.3,833.2
		z M398.3,831.2H540L658.3,528l-197.2,33.6l-0.2,0L272.6,528l39.2,168.4L398.3,831.2z"/>
	<polygon id="XMLID_81_" class="st2" points="310.9,654.7 387.3,649.8 443.8,667.6 524,635.5 604.2,667.6 579.9,786.2 461.1,847.5 
		350.3,769.2 	"/>
	<path id="XMLID_62_" d="M693.3,486.5l-14.2,5.3c-4.7,1.7-9.5,3.4-14.3,5.1c-9.5,3.3-19.1,6.4-28.8,9.3c-4.8,1.5-9.6,2.8-14.5,4.2
		l-7.3,2l-7.3,1.9l-7.3,1.9l-7.3,1.7l-7.3,1.7l-7.4,1.5l-7.4,1.5c-2.5,0.5-4.9,0.9-7.4,1.4c-4.9,0.9-9.8,1.8-14.8,2.5
		c-4.9,0.8-9.9,1.6-14.8,2.1c-4.9,0.6-9.9,1.3-14.9,1.7c-5,0.5-9.9,1-14.9,1.4c-5,0.4-9.9,0.8-14.9,0.9l-7.5,0.4
		c-2.5,0.1-5,0.1-7.4,0.2l-7.4,0.1c-2.5,0-5,0-7.4,0l-7.4-0.1l-7.4-0.3l-7.4-0.3l-7.4-0.5l-7.4-0.5l-7.4-0.7
		c-2.5-0.3-4.9-0.4-7.4-0.8l-7.4-0.9c-4.9-0.6-9.8-1.4-14.7-2.2c-4.9-0.7-9.7-1.7-14.6-2.6c-9.7-1.9-19.3-4.1-28.9-6.6
		c-4.8-1.2-9.5-2.7-14.3-4c-4.7-1.4-9.4-3-14.1-4.5c-4.7-1.5-9.3-3.3-14-4.9c-4.6-1.7-9.2-3.6-13.8-5.3l-13.7-5.8l-13.5-6.2l-13-6.5
		l-13.7-7.3l-25,38.4c5.3,4,10.6,9.3,15.5,15.5c4.8,6.2,9.3,13.3,13.5,20.7c8.4,14.9,15.6,31.3,22.4,48.2
		c6.7,16.9,13,34.3,19.3,51.8c6.3,17.5,12.6,35.3,19.5,53c3.5,8.9,7,17.7,10.9,26.6c3.8,8.9,7.8,17.7,12.2,26.4
		c8.7,17.5,18.7,34.8,31.4,51c6.4,8.1,13.4,15.9,21.4,23c8,7.1,16.9,13.6,26.6,18.7c9.8,5.2,20.3,9.1,31.2,11.4
		c2.7,0.7,5.4,1.1,8.2,1.5c2.7,0.5,5.5,0.7,8.2,0.9c2.7,0.3,5.6,0.3,8.5,0.4c3.2,0.1,5.2,0,7.6-0.1l1.7,0l0.9,0l0.8,0l0.2,0l0.5,0
		l3.8-0.3c2.5-0.2,5-0.3,7.6-0.7l7.6-0.9l7.7-1.3c10.2-1.9,20.5-4.6,30.5-8.6c10-3.9,19.9-9.2,28.8-15.7c9-6.5,17.1-14.4,23.9-23
		c6.8-8.6,12.4-17.9,17-27.4c4.6-9.5,8.2-19.1,11.2-28.7c6-19.2,9.8-38.3,13.3-56.8c3.5-18.6,6.5-36.7,10.6-54.2
		c4-17.4,8.8-34.2,15.6-49.5c6.8-15.2,15.6-28.7,26.6-39.5c5.5-5.4,11.6-10.2,18.2-14.4c6.6-4.1,13.7-7.6,21.2-10.6l0,0L693.3,486.5
		z M298.6,552.9c5.2,1.6,10.3,3.4,15.5,4.9c5.2,1.5,10.4,3.1,15.7,4.4c10.5,2.7,21.1,5.2,31.8,7.3c5.3,1,10.7,2.1,16,2.9
		c5.4,0.8,10.7,1.7,16.1,2.4l8.1,1c2.7,0.3,5.4,0.6,8.1,0.8l8.1,0.8c2.7,0.2,5.4,0.4,8.1,0.6l8.1,0.5l8.1,0.3l8.1,0.3l8.1,0.1
		c2.7,0,5.4,0.1,8.1,0l8.1-0.2c2.7-0.1,5.4-0.1,8.1-0.2l8.1-0.4c5.4-0.2,10.8-0.6,16.2-1c5.4-0.3,10.8-0.9,16.1-1.5
		c5.4-0.5,10.7-1.2,16.1-1.9c5.4-0.6,10.7-1.5,16-2.3c5.3-0.8,10.6-1.7,15.9-2.7c2.6-0.5,5.3-0.9,7.9-1.5l7.9-1.6l7.9-1.6l7.8-1.8
		l7.8-1.8l2.6-0.7c-2.9,5.5-5.6,11.1-7.9,16.8c-7.9,19-12.9,38.2-16.8,57.1c-0.8-0.3-1.6-0.6-2.4-0.9c-2.1-0.7-4.3-1.5-6.6-2.3
		c-2.3-0.7-4.7-1.5-7.1-2.3c-2.5-0.7-5.1-1.4-7.7-2.2c-2.7-0.7-5.4-1.4-8.2-2c-2.8-0.6-5.6-1.3-8.6-1.7c-1.5-0.2-2.9-0.5-4.4-0.7
		c-1.5-0.2-3-0.4-4.5-0.5c-6.1-0.7-12.4-1.1-18.7-0.9c-6.3,0.2-12.8,0.7-19,2c-6.2,1.2-12.3,2.9-18,4.9c-5.7,2-11,4.5-15.8,7
		c-2.4,1.3-4.7,2.6-6.9,3.9c-2.2,1.3-4.3,2.6-6.2,3.9c-3.9,2.6-7.3,5-10.3,7.3c-2.4,1.9-4.5,3.5-6.4,4.9c-2.4-1.8-4.9-3.6-7.6-5.3
		c-4.8-3.3-10.2-6.3-15.8-9.2c-5.6-2.9-11.8-5.3-18.1-7.2c-6.4-1.9-13.1-3.3-19.8-3.7c-6.7-0.5-13.4-0.2-19.7,0.6
		c-6.3,0.8-12.3,2.2-17.7,4c-5.4,1.7-10.4,3.6-14.8,5.6c-2,0.9-3.9,1.8-5.7,2.7c-0.8-2.5-1.7-4.9-2.5-7.4c-6-17.7-12-35.5-18.6-53.5
		c-4.1-11-8.4-22-13.3-33C288.9,549.5,293.7,551.3,298.6,552.9z M567.1,742.5c-4.9,16.4-11.7,31.5-21,43.7
		c-9.3,12.1-21.7,21-36.3,26.8c-7.3,2.9-15.1,5-23.3,6.6l-6.1,1l-6.3,0.8c-2.1,0.3-4.2,0.4-6.3,0.6l-3.2,0.3l-0.4,0l-0.2,0l-0.5,0
		l-1.7,0.1c-2.3,0.1-4.9,0.2-6.4,0c-1.8-0.1-3.4-0.1-5.4-0.3c-1.9-0.2-3.8-0.3-5.7-0.7c-1.9-0.3-3.8-0.6-5.6-1
		c-7.4-1.6-14.5-4.2-21.2-7.8c-13.4-7.1-25.3-18.3-35.5-31.5c-10.2-13.3-18.9-28.5-26.7-44.4c-7.8-16-14.5-32.8-20.9-49.9
		c-1.8-4.8-3.5-9.7-5.3-14.6c2.6-1.5,5.4-3.2,8.6-4.8c3.4-1.8,7.2-3.5,11.2-5c4-1.5,8.2-2.8,12.6-3.6c8.8-1.7,18.2-1.7,27.8,0.5
		c4.8,1.1,9.6,2.6,14.3,4.5c4.7,2,9.3,4.2,13.6,6.7c4.4,2.4,8.5,5.1,12.4,7.7c3.9,2.7,7.5,5.3,10.7,7.9c3.3,2.5,6.2,5,8.9,7.1
		c2.6,2.2,4.9,4.1,6.7,5.8c3.7,3.3,5.8,5.2,5.8,5.2l0.2,0.2c4,3.6,10.1,3.5,14.1-0.2c4.2-3.9,4.3-10.5,0.4-14.7c0,0-2-2.2-5.6-5.9
		c-1.4-1.5-3.2-3.3-5.2-5.2c0.6-0.7,1.2-1.3,1.9-2c2.1-2.1,4.5-4.5,7.3-6.8c2.8-2.3,5.8-4.8,9.2-6.9c3.4-2.1,7.1-4.3,11-6
		c4-1.7,8.2-3.1,12.6-4.1c4.4-1,9-1.6,13.7-1.7c2.3-0.1,4.7,0,7.1,0c1.2,0.1,2.4,0.2,3.5,0.3c1.2,0.1,2.4,0.2,3.5,0.4
		c4.7,0.6,9.3,1.7,13.8,2.9c2.2,0.6,4.4,1.4,6.5,2c2.1,0.8,4.2,1.6,6.2,2.4c2,0.9,3.9,1.7,5.8,2.5c1.9,0.8,3.6,1.8,5.3,2.6
		c3.4,1.7,6.5,3.5,9.2,5.1c0,0,0,0,0,0c-1.2,7.1-2.4,14.2-3.6,21.2C575.4,708.3,572.1,726,567.1,742.5z"/>
	<g id="XMLID_32_">
		<ellipse id="XMLID_76_" class="st0" cx="337.4" cy="384.3" rx="33.4" ry="40.3"/>
	</g>
	<g id="XMLID_29_">
		<path id="XMLID_72_" d="M387.1,385c0,0,0,0.9,0,2.6c0,0.4,0,0.9,0,1.4c0,0.7-0.1,1.6-0.2,2.5c-0.1,0.9-0.2,1.9-0.3,3
			c-0.1,1.1-0.3,2-0.4,3.1c-0.6,4.3-1.9,9.5-4.4,15.2c-2.5,5.7-6.2,12.1-12.3,17.9c-3,2.9-6.7,5.6-10.9,7.8
			c-4.3,2.1-9.1,3.9-14.3,4.6c-1.3,0.3-2.6,0.3-3.9,0.4l-2,0.1l-1,0c1,0-1.5,0-1.3,0l-0.1,0l-0.1,0l-0.3,0c-0.8-0.1-1.6-0.1-2.4-0.2
			l-0.3,0l-0.2,0l-0.3,0l-1.2-0.2c-0.8-0.1-1.6-0.3-2.4-0.4c-0.8-0.2-1.6-0.3-2.4-0.5c-0.8-0.2-1.3-0.4-2-0.6
			c-1.3-0.4-2.6-0.8-3.9-1.3c-2.5-1.1-5-2.3-7.3-3.7c-4.6-2.9-8.7-6.4-12-10.4c-1.8-2-3.2-4.1-4.6-6.3c-1.3-2.2-2.6-4.4-3.6-6.8
			c-4.3-9.2-5.7-19.2-5.3-28.9c0-1.4,0-0.4,0-0.8l0-0.1l0-0.2l0-0.3l0.1-0.7l0.2-1.4l0.2-1.4l0.3-2c0.2-1.3,0.4-2.7,0.7-4l0.9-3.5
			c0.3-1.2,0.7-2.3,1.1-3.4c0.4-1.1,0.8-2.3,1.2-3.4c1-2.2,1.9-4.4,3.2-6.5c2.3-4.2,5.2-8.1,8.6-11.6c1.6-1.8,3.5-3.3,5.4-4.9
			c2-1.4,3.9-2.9,6.1-4c2.1-1.3,4.4-2.2,6.7-3.1c1.2-0.4,2.3-0.7,3.5-1.1c1.2-0.4,2.4-0.6,3.6-0.8c1.2-0.2,2.4-0.4,3.6-0.5
			c1.2-0.1,2.4-0.1,3.6-0.2l0.4,0l0.2,0l0.1,0l0.9,0l0.6,0l1.2,0.1c0.9,0.1,1.3,0,2.9,0.3c1.3,0.2,2.6,0.4,3.9,0.7
			c1.2,0.3,2.2,0.6,3.3,0.9c2.2,0.6,4.1,1.5,6.1,2.3c3.8,1.9,7.2,4,10.1,6.5c5.9,4.8,10.1,10.3,13,15.5c2.9,5.2,4.8,10.1,5.8,14.2
			c0.6,2,0.9,3.9,1.2,5.5c0.1,0.8,0.3,1.6,0.4,2.3c0.1,0.7,0.1,1.3,0.2,1.9c0.2,2.3,0.3,3.5,0.3,3.5L387.1,385z M354.5,384.3
			c0,0,0-0.6,0.1-1.7c0-0.3,0-0.6,0.1-1c0-0.3,0-0.7-0.1-1.1c0-0.8,0-1.8-0.2-2.8c-0.2-2.1-0.7-4.6-1.7-7.4c-1-2.7-2.5-5.6-4.7-8
			c-1.1-1.2-2.4-2.2-3.8-3.1c-0.7-0.3-1.4-0.8-2.2-1c-0.4-0.1-0.8-0.3-1.1-0.4c-0.2,0-0.4-0.1-0.6-0.2c0-0.1-1.1-0.1-1.8-0.2
			l-1.2-0.1l-0.6,0c-0.8,0,0.9,0,0.8,0l0,0l-0.1,0l-0.2,0c-0.4,0.1-0.8,0.1-1.3,0.1c-0.4,0-0.8,0.2-1.2,0.3
			c-0.8,0.1-1.6,0.5-2.5,0.8c-0.8,0.5-1.6,0.8-2.4,1.4c-1.6,1.1-3.1,2.4-4.4,4.2c-0.7,0.8-1.2,1.8-1.8,2.7c-0.5,1-1.1,2-1.4,3.1
			c-0.9,2.1-1.5,4.5-1.8,6.9l-0.2,1.8c0,0.5,0,0.9,0,1.4c-0.1,0.2,0,3.9,0.1,4.1c0.6,4.8,2.1,9.4,4.4,12.9c1.1,1.8,2.4,3.3,3.7,4.4
			c0.6,0.6,1.3,1.1,1.9,1.6c0.7,0.4,1.3,0.8,1.9,1.1c0.6,0.4,1.2,0.5,1.8,0.7c0.3,0.1,0.6,0.1,0.8,0.2c0.1,0,0.3,0.1,0.3,0.1
			c0,0,0,0,0-0.1c0,0,0,0,0,0l0,0c0,0,0,0,0,0l0.2,0l0.3,0c0.8,0,1.6,0.1,2.4,0.1l0.3,0l0.1,0l0.1,0c0.3,0-2.2-0.1-1.1,0l0.2,0
			c0.1,0,0.2,0,0.4,0c0.2,0,0.5,0,0.7-0.1c0.2-0.1,0.5-0.1,0.7-0.1c0.2,0,0.5-0.2,0.7-0.2c0.5,0,1-0.4,1.5-0.5
			c1-0.5,2.1-0.9,3.1-1.7c2.1-1.4,4-3.5,5.5-5.6c1.4-2.2,2.5-4.4,3.1-6.3c0.1-0.5,0.4-1,0.4-1.3c0.1-0.3,0.2-0.6,0.2-0.9
			c0.1-0.3,0.2-0.5,0.2-0.9c0.1-0.5,0.1-1,0.1-1.4c0.2-1.7,0.3-2.6,0.3-2.6L354.5,384.3z"/>
	</g>
	<g id="XMLID_28_">
		<ellipse id="XMLID_70_" class="st0" cx="540.6" cy="384.3" rx="39.3" ry="45"/>
	</g>
	<g id="XMLID_25_">
		<path id="XMLID_34_" d="M595.7,385c0,0,0,1,0,3c0,0.5,0,1,0,1.6c-0.1,0.9-0.1,1.8-0.2,2.9c-0.1,1-0.2,2.2-0.3,3.3
			c-0.1,1.2-0.3,2.2-0.5,3.4c-0.8,4.8-2.3,10.5-5.2,16.8c-2.9,6.3-7.3,13.2-14.2,19.3c-6.7,6.1-16.3,11.1-27.3,12.7
			c-1.4,0.3-2.8,0.3-4.2,0.4l-2.1,0.1l-1.1,0c1,0-1.5,0-1.2,0l-0.1,0l-0.2,0l-0.3,0c-0.9-0.1-1.8-0.1-2.7-0.2l-0.7-0.1l-1.3-0.2
			l-2.5-0.4c-3.6-0.6-6.1-1.5-8.9-2.4c-2.7-1.1-5.4-2.2-7.9-3.8c-2.6-1.4-4.9-3.2-7.2-4.9c-2.2-1.9-4.4-3.8-6.2-6
			c-2-2.1-3.7-4.4-5.3-6.7c-0.8-1.2-1.5-2.4-2.2-3.6c-0.4-0.6-0.7-1.2-1.1-1.8l-0.9-1.9c-5-10.1-6.9-21.3-6.4-32.1
			c0-1.4,0-0.5,0-0.8l0-0.1l0-0.2l0-0.4l0.1-0.8l0.2-1.5l0.2-1.6l0.4-2.2c0.3-1.5,0.5-3,0.8-4.4l1.1-3.9c1.6-5.1,3.7-10.1,6.5-14.6
			c2.8-4.5,6-8.8,9.9-12.4c1.8-1.9,4-3.5,6.1-5.1c2.2-1.5,4.4-2.9,6.8-4c2.3-1.3,4.8-2.1,7.2-3.1c2.5-0.7,5-1.5,7.5-1.8
			c2.5-0.5,5-0.6,7.5-0.6l0.5,0l0.2,0l0.1,0l0.8,0l0.7,0l1.4,0.1l1.3,0.1c0.2,0,0.4,0,0.7,0.1l1,0.1c1.4,0.2,2.7,0.4,4,0.7
			c0.7,0.1,1.3,0.3,1.8,0.4l1.7,0.5c2.3,0.6,4.4,1.5,6.5,2.3c1.1,0.4,2,1,3,1.5c1,0.5,2,1,2.9,1.5c0.9,0.6,1.8,1.2,2.7,1.7l1.3,0.9
			l1.2,1c6.6,5,11.4,10.8,14.9,16.4c3.5,5.6,5.6,11,6.8,15.6c0.3,1.1,0.7,2.2,0.9,3.2c0.2,1,0.4,2,0.5,2.9c0.2,0.9,0.3,1.7,0.4,2.5
			c0.1,0.8,0.1,1.5,0.2,2.1c0.2,2.5,0.3,3.9,0.3,3.9L595.7,385z M564.1,384.3c0,0,0-0.7,0.1-2.1c0-0.3,0-0.7,0.1-1.1
			c0-0.4-0.1-0.9-0.1-1.4c0-0.5,0-1-0.1-1.6c0-0.6-0.1-1.2-0.2-1.8c-0.3-2.5-0.9-5.6-2.2-8.9c-1.3-3.3-3.3-6.8-6.4-9.8l-0.6-0.6
			l-0.6-0.5c-0.4-0.3-0.8-0.7-1.3-1c-0.9-0.6-1.8-1.2-2.8-1.7c-1-0.4-2-1-3.1-1.3l-0.8-0.3c-0.3-0.1-0.5-0.2-0.7-0.2
			c-0.4-0.1-0.8-0.1-1.2-0.3l-0.3-0.1c-0.1,0-0.4,0-0.6,0l-1.3-0.1l-1.4-0.1l-0.7,0c-0.7,0,0.8,0,0.6,0l-0.1,0l-0.1,0l-0.2,0
			c-1.2,0.1-2.4,0.2-3.5,0.5c-1.2,0.1-2.3,0.7-3.5,1c-1.1,0.6-2.3,1-3.3,1.7c-1.1,0.6-2.1,1.5-3.1,2.3c-0.9,1-2,1.8-2.8,2.9
			c-0.9,1-1.7,2.2-2.5,3.3c-0.4,0.6-0.7,1.3-1,1.9l-0.5,0.9l-0.4,1c-1.2,2.6-1.9,5.4-2.4,8.3l-0.3,2.2l0,1.8l0,0.8l0,1.5l0,1.6
			l0,0.8l0,0.4l0,0.2l0,0.1c0-0.3,0,0.8,0-0.6c0.7,5.8,2.6,11.2,5.5,15.4c1.5,2.1,3,4,4.8,5.4c0.8,0.8,1.8,1.3,2.6,2
			c0.9,0.5,1.8,1.1,2.7,1.4c0.8,0.5,1.8,0.6,2.6,1c0.8,0.1,1.9,0.5,2,0.4c0.1,0,0.2,0,0.2,0.1l0.1,0.1l0.7,0c0.9,0,1.8,0.1,2.8,0.1
			l0.3,0l0.2,0l0.1,0c0.3,0-2.1-0.1-1.1,0l0.3,0l0.6-0.1c0.4-0.1,0.8,0,1.2-0.1c3.1-0.5,6.1-1.5,8.9-3.5c2.8-1.8,5.2-4.3,7.1-6.9
			c1.8-2.6,3.1-5.3,3.8-7.6c0.2-0.6,0.4-1.2,0.5-1.6c0.1-0.4,0.2-0.8,0.3-1.2c0.1-0.4,0.2-0.7,0.3-1c0.1-0.6,0.1-1.1,0.2-1.6
			c0.2-1.9,0.3-3,0.3-3L564.1,384.3z"/>
	</g>
</g>
</svg>
