<?xml version="1.0" encoding="utf-8"?>
<!-- Generator: Adobe Illustrator 19.0.0, SVG Export Plug-In . SVG Version: 6.00 Build 0)  -->
<svg version="1.1" id="Layer_1" xmlns="http://www.w3.org/2000/svg" xmlns:xlink="http://www.w3.org/1999/xlink" x="0px" y="0px"
	 viewBox="0 0 1000 1000" style="enable-background:new 0 0 1000 1000;" xml:space="preserve">
<style type="text/css">
	.st0{fill:#BA0000;}
	.st1{fill:#FFA200;}
	.st2{fill:#ED1C24;}
	.st3{fill:#6D6E71;}
</style>
<g id="XMLID_114_">
	<path id="XMLID_405_" class="st0" d="M655.9,605.1L655.9,605.1c-10.7-112.4-63.1-197.8-126-197.8c-70.7,0-128,107.6-128,240.3
		c0,11.8-5-17.6-4.1-6.3h0c-10.1,133.8,46.3,347.2,46.3,347.2s8.4-103.8,88.5-111.9c80.1-8.2,107.4,101,107.4,101
		C659.9,885.5,670.8,739.9,655.9,605.1z"/>
</g>
<g id="XMLID_111_">
	<path id="XMLID_401_" d="M661.1,615.5c-33.6-18.7-9.3-5.2-16.8-9.4l0-0.1l0-0.3l-0.1-0.5l-0.1-1.1l-0.2-2.1l-0.5-4.3
		c-0.3-2.9-0.7-5.7-1-8.6c-0.7-5.7-1.6-11.4-2.5-17.1c-1.9-11.3-4.3-22.6-7.1-33.7c-2.9-11.1-6.3-22-10.3-32.7
		c-4-10.7-8.7-21.1-14.2-31c-2.8-5-5.7-9.8-8.9-14.4c-3.2-4.7-6.6-9.1-10.2-13.3c-7.3-8.4-15.6-15.9-24.8-21.5
		c-9.2-5.6-19.5-9.1-29.9-9.8l-2-0.1l-2,0l-0.5,0l-0.1,0c-0.1,0,0.3,0,0.1,0l-0.3,0l-1.1,0l-1.1,0c-0.4,0-0.8,0-1,0.1
		c-2.3,0.2-5,0.5-7.6,1c-5.1,1.1-10.1,2.8-14.9,5c-9.6,4.5-18.2,11.2-25.9,19c-7.7,7.8-14.4,16.8-20.3,26.2
		c-5.9,9.5-11.2,19.5-15.8,29.9c-4.6,10.4-8.6,21.1-12,32c-3.4,10.9-6.3,22-8.7,33.3c-2.4,11.2-4.3,22.6-5.7,34.1
		c-1.4,11.4-2.3,23-2.8,34.5c-0.1,2.9-0.2,5.8-0.3,8.7c0,1.4-0.1,2.9-0.1,4.3l-0.1,4.4c0,0.5,0,1-0.1,1.7c0,0.3,0,0.7-0.1,1.2
		c-0.1,0.5-0.1,1-0.5,2.3c-0.1,0.4-0.2,0.8-0.6,1.5c-0.4,0.7-0.7,1.7-2.5,3.4c-1.3,2-7.7,3.8-10.7,2.2c-3-1.2-3.7-2.3-4.3-2.8
		c-0.6-0.7-0.9-1.1-1.1-1.4c-0.2-0.4-0.4-0.6-0.5-0.8c-0.3-0.5-0.4-0.7-0.5-1c-0.5-1-0.6-1.5-0.8-2.1c-0.3-1-0.6-1.9-0.8-2.7
		l-0.6-2.3l-1-4.1c-0.1-0.2-0.2-0.5-0.1-0.5l0.1,0.3c0,0.1,0.1,0.2,0.2,0.5c0.1,0.2,0.3,0.6,0.8,1.4c-3-1.4,7.8,9.4,16.6,0.4
		c2.6-4,1.6-3.7,2.1-4.6c0.1-0.8,0.1-1,0.1-1.1c0-0.3,0-0.2,0-0.2l0,0.3l0.1,0.9l-10.4,11.2L408,642c-1.1,14.2-1.5,28.6-1.3,43
		c0.1,7.2,0.3,14.4,0.6,21.6c0.3,7.2,0.7,14.4,1.3,21.7c2.1,28.9,5.6,57.8,9.9,86.5c1.1,7.2,2.2,14.4,3.4,21.6
		c1.2,7.2,2.4,14.4,3.8,21.5c2.6,14.3,5.5,28.6,8.4,42.9c1.5,7.1,3.1,14.2,4.7,21.3c1.6,7.1,3.3,14.2,5,21.3
		c1.8,7.1,3.5,14.1,5.4,21.2c1.8,7,3.7,14.1,5.7,21l-22.6,2l0.1-1.5l0.1-1.4l0.3-2.7c0.2-1.8,0.5-3.5,0.7-5.2
		c0.5-3.5,1.1-6.9,1.9-10.3c1.4-6.8,3.2-13.6,5.4-20.3c2.2-6.7,4.8-13.3,7.9-19.7c3.1-6.4,6.7-12.7,10.8-18.7
		c4.1-6,8.9-11.7,14.2-16.8c5.4-5.2,11.3-9.8,17.9-13.7c6.5-3.9,13.5-6.9,20.7-9c3.6-1.1,7.3-1.9,10.9-2.5c1.8-0.3,3.7-0.6,5.5-0.8
		l1.4-0.2l0.7-0.1l0.6-0.1l0.3,0l2.5-0.2c0.7-0.1,1.8-0.1,2.8-0.1c1,0,2-0.1,3-0.1c1.9,0,3.8,0,5.7,0.2c3.8,0.2,7.6,0.7,11.3,1.4
		c7.5,1.4,14.8,3.9,21.5,7.3c6.8,3.3,13,7.5,18.7,12.2c5.7,4.7,10.8,9.9,15.4,15.3c4.6,5.5,8.7,11.2,12.5,17.2
		c3.7,5.9,7.1,12,10.1,18.3c3,6.2,5.7,12.6,8.1,19c1.2,3.2,2.3,6.5,3.4,9.8c0.5,1.6,1,3.3,1.5,5l0.7,2.5l0.3,1.3l0.4,1.4l-19.9,0.3
		c1.7-7.5,3.3-15,4.8-22.6c1.5-7.6,2.8-15.1,4.2-22.7c0.6-3.8,1.3-7.6,1.9-11.4l1.7-11.5c1.1-7.7,2.1-15.3,3-23
		c0.9-7.7,1.8-15.4,2.5-23.1c0.8-7.7,1.4-15.4,2-23.1c0.3-3.9,0.6-7.7,0.9-11.6c0.3-3.9,0.6-7.7,0.7-11.6c0.5-7.7,0.8-15.5,1.1-23.2
		c0.3-7.7,0.4-15.5,0.5-23.2c0-3.9,0.1-7.7,0.1-11.6l-0.1-11.6l-0.2-11.6l-0.3-11.6c-0.3-7.7-0.6-15.5-1-23.2
		c-0.2-3.9-0.4-7.7-0.6-11.6c-0.2-3.9-0.4-7.7-0.7-11.6c-0.2-3.9-0.5-7.7-0.8-11.6c-0.3-3.9-0.5-7.7-0.9-11.5
		c-0.6-7.7-1.3-15.4-2-23.1l-1.1-11.5l-1.2-11.5L661.1,615.5z M667.4,603.8l1.2,11.8c0.4,3.9,0.7,7.8,1.1,11.8
		c0.7,7.8,1.2,15.7,1.6,23.6c0.5,7.9,0.8,15.7,1,23.6c0.3,7.9,0.4,15.7,0.5,23.6c0.1,7.9,0.1,15.7,0,23.6l-0.2,11.8l-0.2,11.8
		l-0.7,23.5c-0.3,7.8-0.6,15.7-1,23.5c-0.4,7.8-0.8,15.7-1.2,23.5c-0.4,7.8-0.9,15.7-1.5,23.5c-0.6,7.8-1.2,15.7-1.9,23.5
		c-0.3,3.9-0.7,7.8-1.1,11.7c-0.4,3.9-0.8,7.8-1.2,11.7c-0.8,7.8-1.7,15.6-2.7,23.4l-1.5,11.7l-1.6,11.7c-1.2,7.8-2.4,15.6-3.7,23.3
		c-1.3,7.8-2.8,15.5-4.4,23.3l-19.9,0.3l-0.6-2l-0.7-2.2c-0.5-1.5-1-2.9-1.5-4.4c-1-2.9-2.1-5.9-3.3-8.8c-2.3-5.8-4.9-11.5-7.8-17
		c-2.8-5.5-6-10.9-9.3-16c-3.4-5.1-7-10-11-14.5c-4-4.5-8.2-8.6-12.8-12.2c-4.6-3.6-9.4-6.6-14.5-9c-2.5-1.2-5.1-2.2-7.8-3
		c-2.6-0.8-5.3-1.5-8-2c-2.7-0.5-5.5-0.8-8.3-0.9c-1.4-0.1-2.8-0.1-4.2-0.1c-0.7,0-1.3,0.1-2,0.1c-0.7,0-1.2,0-2.1,0.1l-2.5,0.2
		l-0.3,0l-0.1,0c-0.3,0,0.3,0,0.2,0l-0.1,0l-0.5,0.1l-1.1,0.1c-1.4,0.2-2.8,0.4-4.2,0.7c-2.8,0.6-5.5,1.2-8.2,2
		c-5.4,1.6-10.5,3.9-15.2,6.8c-4.8,2.9-9.2,6.4-13.3,10.3c-4.1,4-7.8,8.5-11.1,13.3c-3.3,4.8-6.3,10-8.9,15.4c-2.6,5.4-5,11-7,16.8
		c-2,5.8-3.8,11.7-5.2,17.7c-0.7,3-1.4,6-2,9c-0.3,1.5-0.6,3-0.8,4.5l-0.3,2.2l-0.3,2l-22.6,2c-1.8-7.3-3.4-14.4-5-21.7
		c-1.6-7.2-3.1-14.4-4.6-21.6c-1.5-7.2-3-14.4-4.5-21.6c-1.5-7.2-2.9-14.4-4.3-21.7c-2.9-14.4-5.6-28.9-8.1-43.4
		c-1.3-7.3-2.5-14.5-3.7-21.8c-1.2-7.3-2.4-14.5-3.5-21.8c-4.5-29.1-8.2-58.4-10.5-88c-0.6-7.4-1.1-14.8-1.5-22.2
		c-0.4-7.4-0.7-14.8-0.8-22.3c-0.2-7.4-0.2-14.9,0-22.4c0.2-7.5,0.4-15,1-22.5l10.4-9.6L387.3,642l-0.1-1.4l0-0.8c0-0.3,0-0.6,0-1.3
		c0-0.3,0-0.6,0.2-1.7c0.4-0.9-0.5-0.7,2.1-4.8c8.8-9.1,19.8,1.8,16.8,0.5c0.6,0.9,0.8,1.4,1,1.7c0.2,0.3,0.2,0.5,0.3,0.7
		c0.1,0.4,0.2,0.6,0.3,0.8c0.3,0.8,0.4,1.2,0.5,1.7c0.5,1.7,0.8,3.1,1.2,4.5l0.5,2c0.2,0.6,0.4,1.2,0.5,1.6c0,0.2,0.1,0.3,0,0
		c0-0.1-0.1-0.2-0.3-0.5c-0.1-0.1-0.2-0.3-0.4-0.6c-0.2-0.3-0.4-0.6-1-1.2c-0.6-0.5-1.2-1.5-4.1-2.7c-3-1.6-9.2,0.3-10.5,2.1
		c-1.7,1.7-2,2.6-2.4,3.2c-0.3,0.6-0.4,1-0.5,1.3c-0.3,1-0.2,1.1-0.3,1.3c0,0.1,0,0.1,0,0l0-0.6l0-4.5c0-1.5,0-3,0-4.5
		c0-3,0.1-6,0.2-9.1c0.4-12.1,1.3-24.2,2.7-36.2c1.4-12,3.3-24,5.7-36c2.5-11.9,5.5-23.7,9.2-35.4c3.7-11.6,8-23.1,13.1-34.3
		c5.1-11.2,11-22.1,18-32.4c7-10.3,15-20.1,24.4-28.7c9.4-8.6,20.1-16.1,32.2-21.1c6-2.5,12.4-4.4,18.9-5.5c3.3-0.6,6.5-0.9,10-1.1
		c0.5,0,0.8,0,1.2,0l1.1,0l1.1,0l0.3,0l0.3,0l0.2,0l0.6,0l2.5,0.1l2.5,0.2c3.3,0.3,6.6,0.7,9.8,1.4c3.2,0.7,6.4,1.5,9.5,2.6
		c6.2,2.1,12.1,4.8,17.7,8.1c11.1,6.5,20.7,14.9,29.2,24.1c4.2,4.6,8.2,9.4,11.8,14.4c3.7,5,7.1,10.1,10.4,15.4
		c6.4,10.5,12,21.5,16.9,32.7c4.9,11.2,9.1,22.7,12.6,34.4c3.6,11.7,6.4,23.5,8.8,35.5c1.2,6,2.2,12,3,18c0.4,3,0.8,6,1.2,9l0.5,4.5
		l0.2,2.3l0.1,1.1l0.1,0.6l0,0.3L667.4,603.8c-7.5-4.1,16.8,9.4-16.8-9.1L667.4,603.8z"/>
</g>
<path id="XMLID_399_" d="M780.5,598.8L219.1,882.1c-35,17.7-77.7,3.6-95.3-31.4c-16.4-32.6-5.4-71.8,24.5-91.3l526-344.6
	c49.2-32.2,115.1-18.5,147.4,30.7s18.5,115.1-30.7,147.4C787.5,595,784,597,780.5,598.8z"/>
<g id="XMLID_110_">
	<path id="XMLID_398_" class="st0" d="M502.9,443.1c0,0-0.8,1.3-2.2,3.8c-0.7,1.2-1.7,2.7-2.7,4.5c-0.6,0.9-1.1,1.8-1.6,2.7
		c-0.5,0.9-1.1,1.9-1.7,2.9c-2.4,4-5.4,9.4-8.7,15.3c-3.3,6-7,12.8-10.8,20.4c-1,1.9-1.9,3.8-2.9,5.7c-0.9,2-1.9,4-2.9,6
		c-2.1,4-3.9,8.4-5.9,12.7c-3.7,8.8-7.6,18.2-11.1,28c-3.5,9.8-7,20-9.9,30.5c-0.8,2.6-1.5,5.2-2.2,7.9c-0.7,2.7-1.5,5.3-2,8
		c-0.6,2.7-1.2,5.4-1.9,8.1c-0.6,2.7-1,5.4-1.6,8.1c-1.9,10.8-3.4,21.8-4,32.6c-0.6,10.8-0.8,21.5,0,31.8c0.2,5.2,0.9,10.2,1.4,15.2
		c0.3,2.5,0.7,4.9,1.1,7.3c0.4,2.4,0.7,4.8,1.2,7.1c1,4.7,1.8,9.3,3,13.6c0.5,2.2,1.1,4.3,1.6,6.5c0.6,2.1,1.3,4.1,1.9,6.1
		c0.6,2,1.2,4,1.8,5.9c0.7,1.9,1.3,3.8,2,5.6c0.6,1.8,1.3,3.6,1.9,5.3c0.7,1.7,1.4,3.3,2,4.9c0.7,1.6,1.3,3.1,1.9,4.6
		c0.3,0.8,0.6,1.5,0.9,2.2c0.3,0.7,0.6,1.4,1,2.1c1.3,2.7,2.4,5.2,3.5,7.5c1,2.3,2.1,4.2,3,6c0.9,1.7,1.7,3.2,2.3,4.4
		c1.2,2.4,1.9,3.7,1.9,3.7l0.5,0.9c4.2,8,1.1,17.8-6.9,22c-7.1,3.7-15.7,1.6-20.4-4.5c0,0-1-1.3-2.8-3.7c-0.9-1.2-2.1-2.7-3.4-4.4
		c-1.3-1.8-2.9-3.7-4.5-6.1c-1.6-2.4-3.4-5-5.3-7.8c-0.5-0.7-1-1.4-1.5-2.2c-0.5-0.8-0.9-1.5-1.4-2.3c-1-1.6-2-3.2-3-4.9
		c-1-1.7-2.1-3.5-3.2-5.3c-1-1.9-2-3.8-3.1-5.8c-1.1-2-2.2-4-3.3-6.1c-1-2.1-2-4.3-3.1-6.6c-1-2.2-2.1-4.5-3.2-6.9
		c-1-2.4-2-4.8-3-7.3c-2.1-4.9-3.9-10.2-5.7-15.6c-1-2.7-1.7-5.5-2.6-8.3c-0.8-2.8-1.7-5.7-2.4-8.6c-1.3-5.8-3-11.8-4-18
		c-2.4-12.3-3.8-25.2-4.6-38.3c-0.1-3.3-0.3-6.6-0.4-9.9c0-3.3,0-6.6,0-10c0-3.3,0.2-6.7,0.3-10c0.1-3.3,0.3-6.7,0.6-10
		c0.9-13.3,2.8-26.5,5.3-39.4c2.5-12.9,6-25.2,9.8-37c1-2.9,2-5.8,3-8.7c1.1-2.8,2.2-5.6,3.3-8.4c0.5-1.4,1.1-2.8,1.6-4.1
		c0.6-1.3,1.2-2.7,1.7-4c1.2-2.7,2.3-5.3,3.4-7.9c4.7-10.3,9.5-19.8,14.3-28.4c2.3-4.3,4.9-8.3,7.2-12.1c2.3-3.9,4.7-7.3,6.9-10.7
		c2.2-3.3,4.4-6.3,6.4-9.2c2-2.8,4-5.4,5.8-7.7c0.9-1.2,1.8-2.3,2.6-3.3c0.4-0.5,0.8-1,1.2-1.5c0.4-0.5,0.7-0.9,1.1-1.3
		c1.3-1.6,2.5-2.9,3.4-4c1.9-2.2,2.9-3.3,2.9-3.3c10.5-11.9,28.6-13.1,40.6-2.7C507.6,416.2,509.7,431.5,502.9,443.1z"/>
</g>
<g id="XMLID_107_">
	<path id="XMLID_394_" d="M510.6,447.7c0,0-0.5,0.8-1.4,2.2c-0.5,0.8-1.1,1.7-1.7,2.8c-0.7,1.1-1.4,2.3-2.3,3.7
		c-1.7,2.8-3.8,6.3-6.3,10.5c-1.3,2.1-2.6,4.3-4.1,6.7c-0.4,0.6-0.7,1.2-1.1,1.8c-0.2,0.3-0.4,0.6-0.6,0.9l-0.1,0.1
		c-0.1,0.1,0.3-0.5,0.1-0.2l-0.1,0.2l-0.3,0.5c-0.7,1.3-1.5,2.6-2.3,4c-1.6,2.7-3.2,5.6-4.9,8.6c-0.9,1.5-1.7,3-2.6,4.6
		c-0.4,0.8-0.9,1.5-1.3,2.3c-0.4,0.8-0.9,1.6-1.3,2.5c-0.5,0.8-0.9,1.7-1.4,2.5l-0.2,0.3c-0.1,0.2,0.1-0.1,0,0l-0.1,0.2l-0.3,0.6
		c-0.2,0.4-0.4,0.9-0.7,1.3c-0.4,0.9-0.9,1.8-1.3,2.6c-0.2,0.5-0.5,1-0.7,1.5c-0.2,0.4-0.4,0.8-0.7,1.3c-0.9,1.7-1.7,3.5-2.6,5.4
		c-0.9,1.9-1.8,3.8-2.6,5.7c-3.5,8-6.9,16.4-10.2,25.4c-3.3,9.1-6.6,18.7-9.5,28.8c-0.7,2.5-1.4,5.1-2.1,7.8l-0.5,2l-0.3,1l-0.2,0.8
		c-0.4,1.4-0.7,2.7-1.1,4.1l-0.4,1.8l-0.4,2c-0.3,1.4-0.6,2.8-0.9,4.1l-0.5,2.1l-0.2,1c0.1-0.3,0,0.1,0,0.1l0,0.3l-0.1,0.5
		c-0.3,1.4-0.5,2.8-0.8,4.2l-0.4,2.1l-0.2,0.9l-0.2,1.1c-0.2,1.4-0.4,2.8-0.7,4.2c-0.4,2.8-0.8,5.7-1.2,8.6
		c-0.7,5.8-1.2,11.6-1.5,17.5c-0.3,6.1-0.4,12.1-0.3,18.2c0.1,3,0.2,6.1,0.4,9.1l0.2,2.3l0.1,1.1l0.1,1.5c0.1,1.4,0.2,2.9,0.4,4.4
		c0.4,3.1,0.7,6.2,1.1,9.3c0.5,3.2,1,6.3,1.6,9.5c0.1,0.8,0.2,1.5,0.4,2.2l0.2,1l0.3,1.2c0.3,1.6,0.7,3.3,1,4.9
		c0.3,1.6,0.7,3.1,1,4.6c0.2,0.7,0.4,1.5,0.6,2.2l0.4,1.3l0.3,1.2c0.4,1.6,0.8,3.2,1.3,4.9c0.5,1.5,0.9,2.9,1.4,4.4
		c0.5,1.6,1,3.2,1.5,4.8l0.8,2.4c-0.2-0.6,0,0,0-0.1l0.1,0.3l0.2,0.6l0.4,1.2c0.6,1.6,1.2,3.2,1.8,4.8l0.9,2.4l0.4,1.2
		c-0.2-0.5,0,0,0,0l0.1,0.3l0.2,0.6c1.3,3.1,2.6,6.3,4,9.5l0.2,0.6l0.1,0.3c0.2,0.4-0.1-0.2,0,0l0.6,1.2l1,2.2
		c0.7,1.6,1.5,3.1,2.2,4.7l0.6,1.2l0.5,1.1l1.2,2.3l1.2,2.3l1.1,2c0.8,1.5,1.6,3.1,2.4,4.6l0.6,1.2l0.3,0.6l0.2,0.3
		c-0.1-0.3,0.3,0.7,0.3,0.7l0.6,1.2c0.1,0.1,0.2,0.6,0.4,0.9l0.4,1.1c0.1,0.4,0.3,0.8,0.4,1.1l0.2,1c0.2,0.7,0.3,1.3,0.4,2
		c0.1,0.7,0.2,1.3,0.2,2c0,0.7,0.1,1.4,0.1,2c0,2.7-0.5,5.4-1.4,8c-1.7,5.2-5.3,9.7-9.8,12.8c-0.6,0.4-1.2,0.7-1.8,1.1l-0.4,0.3
		c-0.1,0.1-0.9,0.5-0.7,0.4l-0.6,0.3l-0.6,0.3l-1.1,0.4l-1.1,0.4c-0.4,0.1-0.7,0.2-1,0.3c-2.7,0.7-5.4,1-8.2,0.8
		c-5.5-0.3-10.8-2.5-15-6.1c-1-0.9-2-1.9-2.9-3l-0.6-0.8l-0.4-0.5l-0.8-1.1l-3.3-4.2l-3.3-4.2c-0.6-0.7-1.2-1.5-1.8-2.4l-0.9-1.3
		l-0.8-1.1c-2-3-4.1-6-6.1-9c-2.3-3.5-3.8-6.2-5.9-9.5l-1.4-2.3l-0.7-1.1l-0.3-0.6l-0.2-0.3l-0.3-0.6l-2.5-4.7l-2.5-4.7l-0.6-1.2
		l-0.3-0.6l-0.2-0.3c0,0-0.4-0.9-0.3-0.7l-1.1-2.4l-4.6-9.9l-0.3-0.6l-0.1-0.3l-0.3-0.6l-0.5-1.2l-1-2.5l-2-4.9
		c-1.5-3.6-2.7-7.1-3.9-10.5l-1.7-5c-0.7-2-1.2-3.8-1.7-5.5c-1-3.5-2-6.9-2.9-10.4l-0.3-0.9l-0.2-0.6l-0.3-1.3l-0.6-2.5l-1.2-5.2
		c-0.4-1.8-0.8-3.6-1.2-5.5c-0.3-1.7-0.6-3.5-1-5.2c-1.3-7.3-2.3-14.4-3.1-21.5c-0.4-3.6-0.7-7.1-0.9-10.7l-0.2-2.7l-0.2-2.9
		c-0.1-1.7-0.1-3.5-0.2-5.2l-0.1-2.6l-0.1-1.3l0-0.6l0-0.6l0-0.3c0-1.7,0-3.4,0-5.1c0-1.7,0-3.4,0-5.1c0-2,0.1-3.8,0.1-5.6l0.1-2.5
		l0-1.2l0.1-1.6c0.1-1.7,0.2-3.4,0.3-5.1c0.2-3.4,0.4-6.7,0.7-10.2c1.2-13.8,3.4-27.1,6.2-40.1c1.4-6.5,3.1-12.9,4.9-19.1
		c0.9-3.1,1.8-6.2,2.8-9.2l0.7-2.3l0.4-1.1l0.4-1.3c0.5-1.5,1-2.9,1.5-4.4l0.8-2.2l0.4-1.1l0.3-0.9l0.2-0.5c0.6-1.4,1.1-2.8,1.6-4.2
		c0.6-1.4,1.1-2.8,1.7-4.3l0.8-2.1l0.4-1l0.3-0.8l0.2-0.5c1.2-2.7,2.4-5.5,3.6-8.2l0.9-2l0.4-1l0.5-1.2c0.6-1.3,1.2-2.7,1.9-4
		c2.5-5.3,5.1-10.5,7.7-15.6c1.3-2.5,2.7-5.1,4.1-7.5c0.7-1.2,1.3-2.4,2-3.6c0.7-1.3,1.4-2.5,2.1-3.7c1.4-2.3,2.7-4.5,4.1-6.8
		c1.5-2.5,3-4.8,4.4-7c0.7-1,1.4-2.1,2.1-3.1c0.7-1.1,1.5-2.2,2.2-3.2c1.4-2.1,2.8-4.1,4.2-6.1c1.5-2.1,3.1-4.1,4.6-6.1l1.1-1.4
		l0.6-0.9l0.5-0.7c0.7-0.9,1.4-1.9,2.1-2.8c0.4-0.5,0.8-1,1.1-1.5c0.4-0.5,0.9-1,1.3-1.5c0.7-0.9,1.5-1.7,2.2-2.6l1.1-1.3
		c0.4-0.5,0.8-0.9,1.2-1.3l1.1-1.2l0.5-0.6l0.1-0.2l0.5-0.5l0.3-0.3l1.1-1.2l0.6-0.6l0.9-0.8c1.2-1,2.4-2.1,3.5-2.8
		c0.6-0.4,1.1-0.8,1.7-1.2c0.6-0.4,1.2-0.7,1.8-1c0.6-0.3,1.2-0.7,1.8-1c0.6-0.3,1.2-0.5,1.9-0.8c5-2.1,10.2-3,15.1-2.9
		c5,0.1,9.7,1.1,13.9,2.9c1.1,0.4,2.1,0.9,3.1,1.4c1,0.5,1.9,1.1,2.9,1.7c0.5,0.3,0.9,0.6,1.4,0.9c0.4,0.3,0.9,0.6,1.3,1
		c0.4,0.3,0.8,0.7,1.2,1l0.6,0.5c0.2,0.2-0.2-0.2,0.5,0.4l0.1,0.1l0.2,0.2c0.3,0.3,0.6,0.5,0.8,0.8l0.4,0.4c0.2,0.2,0.2,0.2,0.5,0.5
		c0.8,0.8,1.5,1.7,2.2,2.5c1.2,1.6,2.3,3.1,3.2,4.7c1.8,3.2,3.1,6.4,3.9,9.5c1.6,6.2,1.3,11.8,0.6,16.1c-0.8,4.3-2.1,7.5-3.1,9.6
		C511.2,446.7,510.6,447.7,510.6,447.7L510.6,447.7z M495.1,438.6c0,0,0.3-0.5,0.8-1.6c0.4-1.1,1.1-2.7,1.5-5
		c0.7-4.4,0.3-11.8-6.5-18.1l-0.2-0.2l-0.1-0.1c0.6,0.5,0.1,0.1,0.2,0.2l-0.3-0.2l-0.6-0.5c-0.2-0.2-0.4-0.4-0.7-0.5l-0.7-0.4
		c-0.5-0.3-0.9-0.6-1.5-0.9c-0.5-0.2-1-0.6-1.6-0.7c-2.2-0.9-4.6-1.4-7.2-1.5c-2.6,0-5.2,0.4-7.8,1.5l-1,0.4
		c-0.3,0.2-0.6,0.3-0.9,0.5c-0.3,0.2-0.6,0.3-0.9,0.5l-0.9,0.6c-0.7,0.4-1,0.8-1.5,1.1l-0.3,0.2l-0.6,0.6l-1.1,1.2l-0.3,0.3
		c-0.1,0.1,0.5-0.5,0.2-0.2l-0.1,0.2l-0.5,0.6l-1.1,1.2l-1,1.2l-1.1,1.3c-0.7,0.9-1.5,1.7-2.2,2.6l-0.9,1.1l-1,1.3
		c-0.7,0.9-1.4,1.8-2.1,2.7l-0.5,0.7l-0.4,0.6l-1.1,1.4c-1.3,1.8-2.7,3.6-4.1,5.4c-1.4,2-2.8,4-4.3,6.1c-0.7,1-1.4,2-2.1,3
		c-0.7,1.1-1.4,2.2-2.2,3.3c-1.4,2.1-2.8,4.2-3.9,6.1c-1.4,2.3-2.7,4.5-4.1,6.8c-0.7,1.1-1.3,2.2-1.9,3.3c-0.7,1.2-1.3,2.4-2,3.5
		c-1.3,2.3-2.6,4.6-3.8,7c-2.5,4.8-5,9.8-7.4,14.9c-0.6,1.3-1.2,2.6-1.8,3.9l-0.4,0.8l-0.4,1l-0.9,2c-1.2,2.7-2.3,5.4-3.5,8.1
		l-0.2,0.5c0,0-0.2,0.5,0,0l-0.1,0.3l-0.4,1l-0.8,2.1c-0.5,1.4-1.1,2.8-1.6,4.2c-0.5,1.4-1.1,2.8-1.6,4.2l-0.2,0.5
		c-0.1,0.2,0.2-0.4,0,0l-0.1,0.3l-0.4,1.1l-0.8,2.2c-0.5,1.5-1,2.9-1.5,4.4l-0.3,0.9l-0.4,1.1l-0.7,2.2c-0.9,2.9-1.8,5.8-2.7,8.8
		c-1.7,5.9-3.3,11.9-4.6,17.9c-2.6,12.2-4.7,25-5.9,37.9c-0.3,3.1-0.5,6.5-0.7,9.9c-0.1,1.7-0.2,3.4-0.3,5.1
		c-0.1,1.6-0.1,3.2-0.2,4.9c-0.1,1.6-0.1,3.3-0.1,4.7c0,1.7,0,3.5,0,5.2c0,1.7,0,3.4,0,5.1l0,0.3c0,0.4,0-0.2,0,0l0,0.6l0.1,1.3
		l0.1,2.6c0.1,1.7,0.1,3.4,0.2,5.2c0.1,1.6,0.2,3.2,0.3,4.8c0.2,3.4,0.5,6.7,0.9,10.1c0.7,6.7,1.6,13.5,2.9,20l1,5.1
		c0.3,1.6,0.7,3.2,1.1,4.9c0.8,3.3,1.6,6.7,2.4,10c1,3.4,1.9,6.7,2.9,10.1c0.5,1.7,1,3.3,1.4,4.7l1.7,5c1.1,3.3,2.3,6.5,3.5,9.5
		l2.1,5l1,2.5l0.5,1.2c0.1,0.2-0.2-0.4,0,0l0.1,0.3l0.3,0.6l4.5,9.5l1.1,2.4l1.1,2l2.5,4.7l2.5,4.7l2.6,4.3c1.7,2.8,3.7,6.3,5.4,8.7
		c2,2.9,4,5.8,5.9,8.7l0.7,1.1l0.6,0.9c0.4,0.6,0.9,1.3,1.4,1.9l3.2,4.2l3.3,4.2l0.8,1.1l0.4,0.5c0.1,0.2,0.2,0.2,0.2,0.3
		c0.2,0.3,0.5,0.6,0.8,0.8c1.2,1,2.7,1.7,4.3,1.8c0.8,0,1.6,0,2.3-0.2c0.1,0,0.2,0,0.3-0.1c0,0,0.1,0,0.1,0c0,0,0.1,0,0.1,0
		c0.1,0,0.4-0.2,0.6-0.3l0.6-0.3c0.4-0.2-0.2,0.1-0.1,0.1l0.1-0.1l0.5-0.3c1.3-0.9,2.3-2.1,2.8-3.7c0.3-0.7,0.4-1.5,0.4-2.3
		c0-0.2,0-0.4,0-0.6c0-0.2-0.1-0.4-0.1-0.6c0-0.2-0.1-0.4-0.1-0.6l-0.1-0.3c0-0.1,0-0.1,0-0.1c0,0,0-0.1,0-0.1c0,0,0,0-0.1-0.3
		l-0.5-1.2l-1-1.9c-0.8-1.5-1.6-3.1-2.4-4.6l-1.3-2.6l-1.2-2.3l-1.2-2.3l-0.6-1.2l-0.5-1.2c-0.7-1.6-1.5-3.1-2.2-4.7l-1.1-2.5
		l-0.5-1.2l-0.2-0.6l-0.1-0.3l-0.2-0.6c-1.3-3.2-2.6-6.4-3.9-9.6l-0.6-1.5l-0.4-1.2l-0.8-2.4c-0.6-1.6-1.1-3.2-1.7-4.8l-1-2.8
		l-0.7-2.4c-0.5-1.6-1-3.3-1.5-4.9c-0.5-1.8-1-3.5-1.5-5.3c-0.4-1.6-0.8-3.3-1.2-4.9l-0.3-1.2c0,0-0.1-0.4,0-0.1l-0.1-0.3l-0.2-0.7
		c-0.2-0.9-0.4-1.8-0.6-2.7c-0.4-1.8-0.7-3.5-1-5.1c-0.3-1.6-0.6-3.2-0.9-4.8l-0.2-1.2l-0.3-1.4c-0.2-0.9-0.3-1.8-0.4-2.7
		c-0.5-3.3-0.9-6.6-1.4-9.9c-0.3-3.4-0.6-6.7-0.9-10c-0.1-1.7-0.3-3.4-0.3-5.2l0-0.6l0-0.3c0-0.4,0,0.1,0,0l-0.1-1.3l-0.1-2.5
		c-0.1-3.3-0.2-6.6-0.2-9.9c0-6.5,0.3-13,0.7-19.1c0.4-6.4,1.1-12.6,1.9-18.6c0.4-3,0.9-6,1.4-9c0.3-1.5,0.5-2.9,0.8-4.4l0.2-1.1
		l0.2-1.3l0.4-2.1c0.3-1.4,0.6-2.8,0.9-4.2l0.3-1.3l0.3-1l0.5-2.1c0.3-1.4,0.7-2.8,1-4.1l0.5-2.1c0.2-0.8,0.4-1.5,0.6-2.2
		c0.8-2.7,1.5-5.4,2.2-8.1c0.7-2.6,1.5-5.2,2.3-7.9c3.2-10.5,6.6-20.3,10-29.5c3.4-9.4,7.1-18,10.4-26.1c0.5-1,0.9-2.1,1.4-3.1
		c0.4-1,0.8-2,1.3-2.9c0.8-2,1.7-3.9,2.6-5.9c0.2-0.5,0.5-1,0.7-1.5c0.2-0.4,0.4-0.8,0.6-1.2c0.4-0.9,0.8-1.8,1.2-2.7
		c0.2-0.4,0.4-0.9,0.6-1.3l0.3-0.7l0.1-0.2l0.2-0.3l0.2-0.3c0.4-0.9,0.8-1.7,1.2-2.6c0.4-0.9,0.8-1.7,1.2-2.5
		c0.4-0.9,0.8-1.7,1.2-2.5c0.8-1.6,1.6-3.2,2.3-4.8c1.5-3.1,3-6.1,4.3-8.9c0.7-1.4,1.4-2.8,2-4.1l0.2-0.5l0.1-0.2
		c-0.1,0.2,0.3-0.5,0.2-0.4l0.1-0.1c0.2-0.3,0.3-0.6,0.5-1c0.3-0.6,0.7-1.3,1-1.9c1.3-2.5,2.5-4.8,3.7-6.9c2.3-4.3,4.1-7.8,6-10.9
		c0.9-1.5,1.6-2.8,2.3-3.9c0.6-1.1,1.1-2,1.5-2.7C494.7,439.4,495.1,438.6,495.1,438.6L495.1,438.6z"/>
</g>
<polygon id="XMLID_392_" class="st0" points="441.2,517.4 476.3,533.3 529.6,501.4 551.4,473.5 540.7,445 478.1,445 "/>
<path id="XMLID_120_" class="st1" d="M353.1,171.6c-60.7-44.7-55.3-121-23.3-158c6.1,62.3,38.8,84.7,93.8,88.4"/>
<path id="XMLID_121_" d="M347.6,179.2c-28.4-20.9-46.1-50.9-49.8-84.5c-3.6-32.3,5.8-64.9,25-87.1l16.4,5.2
	c5.2,53.1,29.9,76.3,85.1,79.9l-1.2,18.7c-31.2-2.1-54.3-10.1-70.8-24.5c-13.3-11.6-22.4-27.4-27.6-47.8c-7.3,16-10.4,35-8.3,53.5
	c2.2,20.1,11.4,48.7,42.3,71.5L347.6,179.2z"/>
<path id="XMLID_118_" class="st1" d="M655.4,124.6c55.4,9.3,106.5-49.7,106.5-89.4c31.4,54.3,9.6,125.9-56.3,160.3"/>
<path id="XMLID_119_" d="M709.9,203.8l-8.7-16.6c30.8-16.1,52.6-41.5,61.4-71.5c4.8-16.6,5.3-33.6,1.5-49.8
	c-6.9,15.7-18.6,31.3-33.3,43.8c-23.6,20-50.9,28.5-76.9,24.2l3.1-18.5c27.6,4.6,50.5-10.5,61.7-20c19.9-16.9,33.8-41.6,33.8-60.2
	l17.5-4.7c15.8,27.4,19.6,59.5,10.6,90.4C770.4,155.8,745.3,185.3,709.9,203.8z"/>
<g id="XMLID_106_">
	<ellipse id="XMLID_379_" class="st0" cx="523.6" cy="258.4" rx="193.8" ry="182.5"/>
</g>
<g id="XMLID_103_">
	<path id="XMLID_375_" d="M728,258.7c0,0,0,1.2-0.1,3.4c0,1.1-0.1,2.5-0.2,4.2c0,1.6-0.2,3.7-0.5,6.1c-0.1,1.2-0.2,2.4-0.3,3.7
		c-0.1,0.7-0.1,1.3-0.2,2c-0.1,0.7-0.2,1.4-0.3,2.1c-0.2,1.4-0.4,2.9-0.7,4.4c-0.3,1.5-0.4,3.1-0.8,4.7c-1.3,6.5-3,14-5.8,22.1
		c-1.3,4.1-3,8.2-4.7,12.6c-0.9,2.2-1.9,4.3-2.9,6.6c-0.5,1.1-1,2.3-1.6,3.4c-0.6,1.1-1.2,2.2-1.7,3.4c-4.7,9.1-10.5,18.5-17.5,28
		c-1.8,2.3-3.7,4.6-5.5,7c-2,2.3-4,4.6-6,7c-2.1,2.3-4.3,4.6-6.5,6.9c-2.3,2.3-4.6,4.5-7,6.8c-9.6,8.9-20.6,17.3-32.7,25.1
		c-12.2,7.7-25.5,14.7-40.1,20.3c-14.6,5.5-30.4,9.5-46.9,11.3l-1.5,0.2l-1.6,0.1c-1,0.1-2.1,0.2-3.1,0.2c-2.1,0.1-4.2,0.3-6.3,0.5
		c-2.1,0.1-4.2,0.1-6.3,0.2l-3.2,0.1c0.1,0-0.6,0-0.6,0l-0.4,0l-0.8,0l-1.5,0c-2,0-4.1-0.1-6.1-0.1c-1,0-2.1-0.1-3.2-0.2l-3.3-0.2
		l-3.3-0.2L503,450l-1.6-0.2c-2.2-0.3-4.3-0.5-6.5-0.8c-2.2-0.2-4.3-0.6-6.5-1c-2.2-0.4-4.3-0.7-6.5-1.2c-4.3-1-8.7-1.8-13-3.1
		c-8.7-2.2-17.1-5.3-25.6-8.6c-2.1-0.9-4.2-1.8-6.3-2.7l-1.6-0.7L434,431l-3.1-1.5c-4.1-1.9-8.1-4.2-12.2-6.4
		c-7.9-4.7-15.7-9.8-23.1-15.5c-1.9-1.4-3.6-2.9-5.5-4.4l-2.7-2.2c-0.9-0.8-1.7-1.6-2.6-2.4c-1.7-1.6-3.5-3.1-5.2-4.8
		c-1.7-1.7-3.3-3.3-5-5c-0.9-0.8-1.7-1.7-2.4-2.6l-2.4-2.6l-2.4-2.6c-0.8-0.9-1.5-1.8-2.3-2.7c-1.5-1.8-3.1-3.6-4.5-5.5
		c-1.4-1.9-2.9-3.8-4.3-5.7c-5.5-7.8-10.6-15.9-15.1-24.5c-4.3-8.6-8.1-17.5-11.2-26.7c-3-9.2-5.3-18.7-6.9-28.2
		c-0.7-4.8-1.4-9.6-1.7-14.5c-0.2-2.4-0.5-4.8-0.5-7.3l-0.2-7.5l0.2-6.9c0-2.2,0.2-4.8,0.4-7.3c0.2-5,1-9.8,1.5-14.6
		c1.5-9.6,3.6-19.1,6.4-28.5c2.9-9.3,6.6-18.3,10.8-27.1c4.3-8.7,9.3-17,14.8-24.9c1.4-1.9,2.9-3.9,4.3-5.8c1.4-1.9,3-3.7,4.5-5.6
		c0.8-0.9,1.5-1.9,2.3-2.8l2.4-2.7l2.4-2.7c0.8-0.9,1.6-1.8,2.5-2.6c1.7-1.7,3.4-3.4,5.1-5c1.7-1.7,3.5-3.2,5.3-4.8
		c0.9-0.8,1.8-1.6,2.7-2.4l2.7-2.3c1.8-1.5,3.6-3,5.5-4.4c7.5-5.8,15.3-10.9,23.4-15.6c4.1-2.2,8.1-4.5,12.3-6.4l3.1-1.5l1.6-0.8
		l1.6-0.7c2.1-0.9,4.2-1.8,6.3-2.7c8.5-3.3,17.1-6.3,25.8-8.5c4.3-1.2,8.7-2,13.1-3c2.2-0.4,4.4-0.7,6.6-1.1c2.2-0.4,4.3-0.8,6.5-1
		c2.2-0.3,4.4-0.5,6.5-0.8c1.1-0.1,2.2-0.2,3.3-0.3l3.3-0.2c2.2-0.1,4.3-0.3,6.5-0.4c2.2,0,4.3-0.1,6.5-0.1l1.6,0l0.8,0l0.4,0
		c0.1,0,0.8,0,0.6,0l3,0.1c2,0.1,4,0.1,6.1,0.2c2.1,0.1,4.3,0.3,6.4,0.4c1.1,0.1,2.1,0.2,3.2,0.2l1.6,0.1l1.6,0.2
		c16.6,1.8,32.6,5.5,47.5,10.6c14.9,5.2,28.6,11.9,41.1,19.5c12.5,7.7,23.6,16.3,33.3,25.4c9.7,9.1,18,18.8,25,28.4
		c7,9.7,12.6,19.4,17.1,28.7c0.6,1.2,1.1,2.3,1.7,3.5c0.6,1.1,1,2.3,1.5,3.4c0.9,2.3,1.9,4.5,2.8,6.7c1.6,4.5,3.2,8.7,4.4,12.8
		c5,16.5,6.6,30,7.2,39.1c0.4,4.6,0.3,8.1,0.4,10.5c0,2.4,0.1,3.6,0.1,3.6L728,258.7z M706.8,258.4c0,0,0-1.1-0.1-3.2
		c-0.1-2.1-0.1-5.2-0.5-9.3c-0.3-4.1-1-9-1.9-14.8c-1.1-5.8-2.4-12.4-4.7-19.7c-1-3.7-2.4-7.4-3.8-11.3c-0.7-2-1.6-3.9-2.4-5.9
		c-0.4-1-0.8-2.1-1.3-3.1c-0.5-1-1-2-1.5-3.1c-3.9-8.3-8.8-16.9-14.9-25.6c-6.1-8.6-13.5-17.2-22.2-25.4
		c-8.7-8.2-18.7-15.9-29.9-22.7c-11.2-6.8-23.6-12.7-37-17.3c-13.4-4.5-27.8-7.7-42.7-9.2l-1.4-0.2l-1.4-0.1l-2.7-0.2
		c-1.9-0.1-3.6-0.3-5.6-0.4c-2,0-4-0.1-6.1-0.1l-3-0.1L521,87c-1.9,0.1-3.9,0.1-5.8,0.2c-1.9,0-3.9,0.3-5.8,0.4l-2.9,0.2
		c-1,0.1-2,0.1-2.9,0.3c-1.9,0.2-3.9,0.5-5.9,0.7c-2,0.2-3.9,0.6-5.9,0.9c-1.9,0.4-3.9,0.6-5.9,1c-3.9,0.9-7.8,1.6-11.7,2.8
		c-7.8,2-15.4,4.7-23,7.7c-1.9,0.8-3.8,1.6-5.6,2.4l-1.4,0.6l-1.4,0.7l-2.8,1.3c-3.8,1.7-7.3,3.8-11,5.7
		c-7.2,4.2-14.2,8.7-20.8,13.8c-1.7,1.2-3.3,2.6-4.9,3.9l-2.5,2c-0.8,0.7-1.6,1.4-2.4,2.1c-1.6,1.4-3.2,2.8-4.7,4.3
		c-1.5,1.5-3,3-4.5,4.5c-5.9,6.1-11.5,12.5-16.6,19.3c-5,6.9-9.8,14-13.9,21.6c-4.1,7.6-7.6,15.5-10.6,23.7
		c-2.9,8.2-5.1,16.6-6.7,25.2c-0.6,4.3-1.4,8.7-1.6,12.9c-0.5,4.1-0.5,8.9-0.7,13.5l0.1,6.3c0,2.2,0.2,4.4,0.4,6.6
		c0.2,4.4,0.9,8.7,1.4,13c1.5,8.6,3.5,17.1,6.2,25.4c2.8,8.3,6.2,16.3,10.2,24c4,7.7,8.7,15,13.7,22.1c5.1,7,10.8,13.5,16.7,19.6
		c1.5,1.5,3.1,3,4.6,4.5c1.5,1.5,3.2,2.9,4.8,4.3c0.8,0.7,1.6,1.4,2.4,2.1l2.5,2c1.7,1.3,3.3,2.7,5,4c6.7,5.1,13.9,9.7,21.1,13.9
		c3.7,1.9,7.3,4,11.1,5.7l2.8,1.3l1.4,0.7l1.4,0.6c1.9,0.8,3.8,1.6,5.7,2.4c7.7,3,15.4,5.6,23.3,7.6c3.9,1.1,7.9,1.8,11.8,2.7
		c2,0.4,3.9,0.7,5.9,1c2,0.3,3.9,0.7,5.9,0.9c2,0.2,3.9,0.5,5.9,0.7l1.5,0.2l1.4,0.1l2.9,0.2l2.9,0.2c1,0.1,1.9,0.2,2.9,0.2
		c2,0.1,4.1,0.1,6.1,0.2l2.8,0.1l2.9-0.1c1.9,0,3.9-0.1,5.8-0.1c1.9-0.1,3.8-0.2,5.7-0.4l2.8-0.2l1.4-0.1l1.4-0.2
		c15.1-1.4,29.6-4.3,43.2-8.4c13.6-4.2,26.4-9.8,37.9-16.6c11.5-6.7,21.7-14.6,30.4-23c2.1-2.2,4.2-4.3,6.3-6.4
		c2-2.2,3.9-4.4,5.8-6.5c1.8-2.2,3.6-4.4,5.3-6.6c1.6-2.3,3.2-4.5,4.8-6.7c6.1-8.9,10.8-17.8,14.5-26.3c0.5-1.1,0.9-2.1,1.4-3.1
		c0.5-1,0.8-2.1,1.2-3.1c0.8-2.1,1.6-4.1,2.3-6.1c1.3-4,2.6-7.8,3.5-11.6c2-7.4,3.2-14.1,4.2-19.9c0.5-2.9,0.6-5.7,1-8.1
		c0.1-0.6,0.1-1.2,0.2-1.8c0-0.6,0.1-1.1,0.1-1.7c0.1-1.1,0.1-2.1,0.2-3.1c0.3-3.8,0.3-7.3,0.3-9.5c0-2.2,0-3.4,0-3.4L706.8,258.4z"
		/>
</g>
<polygon id="XMLID_75_" points="431,241.9 523.6,258.4 620.7,241.9 562.5,391.1 492.7,391.1 450.3,324.9 "/>
<path id="XMLID_115_" d="M562.8,391.5h-70.3L449.8,325l-19.5-83.7l93.3,16.6l97.8-16.7l-0.3,0.8L562.8,391.5z M493,390.6h69.2
	l57.8-148.1l-96.3,16.4l-0.1,0l-92-16.4l19.2,82.2L493,390.6z"/>
<polygon id="XMLID_369_" class="st2" points="450.3,304.4 487.6,302 515.2,310.7 554.4,295 593.5,310.7 581.7,368.6 523.6,398.5 
	469.5,360.3 "/>
<path id="XMLID_366_" d="M411.3,215.7l13.5,7l13,5.7c4.5,1.7,9,3.4,13.6,5l6.9,2.1l3.5,1.1c1.2,0.4,2.3,0.7,3.5,1l7,1.7l3.5,0.8
	c0.6,0.1,1.2,0.3,1.8,0.4l1.8,0.3l7.1,1.2c2.4,0.4,4.8,0.9,7.2,1.1l7.2,0.8l3.6,0.4c1.2,0.1,2.4,0.1,3.6,0.2l7.3,0.4
	c1.2,0.1,2.4,0.1,3.6,0.2l3.6,0l7.3,0c1.2,0,2.4,0,3.6,0l3.6-0.2l7.3-0.4c1.2-0.1,2.4-0.1,3.6-0.3l3.6-0.4l7.3-0.8
	c1.2-0.2,2.4-0.2,3.6-0.5l3.6-0.6l7.2-1.2c1.2-0.2,2.4-0.4,3.6-0.6l3.6-0.8l7.2-1.6l3.6-0.8l3.6-1l7.1-1.9c2.4-0.6,4.7-1.2,7.1-2
	l7-2.2l3.5-1.1c1.2-0.4,2.3-0.7,3.5-1.2l13.9-5.1l8.4,20.9l0,0c-3.6,1.4-7.1,3.1-10.3,5.2c-3.2,2-6.2,4.4-8.9,7
	c-5.4,5.3-9.7,11.9-13,19.3c-3.3,7.4-5.6,15.6-7.6,24.2c-1.9,8.5-3.5,17.4-5.2,26.5c-1.7,9.1-3.6,18.3-6.5,27.7
	c-2.9,9.3-7.1,19-13.8,27.4c-3.3,4.2-7.3,8-11.7,11.2c-4.4,3.2-9.2,5.7-14.1,7.7c-4.9,1.9-9.9,3.3-14.9,4.2l-3.7,0.6l-3.7,0.4
	c-1.2,0.2-2.5,0.2-3.7,0.3l-1.9,0.1l-0.2,0l-0.1,0l-0.4,0l-0.4,0l-0.9,0c-1.2,0-2.2,0.1-3.7,0c-1.4,0-2.9-0.1-4.2-0.2
	c-1.3-0.1-2.7-0.2-4-0.5c-1.3-0.2-2.7-0.4-4-0.7c-5.3-1.1-10.5-3-15.2-5.6c-4.8-2.5-9.1-5.7-13-9.1c-3.9-3.5-7.3-7.3-10.4-11.2
	c-6.2-7.9-11.1-16.4-15.4-24.9c-2.1-4.3-4.1-8.6-5.9-12.9c-1.9-4.3-3.6-8.6-5.3-13c-3.4-8.7-6.5-17.3-9.6-25.9
	c-3.1-8.6-6.1-17.1-9.4-25.3c-3.3-8.2-6.8-16.2-10.9-23.5c-2-3.6-4.2-7.1-6.6-10.1c-2.4-3-4.9-5.6-7.6-7.6L411.3,215.7z M437.1,252
	c2.4,5.4,4.6,10.9,6.6,16.3c6.5,17.5,11.9,34.9,18.1,51.6c3.1,8.4,6.4,16.6,10.2,24.4c3.8,7.8,8,15.2,13,21.7
	c5,6.5,10.8,11.9,17.4,15.4c6.6,3.5,13.8,5.1,21.6,4.8l0.9,0l0.4,0c0.1,0-0.5,0-0.2,0l0.1,0l0.2,0l1.6-0.1c1-0.1,2.1-0.1,3.1-0.3
	l3.1-0.4l3-0.5c4-0.8,7.8-1.8,11.4-3.2c7.1-2.8,13.2-7.1,17.7-13.1c4.6-5.9,7.9-13.3,10.3-21.3c2.4-8,4.1-16.7,5.6-25.5
	c1.5-8.9,2.9-18,4.8-27.3c1.9-9.3,4.4-18.7,8.3-28.1c3.8-9.3,9.3-18.5,16.7-26.2c7.4-7.7,16.5-13.7,26-17.9l0,0l8.4,20.9l-14.7,5.3
	c-1.2,0.5-2.5,0.9-3.7,1.2l-3.7,1.2l-7.5,2.4c-2.5,0.8-5,1.5-7.5,2.2l-7.6,2l-3.8,1l-3.8,0.8l-7.7,1.7l-3.8,0.8
	c-1.3,0.3-2.6,0.5-3.9,0.7l-7.8,1.3l-3.9,0.6c-1.3,0.2-2.6,0.3-3.9,0.5l-7.8,0.9l-3.9,0.4c-1.3,0.2-2.6,0.2-3.9,0.3l-7.9,0.5
	l-3.9,0.2c-1.3,0.1-2.6,0-4,0.1l-7.9,0l-4,0c-1.3,0-2.6-0.1-4-0.2l-7.9-0.4c-1.3-0.1-2.6-0.1-4-0.2l-4-0.4l-7.9-0.9
	c-2.6-0.2-5.2-0.7-7.9-1.2l-7.8-1.4l-2-0.3c-0.7-0.1-1.3-0.3-1.9-0.4l-3.9-0.9l-7.7-1.8c-1.3-0.3-2.6-0.7-3.8-1.1l-3.8-1.2l-7.6-2.3
	C441.9,253.8,439.5,252.9,437.1,252z"/>
<path id="XMLID_365_" d="M443.5,304c0,0,0.3-0.2,0.9-0.5c0.6-0.4,1.3-0.8,2.5-1.6c2.3-1.4,5.6-3.3,9.9-5.2c2.1-1,4.6-1.9,7.2-2.7
	c2.6-0.8,5.6-1.5,8.6-1.9c3.1-0.4,6.3-0.5,9.6-0.3c3.3,0.2,6.6,0.9,9.7,1.8c3.1,0.9,6.1,2.1,8.9,3.5c2.8,1.4,5.4,2.9,7.7,4.5
	c2.4,1.6,4.6,3.2,6.6,4.8c2,1.6,3.8,3.2,5.5,4.6c1.7,1.5,3.1,2.9,4.4,4.1c1.3,1.3,2.4,2.4,3.2,3.3c1.7,1.8,2.7,2.9,2.7,2.9
	c1.9,2,1.8,5.2-0.2,7.2c-1.9,1.8-4.9,1.8-6.9,0.1l-0.1-0.1c0,0-1-0.9-2.8-2.5c-0.9-0.8-2-1.7-3.3-2.8c-1.3-1-2.7-2.3-4.3-3.5
	c-1.6-1.3-3.4-2.5-5.2-3.8c-1.9-1.3-3.9-2.6-6-3.8c-2.1-1.2-4.4-2.3-6.6-3.3c-2.3-1-4.6-1.7-7-2.2c-4.7-1.1-9.3-1.1-13.6-0.2
	c-2.1,0.4-4.2,1-6.1,1.8c-1.9,0.7-3.8,1.6-5.4,2.4c-1.7,0.8-3.2,1.7-4.6,2.5c-1.4,0.8-2.5,1.6-3.5,2.2c-0.9,0.6-1.8,1.2-2.3,1.5
	c-0.5,0.4-0.8,0.6-0.8,0.6c-3.6,2.5-8.6,1.5-11.1-2.1c-2.5-3.6-1.5-8.6,2.1-11.1C443.3,304.1,443.4,304.1,443.5,304z"/>
<path id="XMLID_364_" d="M508.7,307c0,0,1.1-0.8,2.9-2.3c1-0.8,2.3-1.8,3.8-2.9c0.7-0.6,1.5-1.1,2.4-1.7c0.8-0.6,1.7-1.2,2.7-1.8
	c1-0.6,2-1.3,3-1.9c1.1-0.6,2.2-1.2,3.4-1.9c1.1-0.7,2.4-1.2,3.7-1.8c0.6-0.3,1.3-0.6,1.9-0.9c0.7-0.2,1.4-0.5,2.1-0.7
	c2.7-1.1,5.7-1.8,8.8-2.4c1.5-0.2,3.1-0.5,4.6-0.7c1.5-0.2,3.1-0.2,4.7-0.3c0.8,0,1.6-0.1,2.3,0l2.3,0.1c0.8,0,1.5,0.1,2.3,0.1
	l1.1,0.1l1.1,0.2c2.9,0.4,5.9,0.8,8.6,1.5c1.4,0.3,2.7,0.6,4,0.9c1.3,0.4,2.5,0.8,3.7,1.1c1.2,0.4,2.4,0.7,3.5,1.1
	c1.1,0.4,2.2,0.8,3.2,1.2c1,0.4,2,0.7,2.9,1.1c0.9,0.4,1.9,0.6,2.6,1c1.6,0.7,3,1.3,4.2,1.8c2.3,1,3.7,1.5,3.7,1.5l-9.2,16.3
	c0,0-1-0.7-2.9-2c-0.9-0.6-2-1.4-3.3-2.2c-1.3-0.8-2.8-1.6-4.5-2.4c-0.8-0.4-1.7-0.9-2.6-1.3c-0.9-0.4-1.9-0.8-2.8-1.2
	c-1-0.4-2-0.8-3-1.2c-1-0.3-2.1-0.6-3.2-0.9c-0.5-0.2-1.1-0.3-1.6-0.5c-0.3-0.1-0.6-0.2-0.8-0.2l-0.8-0.2c-1.1-0.2-2.3-0.4-3.4-0.6
	l-0.9-0.1l-0.9,0l-1.7-0.1c-1.2-0.1-2.3-0.2-3.4,0c-1.1,0.1-2.3,0.1-3.4,0.2c-1.1,0.2-2.2,0.4-3.3,0.6c-2.1,0.6-4.2,1.1-6.1,2
	c-0.5,0.2-1,0.4-1.4,0.6c-0.5,0.3-0.9,0.5-1.4,0.8c-0.9,0.5-1.8,0.9-2.6,1.5c-0.8,0.6-1.6,1.1-2.4,1.6c-0.7,0.6-1.4,1.2-2.1,1.7
	c-0.7,0.5-1.3,1.1-1.9,1.7c-0.6,0.6-1.2,1.1-1.7,1.6c-1,1.1-1.8,1.9-2.5,2.8c-1.5,1.8-2.4,2.8-2.4,2.8L508.7,307z"/>
<g id="XMLID_102_">
	<ellipse id="XMLID_171_" class="st1" cx="463.2" cy="172.3" rx="16.3" ry="19.7"/>
</g>
<g id="XMLID_99_">
	<path id="XMLID_154_" d="M487.5,172.7c0,0,0,0.4,0,1.3c0,0.2,0,0.4,0,0.7c0,0.3,0,0.8-0.1,1.2c0,0.5-0.1,0.9-0.1,1.5
		c0,0.5-0.1,1-0.2,1.5c-0.3,2.1-0.9,4.6-2.1,7.4c-1.2,2.8-3,5.9-6,8.7c-1.5,1.4-3.3,2.7-5.3,3.8c-2.1,1-4.4,1.9-7,2.3
		c-0.6,0.1-1.3,0.1-1.9,0.2l-1,0.1l-0.5,0c0.5,0-0.7,0-0.6,0l0,0l-0.1,0l-0.1,0c-0.4,0-0.8-0.1-1.2-0.1l-0.1,0c0,0-0.1,0-0.2,0
		l-0.6-0.1l-1.2-0.2l-1.2-0.2c-0.4-0.1-0.7-0.2-1-0.3c-0.6-0.2-1.3-0.4-1.9-0.7c-1.2-0.5-2.5-1.1-3.6-1.8c-2.3-1.4-4.2-3.1-5.9-5.1
		c-0.9-1-1.5-2-2.3-3c-0.6-1.1-1.3-2.2-1.7-3.3c-2.1-4.5-2.8-9.4-2.6-14.1c0-0.7,0-0.2,0-0.4l0,0l0-0.1l0-0.2l0-0.3l0.1-0.7l0.1-0.7
		l0.1-1c0.1-0.7,0.2-1.3,0.3-2l0.5-1.7c0.1-0.6,0.3-1.1,0.5-1.7c0.2-0.6,0.4-1.1,0.6-1.7c0.5-1.1,0.9-2.2,1.5-3.2
		c1.1-2.1,2.6-4,4.2-5.7c1.6-1.7,3.5-3.2,5.6-4.3c1-0.6,2.1-1.1,3.3-1.5c1.1-0.4,2.3-0.7,3.4-0.9c1.2-0.2,2.3-0.3,3.5-0.3l0.2,0
		l0.1,0l0.1,0l0.4,0l0.3,0l0.6,0c0.4,0,0.6,0,1.4,0.1c0.6,0.1,1.3,0.2,1.9,0.3c0.6,0.1,1.1,0.3,1.6,0.5c1.1,0.3,2,0.7,3,1.1
		c1.8,0.9,3.5,2,4.9,3.2c2.9,2.4,4.9,5,6.4,7.6c1.4,2.5,2.3,4.9,2.8,6.9c0.3,1,0.4,1.9,0.6,2.7c0.1,0.8,0.2,1.5,0.3,2
		c0.1,1.1,0.1,1.7,0.1,1.7L487.5,172.7z M471.6,172.3c0,0,0-0.3,0-0.9c0-0.3,0-0.6,0-1c0-0.4,0-0.9-0.1-1.4c-0.1-1-0.3-2.3-0.8-3.6
		c-0.5-1.3-1.2-2.7-2.3-3.9c-0.5-0.6-1.2-1.1-1.9-1.5c-0.4-0.1-0.7-0.4-1.1-0.5c-0.2-0.1-0.4-0.1-0.5-0.2c-0.1,0-0.2,0-0.3-0.1
		c0-0.1-0.5-0.1-0.9-0.1l-0.6,0l-0.3,0c-0.4,0,0.5,0,0.4,0l0,0l0,0l-0.1,0c-0.4,0-0.8,0.1-1.2,0.2c-0.8,0.2-1.6,0.5-2.4,1.1
		c-0.8,0.5-1.5,1.2-2.1,2.1c-0.3,0.4-0.6,0.9-0.9,1.3c-0.2,0.5-0.5,1-0.7,1.5c-0.4,1-0.7,2.2-0.9,3.4l-0.1,0.9c0,0.2,0,0.5,0,0.7
		c0,0.1,0,1.9,0,2c0.3,2.4,1,4.6,2.2,6.3c0.5,0.9,1.2,1.6,1.8,2.2c0.6,0.6,1.3,1,1.9,1.3c0.3,0.2,0.6,0.2,0.9,0.4
		c0.1,0,0.3,0,0.4,0.1c0.1,0,0.2,0.1,0.2,0c0,0,0,0,0,0s0,0,0,0l0,0c0,0,0,0,0.1,0l0.1,0c0.4,0,0.8,0,1.2,0l0.1,0l0.1,0l0,0
		c0.1,0-1.1,0-0.6,0l0.1,0l0.2,0c0.1,0,0.2,0,0.4,0c0.1,0,0.2-0.1,0.4-0.1c0.1,0,0.2-0.1,0.3-0.1c0.2,0,0.5-0.2,0.7-0.2
		c0.5-0.3,1-0.5,1.5-0.9c1-0.7,2-1.7,2.7-2.7c0.7-1.1,1.2-2.1,1.5-3.1c0.1-0.2,0.2-0.5,0.2-0.6c0-0.2,0.1-0.3,0.1-0.5
		c0-0.2,0.1-0.2,0.1-0.4c0-0.3,0-0.5,0.1-0.7c0.1-0.8,0.1-1.3,0.1-1.3L471.6,172.3z"/>
</g>
<g id="XMLID_98_">
	<ellipse id="XMLID_152_" class="st1" cx="562.5" cy="172.3" rx="19.2" ry="22"/>
</g>
<g id="XMLID_84_">
	<path id="XMLID_147_" d="M589.4,172.7c0,0,0,0.5,0,1.5c0,0.2,0,0.5,0,0.8c0,0.4-0.1,0.9-0.1,1.4c0,0.5-0.1,1.1-0.2,1.6
		c-0.1,0.6-0.2,1.1-0.3,1.7c-0.4,2.3-1.1,5.1-2.5,8.2c-1.4,3.1-3.6,6.4-6.9,9.4c-0.8,0.8-1.8,1.4-2.7,2.1c-1,0.6-2,1.3-3.2,1.8
		c-1.1,0.5-2.3,1-3.6,1.4c-1.2,0.4-2.6,0.7-3.9,0.9c-0.7,0.1-1.3,0.1-2,0.2l-1,0l-0.5,0c0.5,0-0.7,0-0.6,0l0,0l-0.1,0l-0.2,0
		c-0.4,0-0.9-0.1-1.3-0.1l-0.4,0l-0.6-0.1l-1.2-0.2c-1.8-0.3-3-0.7-4.4-1.2c-1.3-0.6-2.6-1.1-3.9-1.8c-2.5-1.4-4.7-3.2-6.6-5.3
		c-1-1-1.8-2.1-2.6-3.3c-0.4-0.6-0.7-1.2-1.1-1.8c-0.4-0.6-0.7-1.2-1-1.8c-1.2-2.5-2.1-5.1-2.6-7.7l-0.3-2c-0.1-0.7-0.1-1.3-0.2-2
		c-0.1-0.7-0.1-1.3-0.1-2l0-2.3l0.2-1.5l0.1-0.8l0.2-1.1c0.1-0.7,0.3-1.5,0.4-2.1l0.5-1.9c0.8-2.5,1.8-4.9,3.2-7.1
		c1.4-2.2,3-4.3,4.8-6c0.9-0.9,1.9-1.7,3-2.5c1.1-0.7,2.1-1.4,3.3-2c1.1-0.6,2.3-1,3.5-1.5c1.2-0.3,2.4-0.7,3.7-0.9
		c1.2-0.2,2.5-0.3,3.7-0.3l0.2,0l0.1,0l0.1,0l0.4,0l0.3,0l0.7,0l0.7,0c0.1,0,0.2,0,0.4,0l0.5,0.1c0.7,0.1,1.3,0.2,2,0.3
		c0.7,0.1,1.1,0.3,1.7,0.4c1.1,0.3,2.1,0.7,3.2,1.1c0.5,0.2,1,0.5,1.5,0.7c0.5,0.3,1,0.5,1.4,0.8c0.9,0.6,1.8,1.1,2.6,1.7
		c3.2,2.4,5.6,5.3,7.3,8c1.7,2.7,2.7,5.4,3.3,7.6c0.2,0.6,0.3,1.1,0.4,1.6c0.1,0.5,0.2,1,0.3,1.4c0.1,0.4,0.1,0.9,0.2,1.2
		c0,0.4,0.1,0.7,0.1,1c0.1,1.2,0.2,1.9,0.2,1.9L589.4,172.7z M573.9,172.3c0,0,0-0.4,0-1c0-0.2,0-0.4,0-0.6c0-0.2,0-0.4,0-0.7
		c0-0.2,0-0.5,0-0.8c0-0.3-0.1-0.6-0.1-0.9c-0.1-1.2-0.5-2.7-1.1-4.3c-0.6-1.6-1.6-3.3-3.1-4.8c-0.3-0.4-0.8-0.6-1.2-1
		c-0.4-0.3-0.9-0.6-1.4-0.8c-0.5-0.2-1-0.5-1.5-0.6c-0.2-0.1-0.6-0.2-0.7-0.2c-0.2,0-0.4-0.1-0.6-0.1l-0.1,0c-0.1,0-0.2,0-0.3,0
		l-0.7,0l-0.7,0l-0.3,0c-0.3,0,0.4,0,0.3,0l0,0l-0.1,0l-0.1,0c-0.6,0.1-1.1,0.1-1.7,0.2c-0.6,0.1-1.1,0.3-1.7,0.5
		c-0.5,0.3-1.1,0.5-1.6,0.8c-1.1,0.6-2,1.5-2.9,2.5c-0.4,0.5-0.8,1.1-1.2,1.6c-0.2,0.3-0.3,0.6-0.5,0.9c-0.2,0.3-0.3,0.6-0.4,0.9
		c-0.6,1.3-0.9,2.7-1.2,4l-0.1,1.1l0,0.9l0,0.4l0,0.7l0,1.5c0-0.7,0-0.2,0-0.3l0,0l0,0.1l0,0.1l0,0.3l0.1,0.5c0,0.4,0.1,0.7,0.2,1
		l0.2,1l0.3,1c0.5,1.3,1,2.5,1.8,3.5c0.7,1,1.5,1.9,2.3,2.6c0.4,0.4,0.9,0.7,1.3,1c0.4,0.2,0.9,0.5,1.3,0.7c0.4,0.2,0.9,0.3,1.3,0.5
		c0.4,0,1,0.2,1,0.2c0,0,0.1,0,0.1,0l0.1,0l0.3,0c0.5,0,0.9,0,1.3,0l0.2,0l0.1,0l0,0c0.1,0-1,0-0.5,0l0.1,0l0.3,0
		c0.2,0,0.4,0,0.6-0.1c1.5-0.3,3-0.8,4.3-1.7c1.4-0.9,2.6-2.1,3.5-3.4c0.9-1.3,1.5-2.6,1.9-3.7c0.1-0.3,0.2-0.6,0.3-0.8
		c0-0.2,0.1-0.4,0.1-0.6c0.1-0.2,0.1-0.3,0.1-0.5c0-0.3,0.1-0.6,0.1-0.8c0.1-0.9,0.1-1.4,0.1-1.4L573.9,172.3z"/>
</g>
<g id="XMLID_37_">
	<g id="XMLID_83_">
		<circle id="XMLID_144_" class="st3" cx="727.4" cy="506.8" r="157"/>
	</g>
	<g id="XMLID_77_">
		<path id="XMLID_124_" d="M893.6,507c0,0,0,1-0.1,2.8c0,0.9-0.1,2.1-0.1,3.5c0,0.7,0,1.4-0.1,2.3c-0.1,0.9-0.1,1.8-0.2,2.8
			c-0.2,1.9-0.3,4.2-0.6,6.5c-0.3,2.3-0.7,4.9-1.1,7.6c-0.6,2.7-1.1,5.6-1.8,8.7c-0.4,1.5-0.8,3.1-1.2,4.8c-0.2,0.8-0.4,1.6-0.7,2.5
			c-0.3,0.8-0.5,1.7-0.8,2.5c-0.5,1.7-1.1,3.4-1.6,5.2c-0.7,1.8-1.3,3.6-2,5.4c-0.7,1.8-1.5,3.7-2.3,5.6c-0.8,1.9-1.6,3.8-2.6,5.7
			c-3.6,7.7-8.3,15.7-13.8,23.8c-1.3,2.1-2.9,4-4.4,6c-1.5,2.1-3.1,4-4.8,6c-1.6,2-3.4,4-5.2,6c-1.7,2-3.7,3.9-5.6,5.9
			c-3.8,3.9-8,7.7-12.4,11.4c-2.2,1.9-4.5,3.6-6.8,5.5c-2.4,1.8-4.7,3.5-7.2,5.3c-9.9,6.8-20.9,13.1-33,18.1
			c-12.1,5.1-25.3,8.6-39.2,10.3c-1.7,0.3-3.5,0.4-5.2,0.5c-1.8,0.1-3.5,0.3-5.3,0.4c-1.8,0-3.5,0.1-5.3,0.1l-2.7,0.1
			c0.1,0-0.5,0-0.5,0l-0.3,0l-0.6,0l-1.3,0c-1.7,0-3.4-0.1-5.1-0.1c-0.8,0-1.8-0.1-2.7-0.2l-2.8-0.2c-3.8-0.2-7.3-0.7-11-1.2
			c-7.2-1.1-14.5-2.6-21.7-4.8c-3.6-1-7.1-2.3-10.7-3.5c-1.8-0.7-3.5-1.4-5.3-2.1l-2.6-1.1l-2.6-1.2c-27.8-12.5-52.8-33.3-70.4-60
			c-4.4-6.6-8.3-13.7-11.7-20.9c-3.4-7.3-6.2-14.8-8.6-22.5c-2.4-7.7-4-15.6-5.3-23.6l-0.8-6c-0.2-1-0.2-2-0.3-3l-0.2-3
			c-0.2-2-0.3-4-0.4-6.1l-0.2-6.3l0.1-5.8c0-1,0-1.9,0.1-2.9l0.2-3.1l0.2-3.1c0.1-1,0.1-2.1,0.3-3.1l0.7-6c0.2-2,0.6-4,0.9-6l0.5-3
			l0.6-3c0.4-2,0.8-4,1.3-5.9l1.5-5.9c4.4-15.6,11-30.6,19.8-44.1c1.1-1.7,2.3-3.3,3.4-5l1.7-2.5l1.8-2.4c1.2-1.6,2.4-3.2,3.7-4.7
			c1.3-1.5,2.6-3,3.9-4.5c1.3-1.5,2.7-2.9,4.1-4.3l2.1-2.1c0.7-0.7,1.4-1.4,2.2-2.1c1.5-1.4,2.9-2.7,4.3-4.1c1.5-1.3,3-2.6,4.5-3.9
			c12.1-10.1,25.6-18.2,39.7-24.3l2.6-1.1l2.7-1c1.8-0.7,3.6-1.4,5.3-2c3.6-1.1,7.2-2.4,10.8-3.3c7.2-2.1,14.5-3.4,21.8-4.4
			c3.6-0.4,7.3-0.9,10.9-1c1.8-0.1,3.6-0.3,5.4-0.3c1.8,0,3.6,0,5.4-0.1l1.3,0l0.7,0l0.3,0l0.5,0l2.5,0.1c1.7,0.1,3.4,0.1,5,0.2
			c1.8,0.1,3.6,0.3,5.4,0.5c1.8,0.2,3.6,0.3,5.3,0.6c13.8,1.8,27,5.2,39.2,9.9c12.2,4.7,23.4,10.7,33.4,17.4
			c10,6.7,18.8,14.4,26.6,22.2c1.9,2,3.8,3.9,5.6,6c1.8,2,3.6,4,5.2,6c1.6,2,3.3,4,4.8,6.1c1.5,2.1,3.1,4,4.4,6.1
			c5.6,8.1,10.2,16.2,13.7,24c1,1.9,1.7,3.9,2.5,5.8c0.8,1.9,1.6,3.7,2.3,5.6c0.7,1.8,1.3,3.7,2,5.4c0.6,1.8,1.1,3.5,1.6,5.2
			c0.3,0.9,0.5,1.7,0.8,2.5c0.2,0.8,0.4,1.7,0.6,2.5c0.4,1.6,0.8,3.2,1.2,4.8c0.7,3.1,1.2,6,1.7,8.8c0.4,2.7,0.8,5.3,1.1,7.6
			c0.3,2.3,0.4,4.5,0.6,6.4c0.2,1.9,0.3,3.6,0.3,5c0,1.5,0.1,2.7,0.1,3.7c0.1,2,0.1,3,0.1,3L893.6,507z M875.1,506.8
			c0,0,0-0.9-0.1-2.7c0-0.9,0-2-0.1-3.3c0-1.3-0.1-2.8-0.2-4.5c-0.1-1.7-0.2-3.6-0.5-5.7c-0.2-2.1-0.5-4.3-0.8-6.8
			c-0.4-2.4-0.8-5.1-1.3-7.8c-0.3-1.4-0.6-2.8-0.9-4.3c-0.2-0.7-0.3-1.5-0.5-2.2c-0.2-0.7-0.4-1.5-0.6-2.3c-0.4-1.5-0.8-3.1-1.2-4.7
			c-0.5-1.6-1-3.2-1.5-4.9c-0.5-1.7-1.1-3.4-1.8-5.1c-0.6-1.7-1.2-3.5-2-5.3c-2.8-7.2-6.6-14.7-11.3-22.2c-1.1-1.9-2.5-3.8-3.7-5.7
			c-1.3-1.9-2.7-3.8-4.2-5.7c-1.4-1.9-3-3.7-4.6-5.6c-1.5-1.9-3.3-3.7-5-5.5c-6.9-7.3-15.1-14.1-24.3-20.2
			c-9.2-6.1-19.5-11.3-30.6-15.4c-1.4-0.6-2.8-1-4.2-1.4c-1.4-0.5-2.8-1-4.3-1.4c-1.5-0.4-2.9-0.8-4.4-1.2l-2.2-0.6l-2.2-0.5
			c-1.5-0.3-3-0.6-4.5-1c-1.5-0.3-3-0.5-4.6-0.8l-2.3-0.4l-1.2-0.2l-1.2-0.1c-1.6-0.2-3.1-0.3-4.7-0.5c-1.6-0.2-3.1-0.3-4.6-0.4
			c-1.5-0.1-3.1-0.2-4.6-0.3c-1.7,0-3.4,0-5-0.1l-2.5,0l-2.2,0.1c-1.6,0.1-3.2,0.1-4.8,0.2c-1.6,0.1-3.2,0.3-4.8,0.4
			c-3.2,0.2-6.5,0.8-9.7,1.2c-6.5,1.1-13,2.5-19.4,4.5c-3.2,0.9-6.4,2.1-9.5,3.2c-1.6,0.6-3.1,1.3-4.7,1.9l-2.3,1l-2.3,1.1
			c-6.2,2.8-12.2,6.1-18,9.8c-1.4,0.9-2.9,1.9-4.3,2.8c-1.4,1-2.8,2-4.2,3c-0.7,0.5-1.4,1-2.1,1.5l-2,1.6l-2,1.6
			c-0.7,0.5-1.4,1.1-2,1.7c-1.3,1.1-2.6,2.3-3.9,3.5c-1.3,1.2-2.5,2.4-3.8,3.6c-0.6,0.6-1.3,1.2-1.9,1.8l-1.8,1.9
			c-1.2,1.3-2.5,2.5-3.6,3.9c-4.7,5.2-9,10.9-13.1,16.7c-4,5.9-7.6,12.1-10.9,18.5l-2.3,4.9c-0.8,1.6-1.4,3.3-2.1,5
			c-0.3,0.8-0.7,1.7-1,2.5l-0.9,2.5c-0.6,1.7-1.3,3.4-1.8,5.1c-2.3,6.9-4,14-5.2,21.2l-0.8,5.4c-0.1,0.9-0.2,1.8-0.3,2.7l-0.2,2.7
			l-0.2,2.7c-0.1,0.9-0.1,1.9-0.1,2.8l-0.2,5.8l0.1,5.3c0,1.8,0.1,3.7,0.3,5.5l0.2,2.7c0.1,0.9,0.1,1.8,0.3,2.7l0.7,5.4
			c1.1,7.2,2.6,14.4,4.8,21.4c0.2,0.9,0.5,1.7,0.8,2.6l0.9,2.6l0.9,2.6c0.3,0.9,0.7,1.7,1,2.5c0.7,1.7,1.3,3.4,2,5.1l2.3,5
			c3.2,6.5,6.7,12.9,10.7,18.8c4.1,5.9,8.4,11.7,13.2,16.9c1.2,1.4,2.5,2.6,3.7,3.9l1.8,1.9c0.6,0.6,1.3,1.2,1.9,1.8
			c1.3,1.2,2.6,2.5,3.9,3.6c1.3,1.2,2.7,2.3,4,3.4c10.9,9,22.8,16.3,35.4,21.7l2.3,1l2.4,0.9c1.6,0.6,3.2,1.2,4.7,1.8
			c3.2,1,6.4,2.2,9.6,3c6.4,1.9,13,3.1,19.5,4.1c3.3,0.4,6.5,0.9,9.6,1.1l2.4,0.2c0.8,0.1,1.5,0.2,2.4,0.2c1.7,0,3.4,0.1,5.1,0.1
			l1.3,0l0.6,0l0.3,0c0.2,0-0.2,0,0.1,0l2.4-0.1c1.6,0,3.2-0.1,4.8-0.1c1.6-0.1,3.2-0.2,4.7-0.3c1.6-0.1,3.1-0.2,4.7-0.4
			c1.6-0.2,3.1-0.4,4.7-0.5l1.2-0.1l1.1-0.2l2.3-0.4c1.5-0.3,3-0.5,4.6-0.8c1.5-0.3,3-0.6,4.5-0.9l2.2-0.5l2.2-0.6
			c1.5-0.4,2.9-0.7,4.4-1.1c1.4-0.4,2.9-0.9,4.3-1.3c1.4-0.4,2.9-0.8,4.3-1.3c11.2-3.8,21.7-8.8,31-14.7c2.3-1.5,4.6-3.1,6.8-4.6
			c1.1-0.8,2.1-1.7,3.2-2.5c1-0.8,2.1-1.6,3.1-2.5c4.1-3.4,7.9-7,11.3-10.6c1.7-1.9,3.5-3.6,5-5.5c1.6-1.9,3.2-3.7,4.6-5.7
			c1.4-1.9,2.9-3.8,4.2-5.7c1.3-1.9,2.6-3.8,3.7-5.7c4.7-7.6,8.4-15.2,11.2-22.4c0.8-1.8,1.3-3.6,2-5.3c0.6-1.7,1.2-3.4,1.7-5.1
			c0.5-1.7,1-3.3,1.5-4.9c0.4-1.6,0.8-3.2,1.2-4.8c0.2-0.8,0.4-1.5,0.6-2.3c0.2-0.8,0.3-1.5,0.5-2.2c0.3-1.5,0.6-2.9,0.9-4.3
			c0.5-2.8,0.9-5.4,1.3-7.9c0.3-2.5,0.5-4.7,0.8-6.8c0.2-2.1,0.3-3.9,0.4-5.5c0.1-0.8,0.1-1.6,0.2-2.3c0.1-0.7,0-1.5,0.1-2.2
			c0-1.4,0-2.5,0.1-3.5c0-1.9,0-2.8,0-2.8L875.1,506.8z"/>
	</g>
</g>
<g id="XMLID_36_">
	<path id="XMLID_91_" d="M627,396.9c0,0-0.1,1.3-0.2,3.7c-0.1,1.2-0.2,2.7-0.3,4.5c-0.1,0.9-0.1,1.8-0.2,2.8c0,1,0,2-0.1,3.1
		c0,2.2-0.1,4.6-0.1,7.2c0.1,2.7,0.1,5.5,0.2,8.6c0.1,3.1,0.4,6.3,0.6,9.8c0.1,1.7,0.3,3.5,0.5,5.3c0.2,1.8,0.4,3.6,0.6,5.5
		c0.2,1.9,0.6,3.8,0.9,5.7c0.3,1.9,0.6,3.9,1,5.9c0.4,2,0.8,4,1.3,6.1c0.2,1,0.4,2.1,0.6,3.1c0.3,1,0.5,2.1,0.8,3.1
		c0.5,2.1,1.1,4.2,1.6,6.4c0.6,2.1,1.3,4.3,1.9,6.5c0.3,1.1,0.7,2.2,1,3.3c0.4,1.1,0.8,2.2,1.1,3.3c0.8,2.2,1.5,4.4,2.3,6.6
		c3.4,8.8,7.3,17.8,11.9,26.6c4.7,8.8,9.9,17.4,15.6,25.7c5.8,8.2,12.1,16.1,18.7,23.4c6.7,7.2,13.7,14,20.9,20.1
		c1.8,1.5,3.6,2.9,5.4,4.4c0.9,0.7,1.8,1.4,2.7,2.2c0.9,0.7,1.8,1.4,2.7,2c1.8,1.3,3.6,2.7,5.4,4c1.8,1.2,3.7,2.4,5.4,3.6
		c0.9,0.6,1.8,1.2,2.7,1.8c0.9,0.6,1.8,1.1,2.7,1.6c1.8,1.1,3.6,2.1,5.3,3.2c1.7,1,3.5,1.9,5.2,2.9c1.7,0.9,3.4,1.9,5.1,2.7
		c1.7,0.8,3.3,1.6,5,2.4c1.6,0.8,3.2,1.6,4.8,2.2c3.2,1.3,6.1,2.7,8.9,3.8c2.9,1.1,5.5,2,8,3c2.5,0.8,4.8,1.5,6.9,2.2
		c1,0.3,2,0.6,2.9,0.9c0.9,0.3,1.8,0.5,2.6,0.7c1.6,0.4,3,0.8,4.2,1.1c2.3,0.6,3.5,0.9,3.5,0.9l-3.8,15.4c0,0-1.3-0.4-3.7-1
		c-1.2-0.3-2.7-0.8-4.4-1.3c-0.9-0.3-1.8-0.5-2.8-0.8c-1-0.3-2-0.7-3.2-1.1c-2.2-0.8-4.7-1.6-7.3-2.5c-2.6-1-5.5-2.1-8.5-3.3
		c-3-1.2-6.2-2.7-9.5-4.2c-1.7-0.7-3.3-1.6-5.1-2.5c-1.7-0.9-3.5-1.7-5.3-2.6c-1.8-0.9-3.5-2-5.4-3c-1.8-1-3.7-2-5.5-3.2
		c-1.8-1.1-3.7-2.3-5.6-3.5c-0.9-0.6-1.9-1.2-2.8-1.8c-0.9-0.6-1.9-1.3-2.8-1.9c-1.9-1.3-3.8-2.6-5.7-4c-1.9-1.4-3.8-2.9-5.7-4.3
		c-1-0.7-1.9-1.4-2.9-2.2c-0.9-0.8-1.9-1.6-2.8-2.3c-1.9-1.6-3.8-3.1-5.7-4.8c-7.5-6.6-14.8-13.9-21.8-21.7
		c-6.9-7.9-13.4-16.3-19.4-25.1c-5.9-8.8-11.2-18-16-27.3c-4.6-9.4-8.6-18.8-12-28.2c-0.8-2.3-1.6-4.7-2.3-7
		c-0.4-1.2-0.8-2.3-1.1-3.5c-0.3-1.2-0.7-2.3-1-3.5c-0.6-2.3-1.3-4.6-1.9-6.8c-0.5-2.3-1.1-4.5-1.6-6.7c-0.3-1.1-0.5-2.2-0.8-3.3
		c-0.2-1.1-0.4-2.2-0.6-3.3c-0.4-2.2-0.8-4.3-1.2-6.4c-0.4-2.1-0.6-4.2-0.9-6.2c-0.3-2-0.6-4-0.8-6c-0.2-2-0.4-3.9-0.6-5.8
		c-0.2-1.9-0.4-3.7-0.5-5.5c-0.2-3.6-0.4-7-0.5-10.3c0-3.2-0.1-6.2-0.1-9c0.1-2.8,0.2-5.4,0.3-7.7c0-1.2,0.1-2.3,0.1-3.3
		c0.1-1,0.2-2,0.2-2.8c0.1-1.8,0.3-3.2,0.4-4.4c0.2-2.4,0.3-3.7,0.3-3.7L627,396.9z"/>
</g>
</svg>
